<svg xmlns="http://www.w3.org/2000/svg" version="1.1" viewBox="-5.0 -10.0 110.0 135.0">
 <path d="m88.492 65.824c-1.5469-2.6758-4.8125-3.75-7.5977-2.6367-0.89844-1.8086-2.5312-3.1719-4.4922-3.7148-0.54688-5.1172-4.8984-9.1211-10.16-9.1211-0.035157 0-0.070313 0.003907-0.10156 0.003907v-3.0117l5.1094-5.1133c0.77734 0.14844 1.5586 0.21875 2.3359 0.21875 3.3008 0 6.5352-1.3008 8.9141-3.6797 3.1211-3.1211 4.3828-7.7148 3.2891-11.992-0.11719-0.46094-0.48047-0.82422-0.94141-0.94141-4.2734-1.0938-8.8711 0.16797-11.992 3.2891-2.9414 2.9453-4.2266 7.1953-3.4531 11.254l-3.2695 3.2695v-14.918c4.0234-2.6836 6.4922-7.2617 6.4922-12.125 0-5.1172-2.7344-9.918-7.1367-12.527-0.41016-0.24219-0.92188-0.24219-1.332 0-4.3984 2.6133-7.1289 7.4141-7.1289 12.527 0 4.8672 2.4727 9.4492 6.4961 12.133v9.9141l-3.2734-3.2695c0.77734-4.0586-0.51172-8.3086-3.4531-11.25-3.1211-3.1211-7.7148-4.3828-11.992-3.2891-0.46094 0.11719-0.82422 0.48047-0.94141 0.94141-1.0938 4.2734 0.16797 8.8711 3.2891 11.992 2.3789 2.3789 5.6094 3.6758 8.9062 3.6758 0.78125 0 1.5664-0.074219 2.3477-0.22266l5.1133 5.1133v8.3711c-2.0352 0.55469-3.8516 1.7266-5.1992 3.3828-1.0039-0.43359-2.0938-0.66016-3.2031-0.66016-3.4102 0-6.3945 2.0977-7.5703 5.2109-2.4023 0.25-4.5273 1.6523-5.7148 3.7539l-1.6211-0.43359c-1.6367-0.52734-3.6367-0.32031-5.1094 0.52734l-12.438 7.1836-0.99609-1.7305c-1.0156-1.7539-3.2734-2.3594-5.0312-1.3477l-4.1172 2.3789c-0.84766 0.48828-1.457 1.2812-1.7148 2.2344-0.25781 0.95312-0.125 1.9492 0.36719 2.7969l11.688 20.242c0.48828 0.85156 1.2812 1.4609 2.2383 1.7148 0.32031 0.085938 0.64453 0.12891 0.96484 0.12891 0.63672 0 1.2656-0.16406 1.8281-0.49219l4.1172-2.3828c1.7539-1.0156 2.3594-3.2695 1.3477-5.0273l-0.99609-1.7266 1.707-0.98438c0.78906-0.45703 1.1016-0.44922 2.3047-0.18359l17.938 4.8047c0.64844 0.17578 1.3047 0.26172 1.9609 0.26172 1.3086 0 2.6016-0.34375 3.7734-1.0195l26.191-15.121c2.9336-1.6953 3.9453-5.4688 2.25-8.4062zm-13.789-34.848c2.2852-2.2852 5.5664-3.3125 8.7266-2.7695 0.53906 3.1562-0.48438 6.4414-2.7695 8.7266-1.875 1.875-4.4219 2.9023-7.0195 2.9102l3.0156-3.0156c0.50781-0.50781 0.50781-1.3359 0-1.8438s-1.3359-0.50781-1.8438 0l-3.0117 3.0156c0.011719-2.5977 1.0352-5.1445 2.9102-7.0195zm-19.848-0.98828c-0.50781-0.50781-1.3359-0.50781-1.8438 0-0.50781 0.50781-0.50781 1.3359 0 1.8438l3.0156 3.0117c-2.5977-0.011719-5.1445-1.0352-7.0195-2.9102-2.2852-2.2852-3.3125-5.5664-2.7695-8.7266 3.1562-0.53906 6.4414 0.48438 8.7266 2.7695 1.875 1.875 2.8984 4.4219 2.9102 7.0195l-3.0117-3.0117zm4.7852-13.379c0-3.9336 1.9688-7.6445 5.1875-9.8594 3.2227 2.2148 5.1914 5.9219 5.1914 9.8594 0 3.3711-1.4453 6.5781-3.8828 8.8203v-4.7344c0-0.71875-0.58594-1.3047-1.3047-1.3047s-1.3047 0.58594-1.3047 1.3047v4.7422c-2.4414-2.2422-3.8906-5.4492-3.8906-8.8281zm25.297 55.363-26.191 15.121c-1.1523 0.66406-2.4844 0.84375-3.75 0.5l-17.969-4.8164c-0.019532-0.003906-0.035156-0.011719-0.054688-0.015625-1.4883-0.32812-2.5859-0.47266-4.2031 0.46875l-1.7031 0.98438-7.0859-12.273 12.438-7.1836c0.84375-0.48437 2.0859-0.60937 3.0234-0.30078 0.023438 0.007813 0.046875 0.015625 0.070313 0.019531l18.023 4.832c0.75781 0.20312 1.3906 0.69141 1.7852 1.375 0.39453 0.68359 0.5 1.4766 0.29688 2.2344-0.19922 0.75-0.67188 1.3633-1.332 1.7383-0.64844 0.36328-1.4141 0.46094-2.1641 0.27344l-13.598-3.5977c-0.69531-0.18359-1.4102 0.23047-1.5938 0.92578-0.18359 0.69531 0.23047 1.4102 0.92578 1.5938l13.512 3.5742c0.011718 0.003907 0.023437 0.007813 0.035156 0.011719 0.003906 0 0.011718 0.003906 0.015625 0.003906l2.1445 0.56641c1.6172 0.42578 2.5273 0.11719 4.6211-1.0938l19.211-11.09c1.6914-0.97656 3.8594-0.39453 4.8359 1.2969 0.97656 1.6953 0.39453 3.8672-1.2969 4.8438z"/>
<text x="0.0" y="117.5" font-size="5.0" font-weight="bold" font-family="Arbeit Regular, Helvetica, Arial-Unicode, Arial, Sans-serif" fill="#000000">Created by zuri</text><text x="0.0" y="122.5" font-size="5.0" font-weight="bold" font-family="Arbeit Regular, Helvetica, Arial-Unicode, Arial, Sans-serif" fill="#000000">from Noun Project</text></svg>