<svg xmlns="http://www.w3.org/2000/svg" xmlns:xlink="http://www.w3.org/1999/xlink" version="1.1" x="0px" y="0px" viewBox="31.1 104.2 449.8 379.5" style="enable-background:new 31.1 104.2 449.8 303.6;" xml:space="preserve"><g><g><path d="M31.1,104.2v303.6h449.8V104.2H31.1z M449.5,376.4c0,2.8-2.2,5-5,5H195c-2.8,0-5-2.2-5-5s2.2-5,5-5h49V261    H117.9c-2.8,0-5-2.2-5-5s2.2-5,5-5H244v-67.1c0-2.8,2.2-5,5-5s5,2.2,5,5V256v27.2h124c2.8,0,5,2.2,5,5s-2.2,5-5,5h-59.5v15.7    c0,2.8-2.2,5-5,5s-5-2.2-5-5v-15.7H254v78.3h54.5v-28.8c0-2.8,2.2-5,5-5s5,2.2,5,5v28.8h121.1v-78.3h-37.1c-2.8,0-5-2.2-5-5    s2.2-5,5-5h37.1V140.6H254v19.1c0,2.8-2.2,5-5,5s-5-2.2-5-5v-19.1H72.5v230.8h65.1c2.8,0,5,2.2,5,5s-2.2,5-5,5H67.5    c-2.8,0-5-2.2-5-5V135.6c0-2.8,2.2-5,5-5h377.1c2.8,0,5,2.2,5,5V376.4z"/></g></g><text x="31.1" y="422.8" fill="#000000" font-size="5px" font-weight="bold" font-family="'Helvetica Neue', Helvetica, Arial-Unicode, Arial, Sans-serif">Created by ibrandify</text><text x="31.1" y="427.8" fill="#000000" font-size="5px" font-weight="bold" font-family="'Helvetica Neue', Helvetica, Arial-Unicode, Arial, Sans-serif">from the Noun Project</text></svg>