<svg xmlns="http://www.w3.org/2000/svg" version="1.1" viewBox="-5.0 -10.0 110.0 135.0">
 <path d="m14.895 56.664h8.5547v1.9102h-8.5547zm28.98 8.0117h4.9141v32.457h-48.289v-32.457h4.9141l1.4727 3.3359c0.35547 0.80859 1.1523 1.3281 2.043 1.3281h31.438c0.88281-0.003906 1.6953-0.51953 2.0547-1.3398l0.59375-1.3516zm-2.2773 11.117c0-1.2227-0.99609-2.2188-2.2305-2.2188h-29.445c-1.2344 0-2.2422 0.99609-2.2422 2.2188v8.9961c0 1.2344 1.0078 2.2305 2.2422 2.2305h29.445c1.2344 0 2.2305-0.99609 2.2305-2.2305zm-26.121-21.504h7.4062c-0.87891-2.1836-2.7891-6.9414-3.6797-9.1602zm10.93 0h7.418c-0.90625-2.2578-2.7734-6.8867-3.6914-9.1602-0.55078 1.3594-3.1172 7.668-3.7266 9.1602zm-0.58203 4.2852h8.5703v-1.9102h-8.5703zm-10.93 8.3906h8.5547v-6.0156h-8.5547zm-7.3438-3.3359 1.4727 3.3359h3.5v-6.0156h-8.5703v1.3516h1.5547c0.87891 0 1.6836 0.52344 2.043 1.3281zm-3.0156-9.3398h7.418c-0.69531-1.7188-3.0195-7.4961-3.6914-9.1602zm7.9883 2.375h-8.5703v1.9102h8.5703zm2.3711 27.984h8.5547v-8.6992h-8.5547zm10.93 0h8.5703v-8.6992h-8.5703zm10.945 0h2.457v-8.6992h-2.457zm-26.715 0h2.4688v-8.6992h-2.4688zm26.715-19.355v1.6719h3.5c0.17188-0.35938 0.57422-1.2969 0.73438-1.6719zm48.727-15.336c-2.3359-1.6211-5.2188-0.27734-6.0156 2.3516 1.7383 0.75781 5.2383 2.2812 6.9766 3.0391 0.32422-0.68359 0.62891-1.4688 0.65234-2.2305-0.039063-1.2344-0.56641-2.4336-1.6133-3.1602zm-20.566 35.781c1.5273 0.66797 5.4922 2.4062 6.9766 3.0391l0.60547-1.3984-6.9766-3.0391zm6.3125-20.445h-20.078v2.375h19.035zm-45.418 1.6719h8.5703v-6.0156h-8.5703zm52.707-12.473-12.047 27.676 6.9766 3.0273c3.0781-7.0469 9.0234-20.781 12.047-27.664-1.7383-0.75781-5.2383-2.2812-6.9766-3.0391zm18.738-51.625h-88.559c-1.2344 0-2.2305 0.99609-2.2305 2.2188v38.414c0.59375-0.625 1.5391-0.92188 2.375-0.67578v-36.395c0-0.65234 0.53516-1.1875 1.1875-1.1875h85.898c0.65234 0 1.1875 0.53516 1.1875 1.1875v57.676c0 0.65234-0.53516 1.1875-1.1875 1.1875h-11.227l-1.0312 2.375h13.59c1.2344 0 2.2305-0.99609 2.2305-2.2305l-0.003906-60.352c0-1.2227-0.99609-2.2188-2.2305-2.2188zm-33.016 93.957 6.1836-6.1016-5.9336-2.5742zm-53.027-57.961c0.96094-0.0625 1.9492 0.042969 2.8594 0.36719 1.0273-5.8477 6.8516-10.008 12.852-8.9609l5.3281-2.8711-7.1094-3.2266c-1.4258-0.65234-3.0742-0.67578-4.5234-0.058594l-9.4102 3.9766zm36.055-16.891-17.195 9.3047c3.1445 1.543 5.4609 4.5078 6.1133 8.0703 3.0391-1.7031 7.2539-0.25781 8.6641 2.8359 1.1875-0.9375 2.7891-1.3633 4.3555-1.0664 1.2383-5.1016 8.3789-6.707 11.691-2.5859 1.3398-1.4375 3.5117-2.0898 5.4609-1.5195 0.51172-2.2891 1.8984-4.2266 3.7969-5.4609l-17.504-9.5664c-1.6914-0.91016-3.707-0.91016-5.3828-0.011719zm30.348 28.625c0.87109-1.8789 2.6758-3.3711 4.7227-3.6211 3.9258-0.77734 7.7969 3.0312 7.0391 6.9766-0.042969 1.1836-1.7891 4.5195-2.207 5.6602l-1.4375 3.3008h9.0078v-16.492c0.058594-2.2773-2.5742-3.7812-4.5234-2.6328-0.85938 0.53125-2.0195-0.33594-1.7344-1.3164 0.75391-2.7852-3.0547-4.7031-4.8438-2.4805-0.78125 0.92969-2.293 0.20312-2.1016-0.98438 0-3.5977-2.918-6.5156-6.5156-6.5156-3.5586 0-6.4219 2.7773-6.5156 6.3359 0.007813 0.91406-1.1523 1.4922-1.875 0.92578-0.53516-0.37891-1.1523-0.58203-1.7812-0.58203-1.2695 0-2.4219 0.80859-2.8477 2.0039-0.32031 1-1.8438 1.0508-2.207 0.058594-0.6875-1.6484-2.2773-2.707-4.0703-2.707-2.3633 0-4.2852 1.8516-4.3906 4.1992-0.023437 0.40234-0.23828 0.76953-0.59375 0.97266-0.83203 0.52344-1.6758-0.42969-2.5391-0.30859-1.2227 0-2.3242 0.72266-2.7891 1.8398-0.21484 0.51172-0.75781 0.79688-1.293 0.71094-0.54687-0.09375-0.94922-0.55859-0.98437-1.1172-0.10938-3.5859-4.8125-5.1758-7.0742-2.4219-0.75 0.94922-2.3086 0.16797-2.0781-0.98438-0.35547-11.641-17.062-11.934-17.73-0.29688-0.003906 0.92188-1.1445 1.4961-1.8867 0.92578-0.27344-0.20312-0.55859-0.35547-0.86719-0.47656-0.71484-0.30078-1.5234-0.42187-2.2891-0.30859v4.8555c0.14844 0.36719 2.4258 6.0312 2.4805 6.1719 0 0 3.2383-8.0586 3.2383-8.0586 0.65234-1.8047 3.3242-2.0195 4.25-0.34375 1.0039 2.0039 2.5703 6.3672 3.4414 8.4023l2.7539-6.8359c0.27734-0.63672 0.57422-1.7422 1.1875-2.1484 1.1289-1.0977 3.2305-0.55078 3.7617 0.92578l1.8984 4.7461c-0.003906 0.027344 2.4805 6.082 2.457 6.1016 0.042969 0.125 0.042969 0.26172 0.070313 0.39062v7.4414h5.4844c0.089844-0.085937 0.20312-0.18359 0.32031-0.25 0.35156-0.22266 0.78906-0.36328 1.2109-0.36719h5.1406c0.41406 0.007812 0.84375 0.13281 1.1992 0.35547h0.011718c0.10547 0.089843 0.21875 0.17187 0.33203 0.26172h21.812zm6.0859-13.539c3.0391-1.375 6.8086 0.75781 7.1914 4.0234 1.3398-0.19141 2.7031 0.14062 3.8438 0.86719l0.003906-13.84-12.641-5.0195c-1.375-0.54688-2.8945-0.53516-4.2617 0.035156l-10.266 4.3203 5.3555 2.918c4.7695-1.2266 9.8086 2.0078 10.773 6.6953zm-53.699-20.555c0.14453 5.293 7.8945 5.2812 8.0352 0-0.14062-5.2969-7.8945-5.3125-8.0352 0zm64.738 9.0547-11.762-4.6758c-1.9688-0.78516-4.1172-0.75781-6.0664 0.058594l-12.008 5.043c-17.539-9.4531-12.449-9.3516-30.039-0.011719-13.445-5.9883-9.9727-6.2969-23.652-0.46094v-17.898h83.523zm-60.727-15.453c-8.4297 0.27344-8.4414 12.504 0 12.781 8.457-0.27344 8.4453-12.508 0-12.781z"/>
<text x="0.0" y="117.5" font-size="5.0" font-weight="bold" font-family="Arbeit Regular, Helvetica, Arial-Unicode, Arial, Sans-serif" fill="#000000">Created by karyative</text><text x="0.0" y="122.5" font-size="5.0" font-weight="bold" font-family="Arbeit Regular, Helvetica, Arial-Unicode, Arial, Sans-serif" fill="#000000">from Noun Project</text></svg>