<svg xmlns="http://www.w3.org/2000/svg" version="1.1" viewBox="-5.0 -10.0 110.0 135.0">
 <path d="m62.199 50.203c4.9102-0.93359 14.281-2.1602 16.184 2.3672 1.2422 2.9531-1.6016 7.1133-7.207 11.449-1.2656 0.98047-2.6797 1.9805-4.2188 2.9844-0.042969 0.027344-0.070312 0.070313-0.078125 0.12109-0.63281 4.5-2.6094 8.4844-5.4648 11.609-4.2578 4.6641-10.473 7.4141-17.09 7.0977-4.1523-0.19531-8.168-1.5781-11.566-3.9805-0.042968-0.03125-0.089843-0.039062-0.14062-0.027343-2.5547 0.63281-4.9453 1.1055-7.1211 1.4062-7.0195 0.97266-11.98 0.097656-13.223-2.8555-0.82422-1.9609 0.066406-4.3672 2.3242-6.9727 1.9766-2.2812 5.0625-4.8164 8.9688-7.375 0.054688-0.035156 0.082032-0.09375 0.078125-0.16016-0.33594-4.1016 0.48047-8.1797 2.4023-11.855 4.5273-8.6836 14.164-13.047 23.363-11.297 4.9609 0.94531 9.4023 3.5703 12.629 7.4297 0.035157 0.050781 0.097657 0.070313 0.16016 0.058594zm19.559-34.852v18.387c0 0.66406 0.54297 1.207 1.207 1.207h0.84766c0.66406 0 1.207-0.54297 1.207-1.207v-18.387c0-0.66406-0.54297-1.207-1.207-1.207h-0.84766c-0.66406 0-1.207 0.53906-1.207 1.207zm-27.902 11.836c0 0.46875 0.035156 1.3398-0.039063 1.8516-0.015625 0.097657 0.054688 0.1875 0.15234 0.19531l25.008 2.6406c0.10156 0.011719 0.19141-0.070312 0.19141-0.17188v-14.316c0-0.10156-0.089844-0.18359-0.19141-0.17188l-25.012 2.6406c-0.097656 0.011719-0.16406 0.097656-0.15234 0.19531 0.082031 0.59766 0.039062 1.8516 0.039062 2.4141zm-28.652-4.875c-0.75391 0-1.332 0.070312-1.9102 0.45312-0.41797 0.28125-0.67969 0.66797-0.67969 1.0938v1.3672c0 1 1.2812 1.5469 2.3203 1.5469h7.7422c0.09375 0 0.17188-0.078126 0.17188-0.17188v-4.1172c0-0.09375-0.078125-0.17188-0.17188-0.17188zm10.406 6.0547h15.484c0.09375 0 0.17188-0.078126 0.17188-0.17188v-7.2969c0-0.09375-0.078125-0.17188-0.17188-0.17188l-15.484-0.003906c-0.09375 0-0.17188 0.078125-0.17188 0.17188v7.2969c-0.003906 0.097656 0.074219 0.17578 0.17188 0.17578zm5.2695 11.672c2.9883-0.48047 6.0156-0.46484 8.8945 0 0.125 0.019532 0.23047-0.097656 0.19141-0.21875l-2.5391-8.7383c-0.023437-0.074219-0.085937-0.125-0.16406-0.125h-3.8711c-0.078125 0-0.14453 0.050781-0.16406 0.125l-2.5391 8.7383c-0.035156 0.12109 0.066406 0.23828 0.19141 0.21875zm-22.816-7.6406c-0.375-1.1914-2.0742-1.207-2.4609-0.007813l-1.6172 5.0039c-0.023437 0.074219-0.089844 0.12109-0.16406 0.12109l-5.1641-0.011719c-1.4766 0-1.8008 1.6523-0.85547 2.3359l4.2617 3.0859c0.0625 0.042969 0.085938 0.12109 0.0625 0.19531l-1.6367 5h0.003907c-0.38281 1.1797 0.97656 2.1758 1.9844 1.4414l4.2539-3.1016c0.0625-0.042969 0.14062-0.042969 0.20312 0l4.1719 3.043c0.003906 0 0.003906 0.003906 0.003906 0.003906 1.0859 0.85156 2.4453-0.21875 2.0625-1.3867l-1.6367-5c-0.023437-0.074219 0-0.14844 0.0625-0.19531l4.2617-3.0859-0.003906-0.003906c1.0078-0.73047 0.48828-2.3359-0.75781-2.3359l-5.2617 0.011719c-0.074219 0-0.14063-0.046875-0.16406-0.12109zm66.344 31.719c-0.375-1.1914-2.0742-1.207-2.4609-0.007813l-1.6172 5.0039c-0.023437 0.074219-0.089844 0.12109-0.16406 0.12109l-5.1641-0.011719c-1.4766 0-1.8008 1.6523-0.85547 2.3359l4.2617 3.0859c0.0625 0.042969 0.085938 0.12109 0.0625 0.19531l-1.6367 5h0.003907c-0.38281 1.1797 0.97656 2.1758 1.9844 1.4414l4.2539-3.1016c0.0625-0.042969 0.14062-0.042969 0.20312 0l4.1719 3.043c0.003906 0 0.003906 0.003906 0.003906 0.003906 1.0859 0.85156 2.4453-0.21484 2.0625-1.3867l-1.6367-5c-0.023437-0.074219 0-0.14844 0.0625-0.19531l4.2617-3.0859-0.003906-0.003906c1.0078-0.73047 0.48828-2.3359-0.75781-2.3359l-5.2617 0.011719c-0.074219 0-0.14063-0.046875-0.16406-0.12109zm-60.535 4.8125c-3.1797 2.1719-5.6875 4.2773-7.3203 6.1602-1.5898 1.832-2.3008 3.3281-1.8984 4.2812 0.73047 1.7344 4.6836 2.1016 10.492 1.3008 13.672-1.8945 33.613-10.309 44.457-18.695 4.6367-3.5859 7.1367-6.6719 6.4102-8.4062-0.40234-0.95312-1.9648-1.4922-4.3867-1.6367-2.0586-0.125-4.6367 0.070312-7.5938 0.56641-0.12109 0.019531-0.18359 0.15625-0.11719 0.26172 0.16797 0.27734 0.33203 0.55469 0.48828 0.83984l0.003906-0.007812c1.3359 2.4258 2.1914 5.0977 2.5312 7.8242 0.007812 0.066406-0.019531 0.12891-0.074219 0.16406-0.98047 0.64453-1.9453 1.2969-2.9297 1.9102-8.2422 5.1016-19.02 9.8047-28.727 12.586-2.3516 0.67578-4.3789 1.1328-6.707 1.6367-0.066406 0.015625-0.13281-0.007813-0.17578-0.0625-2.0273-2.6289-3.418-5.3594-4.1797-8.6211-0.035156-0.11328-0.17188-0.16797-0.27344-0.10156z" fill-rule="evenodd"/>
<text x="0.0" y="117.5" font-size="5.0" font-weight="bold" font-family="Arbeit Regular, Helvetica, Arial-Unicode, Arial, Sans-serif" fill="#000000">Created by gravisio</text><text x="0.0" y="122.5" font-size="5.0" font-weight="bold" font-family="Arbeit Regular, Helvetica, Arial-Unicode, Arial, Sans-serif" fill="#000000">from Noun Project</text></svg>