<svg xmlns="http://www.w3.org/2000/svg" version="1.1" viewBox="-5.0 -10.0 110.0 135.0">
 <path d="m23.641 37.941c3.9883 7.9102 6.0508 17.961 5.7305 27.398 0.87109-1.7305 1.8281-3.5117 2.8594-5.3203 0.019531 0.050781 0.050781 0.10156 0.070312 0.14062 0.37891 0.64844 0.89844 0.75 1.1797 0.76172h0.03125c0.26172 0 0.51953-0.078125 0.73828-0.23828-2.1797 3.8203-4.0781 7.5703-5.4805 10.852-0.98828 2.3086-1.7188 4.3594-2.1992 6.1289h-2.1602c0.48828-1.9609 1.2891-4.25 2.3906-6.8203 1.4883-10.172-0.23828-21.879-4.5195-30.949 0.23828-0.03125 0.44922-0.070312 0.62109-0.14844 0.71875-0.30469 1.0273-1.0664 0.73828-1.8047zm32.93-9.6211c0.60938-0.62891 1.3711-1.0508 2.1992-1.2383v-1.6719l-4.1484-2.6094-4.1484 2.5781v5.3398l4.1484 2.6094 0.91016-0.57031c-0.12891-0.41016-0.19922-0.85156-0.21094-1.3008-0.019531-1.168 0.42969-2.2852 1.25-3.1367zm3.2109 7.5586h-0.050781c-1.1602 0-2.2617-0.44922-3.0898-1.2695l-0.039063-0.039063-0.94922 0.58984v5.3398l4.1484 2.6094 4.1484-2.5781v-5.3398l-1.0508-0.66016c-0.78906 0.80859-1.8867 1.3398-3.1172 1.3477zm9.3789-10.438-4.1484-2.6094-4.1484 2.5781v1.6992c0.73047 0.19141 1.4102 0.57031 1.9688 1.1289 0.83984 0.82812 1.3086 1.9414 1.3203 3.1289 0.011718 0.46094-0.058594 0.91016-0.19141 1.3281l1.0391 0.67578 4.1484-2.5781zm-22.988 56.059c0.76953 1.1094 0.94141 2.4609 0.46875 3.7305l-3.6602 9.8008c-0.58984 1.5703-2.1094 2.6289-3.7891 2.6289h-27.832c-1.6797 0-3.1992-1.0586-3.7891-2.6289l-3.6602-9.8008c-0.46875-1.2617-0.30078-2.6211 0.46875-3.7305 0.76953-1.1094 1.9805-1.7383 3.3281-1.7383h35.141c1.3438 0 2.5508 0.62891 3.3242 1.7383zm-31.102 13.02c0-0.57812-0.46875-1.0391-1.0391-1.0391h-2.5781l-1.0781-2.8906c-0.19922-0.53906-0.80078-0.80859-1.3398-0.60938-0.53906 0.19922-0.80859 0.80078-0.60938 1.3398l1.1094 2.9688c0.28906 0.76172 1.0195 1.2812 1.8398 1.2812h2.6719c0.55469 0 1.0234-0.46875 1.0234-1.0508zm42.328-63.07c0.011718 0.62891 0.26172 1.2305 0.69922 1.6719 0.44141 0.44141 1.0312 0.67969 1.6484 0.67188 1.2812-0.011719 2.3203-1.0898 2.3008-2.3906-0.011719-0.62891-0.26172-1.2305-0.69922-1.6719-0.44141-0.42969-1.0117-0.67188-1.6211-0.67188h-0.03125c-0.62109 0.011718-1.1992 0.26172-1.6289 0.71094-0.4375 0.44922-0.67578 1.0508-0.66797 1.6797zm8.6406 3.7305v5.3398l4.1484 2.6094 4.1484-2.5781v-5.3398l-4.1484-2.6094zm-25.27 13.781c-2.1602-2.5-3.8203-5.3203-4.9219-8.3398-1.4102 3.8281-1.9297 7.9609-2.1211 10.34-0.26172 3.2891-0.12109 5.7383 0.089844 7.0703 0.78906-0.82812 1.8906-1.4414 4.5586-1.5586l0.44922-0.019531c2.5-0.10156 6.3594-0.26953 9.6797-1.3008-2.8945-1.543-5.5156-3.6211-7.7344-6.1914zm-37.551-23.883c-3.5195-7.9688-0.59766-19.406 0.37109-22.727 3.4414 1 15.289 4.9688 18.789 12.91 2.0391 4.6211 0.03125 12.441-1.0508 16.641l-0.12891 0.49609c-0.76953 3.0117-0.5 4.3008 0.039062 5.4102-1.4688-0.21875-4.4492-1.1602-7.8789-3.0391-2.8906-1.5781-8.0508-4.9492-10.141-9.6914zm5.6602-16.297c3.5117 1.6719 8.0508 4.4297 9.6914 8.1484 0.26953 0.60156 0.44141 1.3984 0.5 2.3594 0.039063 0.55078 0.5 0.96875 1.0391 0.96875h0.070313c0.57031-0.039062 1.0117-0.53906 0.96875-1.1094-0.078126-1.1992-0.30859-2.2305-0.67188-3.0586-1.8984-4.3086-6.8711-7.3789-10.699-9.1992-0.51953-0.25-1.1406-0.019531-1.3906 0.5-0.25781 0.53125-0.035157 1.1484 0.49219 1.3906zm72.699 43.738-1.5898-1.8398c-0.37891 0.37109-0.76953 0.71875-1.1719 1.0703-0.39844 0.35156-0.80859 0.67969-1.2305 1l1.5898 1.8398zm15.32 18.309-1.8203 1.5703c-1.8906 1.6406-4.7617 1.4297-6.3984-0.46875l-10.891-12.602c-0.10156-0.12109-0.14844-0.26953-0.14062-0.42969 0.011718-0.16016 0.078124-0.30078 0.19922-0.39844l5.8789-5.0781 1.9102-1.6484c0.10938-0.10156 0.25-0.14063 0.39062-0.14063 0.17188 0 0.32812 0.070313 0.44922 0.19922l10.891 12.609c1.6328 1.8867 1.4219 4.7578-0.46875 6.3867zm-1.1094-5.0273-2.1406-2.4805c-0.37891-0.44141-1.0391-0.48047-1.4688-0.10937-0.44141 0.37891-0.48047 1.0391-0.10938 1.4688l2.1406 2.4805c0.12891 0.14844 0.10937 0.37891-0.039063 0.51172l-0.96094 0.82812c-0.44141 0.37891-0.48047 1.0391-0.10938 1.4688 0.21094 0.23828 0.5 0.35938 0.78906 0.35938 0.23828 0 0.48047-0.078125 0.67969-0.25l0.96094-0.82812c1.0273-0.87891 1.1406-2.4297 0.25781-3.4492zm-18.328-15.641c-5.0312 4.3516-11.461 6.4688-18.078 5.9883-2.7188-0.19922-5.3398-0.82813-7.7891-1.8516-0.039062-0.019531-0.078125-0.039063-0.12109-0.050781-3.4609-1.4688-6.5703-3.7188-9.1016-6.6484-2.5586-2.9688-4.3516-6.4219-5.2891-10.109-0.011719-0.078125-0.03125-0.14844-0.050781-0.21875-0.60938-2.5-0.82812-5.1094-0.64062-7.75 0.48047-6.6289 3.5195-12.68 8.5508-17.02 4.5586-3.9414 10.27-6.0586 16.23-6.0586 0.60938 0 1.2305 0.019532 1.8516 0.070313 6.6289 0.48047 12.68 3.5195 17.02 8.5508 4.3516 5.0312 6.4688 11.449 5.9883 18.078-0.51172 6.6289-3.543 12.68-8.5703 17.02zm-1.0195-15.531c0-0.35938-0.17969-0.69141-0.48828-0.87891l-4.7109-2.9609 0.011718-5.9219c0-0.35938-0.17969-0.69141-0.48828-0.87891l-3.8281-2.4102 6.0586-4.0508c0.48047-0.32031 0.60938-0.96875 0.28906-1.4492-0.32031-0.48047-0.96875-0.60938-1.4492-0.28906l-7.4297 4.9688-4.5781 2.8516-4.6406-2.9219c-0.33984-0.21094-0.76953-0.21094-1.1094 0l-5.1992 3.2305c-0.30859 0.19141-0.48828 0.53125-0.48828 0.89062l-0.011719 6.5c0 0.35938 0.17969 0.69141 0.48828 0.87891l4.7109 2.9609v5.3594l-6.9609 4.6602c-0.48047 0.32031-0.60938 0.96875-0.28906 1.4492 0.19922 0.30078 0.53125 0.46094 0.87109 0.46094 0.19922 0 0.39844-0.058594 0.57812-0.17969l6.8594-4.5898 4.6211 2.8984c0.17188 0.10938 0.35938 0.16016 0.55859 0.16016 0.19141 0 0.37891-0.050782 0.55078-0.16016l4.6484-2.8906 4.6406 2.9219c0.17188 0.10938 0.35938 0.16016 0.55859 0.16016 0.19141 0 0.37891-0.050782 0.55078-0.16016l5.1992-3.2305c0.30859-0.19141 0.48828-0.53125 0.48828-0.89062z"/>
<text x="0.0" y="117.5" font-size="5.0" font-weight="bold" font-family="Arbeit Regular, Helvetica, Arial-Unicode, Arial, Sans-serif" fill="#000000">Created by Akhmad Zaini</text><text x="0.0" y="122.5" font-size="5.0" font-weight="bold" font-family="Arbeit Regular, Helvetica, Arial-Unicode, Arial, Sans-serif" fill="#000000">from Noun Project</text></svg>