<svg xmlns="http://www.w3.org/2000/svg" version="1.1" viewBox="-5.0 -10.0 110.0 135.0">
 <path d="m23.176 26.41c0-0.18359 0.10547-0.32031 0.28516-0.36719l34.508-9.2461c0.55859-0.14844 1.082-0.22266 1.6133-0.22266s1.0508 0.074219 1.6133 0.22266l34.508 9.2461c0.17969 0.046875 0.28516 0.18359 0.28516 0.36719s-0.10547 0.32031-0.28516 0.36719l-1.6602 0.44531-33.258-3.0078c-0.65234-0.058594-1.2227 0.42188-1.2812 1.0703-0.058594 0.64844 0.41797 1.2227 1.0703 1.2812l26.848 2.4297 6.8242 0.61719c0.60938 0.054688 1.0742 0.5625 1.0742 1.1758v8.207c-0.37891-0.089844-0.76953-0.13672-1.1758-0.13672s-0.80469 0.046875-1.1836 0.13672v-7.1289l-12.152-1.0977-19.617 5.2578c-1.1094 0.30078-2.1055 0.30078-3.2227 0l-34.508-9.2461c-0.17969-0.046875-0.28516-0.18359-0.28516-0.36719zm1.4141 29.352c0.67188-0.8125 0.80469-1.8203 0.37109-2.7773-0.78516-1.6992-0.73828-3.2578 0.13281-4.7617 0.86328-1.5039 2.1914-2.3203 4.0586-2.4922 1.043-0.097657 1.8594-0.72266 2.2188-1.707 0.23828-0.62891 0.53125-1.168 0.89062-1.6211l-13.328-9.9062c0.027344 0.52344 0.019531 1.0781-0.027344 1.6602-0.23828 2.7656-1.3359 5.957-3.0898 8.9922-1.7422 3.0352-3.9648 5.5781-6.2383 7.168-0.48438 0.33594-0.96875 0.625-1.4336 0.85938l15.328 6.6289c0.21094-0.69922 0.57812-1.375 1.1172-2.0352zm-10.816-13.801c1.582-2.7422 2.5703-5.5898 2.7773-8.0117 0.15234-1.8086-0.15234-3.1758-0.83594-3.8516l-0.37891-0.27734c-0.25781-0.14453-0.57031-0.21875-0.92188-0.21875-0.22656 0-0.46484 0.03125-0.72266 0.089844 2.4648 1.8789 1.3008 7.1211-1.2422 11.516-1.3359 2.3125-2.9766 4.2852-4.6172 5.5547-1.2891 0.98828-2.5117 1.4961-3.5859 1.4961-0.40625 0-0.79688-0.074218-1.1562-0.22266 0.21094 0.63672 0.51953 1.1055 0.94922 1.3672l0.41797 0.17969c2.0742 0.57812 6.1797-2.2109 9.3086-7.6172zm-7.4375 2.9766c-0.48828 0.21875-0.84375 0.24219-1.0273 0.13672-0.30078-0.17188-0.52734-0.92188-0.35547-2.207 0.20312-1.5039 0.87109-3.293 1.8828-5.0469 2.0312-3.5234 4.293-5.0117 5.2383-5.0117 0.10547 0 0.20312 0.019531 0.27344 0.0625 0.14062 0.082031 0.25781 0.27344 0.32812 0.55859 0.22656-0.70703 0.15234-1.9883-0.80469-1.9883-1.1094 0-3.7656 1.7422-6.1445 5.875-1.1836 2.0547-1.9727 4.1523-2.2109 5.918-0.35156 2.6523 1.0195 3.8281 2.8125 1.6992zm20.426 18.922c-0.37109-0.13672-0.71094-0.30078-1.0234-0.48047l-5.9062 4.0938 2.5703 0.57422c0.55859 0.125 0.9375 0.62891 0.92188 1.1953l-0.10547 2.6328 5.4609-4.6406c-0.10547-0.35938-0.17188-0.74219-0.21094-1.1562-0.10547-1.0469-0.72266-1.8555-1.707-2.2227zm8.9609 6.4141c-0.35938 0.16406-0.71094 0.28906-1.0625 0.38281l-1.2812 7.0703 2.2266-1.4102c0.47266-0.30469 1.1094-0.22266 1.4961 0.19531l1.7812 1.9336 0.57813-7.1484c-0.32031-0.18359-0.64453-0.40234-0.96875-0.66406-0.80469-0.67187-1.8203-0.80469-2.7773-0.36719zm37.988-6.7578-19.367-8.3672c-0.21875 0.53906-0.53125 1.0664-0.95703 1.5781-0.67188 0.8125-0.80469 1.8203-0.37109 2.7773 0.77734 1.7031 0.73828 3.2617-0.13281 4.7617-0.87109 1.5039-2.1992 2.3203-4.0586 2.4961-1.0508 0.097656-1.8594 0.71875-2.2266 1.707-0.29297 0.80078-0.69141 1.4609-1.2031 1.9844l17.008 12.645c2.3594 1.2812 7.1016-1.2109 10.457-7.0195 1.5625-2.7227 2.4648-5.5898 2.5312-8.0781 0.058594-2.1602-0.55078-3.7891-1.6797-4.4805zm-14.125-24.906c-0.73047 0-1.4688-0.10156-2.2266-0.30469l-19.652-5.2695v7.7852c0.59766 0.21094 1.1836 0.55469 1.7617 1.0312 0.81641 0.67188 1.8203 0.80469 2.7773 0.36719 1.707-0.77734 3.2617-0.73438 4.7695 0.13281 1.4961 0.86719 2.3125 2.1953 2.4922 4.0586 0.09375 1.0469 0.72266 1.8555 1.707 2.2227 1.7539 0.65234 2.8242 1.7852 3.2695 3.4609 0.058594 0.20312 0.09375 0.40234 0.13281 0.60156l0.87109 0.37891c1.3555 0.11719 2.7305 0.17969 4.0977 0.17969 7.8867 0 15.445-1.9648 21.891-5.6914v-14.527l-19.664 5.2695c-0.75781 0.20312-1.4961 0.30469-2.2266 0.30469zm34.566 8.1367c1.5273 0 2.7578-1.2383 2.7578-2.7656 0-1.5273-1.2305-2.7656-2.7578-2.7656s-2.7695 1.2422-2.7695 2.7656c0 1.5234 1.2422 2.7656 2.7695 2.7656zm1.5469 2.1211c-0.48438 0.15625-1.0039 0.23828-1.5469 0.23828-0.45312 0-0.89062-0.058594-1.3086-0.16797l-0.51953 1.1367c-0.45312 0.97656-0.65234 1.8867-0.65234 2.9609v6.1875c0 0.53516 0.42578 0.96875 0.95703 0.96875h3.3281c0.53125 0 0.95703-0.43359 0.95703-0.96875v-6.1875c0-1.0742-0.19922-1.9883-0.65234-2.9609l-0.55859-1.207zm-51.309 18.773c-0.39062 1.0391-0.92969 1.5664-1.8594 1.8164-0.9375 0.25-1.668 0.0625-2.5234-0.64453-0.92969-0.76953-2.0273-1.1602-3.1562-1.1602-0.70312 0-1.4219 0.15625-2.1055 0.46875-1.0156 0.46094-1.7617 0.45312-2.6055-0.027344-0.83594-0.48438-1.2148-1.1328-1.3164-2.2383-0.19141-1.957-1.3945-3.5312-3.2344-4.2148-1.043-0.38672-1.5742-0.92578-1.8203-1.8594-0.24609-0.93359-0.066406-1.6641 0.64453-2.5195 1.25-1.5117 1.5078-3.4805 0.69141-5.2656-0.46484-1.0117-0.45312-1.7617 0.027343-2.5977 0.48438-0.83594 1.1289-1.2188 2.2383-1.3242 1.9531-0.18359 3.5273-1.3945 4.2188-3.2344 0.37891-1.0391 0.92188-1.5664 1.8594-1.8164 0.92969-0.25 1.6602-0.0625 2.5117 0.64453 1.5156 1.25 3.4805 1.5117 5.2695 0.69141 1.0039-0.46484 1.7617-0.45312 2.5977 0.027344s1.2227 1.1328 1.3281 2.2344c0.17969 1.957 1.3945 3.5312 3.2344 4.2148 1.043 0.38672 1.5625 0.92578 1.8203 1.8594 0.24609 0.93359 0.058593 1.6641-0.64453 2.5195-1.25 1.5117-1.5156 3.4805-0.69141 5.2656 0.45312 1.0078 0.44531 1.7617-0.039062 2.5977-0.47266 0.83594-1.1289 1.2227-2.2383 1.3242-1.9531 0.18359-3.5273 1.3945-4.2109 3.2344zm1.8203-7.2305c2.293-3.9844 0.92969-9.0938-3.0547-11.391-1.9258-1.1133-4.1719-1.4102-6.3242-0.83594-2.1523 0.57422-3.9531 1.957-5.0625 3.8867-2.3047 3.9805-0.92969 9.0898 3.0547 11.391 1.2812 0.74219 2.7031 1.1211 4.1523 1.1211 0.72266 0 1.4492-0.09375 2.1719-0.28516 2.1523-0.57422 3.9453-1.957 5.0625-3.8867zm-4.2266-9.3477c-0.92969-0.53125-1.9453-0.80078-2.9844-0.80078-0.51172 0-1.0312 0.066406-1.5547 0.20312-1.5469 0.41406-2.8242 1.4023-3.6328 2.7852-0.79688 1.3828-1.0039 2.9922-0.59766 4.5352 0.41797 1.543 1.4023 2.832 2.7852 3.6289 1.3828 0.80078 2.9961 1.0117 4.5391 0.59766 1.5352-0.41406 2.8242-1.4023 3.6211-2.7852 1.6484-2.8555 0.67188-6.5156-2.1797-8.1641z" fill-rule="evenodd"/>
<text x="0.0" y="117.5" font-size="5.0" font-weight="bold" font-family="Arbeit Regular, Helvetica, Arial-Unicode, Arial, Sans-serif" fill="#000000">Created by Fina Arfiana</text><text x="0.0" y="122.5" font-size="5.0" font-weight="bold" font-family="Arbeit Regular, Helvetica, Arial-Unicode, Arial, Sans-serif" fill="#000000">from Noun Project</text></svg>