<svg xmlns="http://www.w3.org/2000/svg" viewBox="0 0 64.46 88.375" x="0px" y="0px"><title>Asset 5</title><g data-name="Layer 2"><g data-name="Layer 9"><path d="M42.81,63.6a1,1,0,0,1-.37-.07,1,1,0,0,1-.58-.63L30,24.36a1,1,0,0,1,0-.59L37.1.71a1,1,0,0,1,.49-.6A1,1,0,0,1,38.3,0l.28.05c6.28,1,17.61,4,23,13.55,4,7.12,3.82,16.37-.67,27.49C56.52,52,50.59,59.53,43.29,63.48A1,1,0,0,1,42.81,63.6ZM32,24.06,43.4,61.11c6.4-3.87,11.67-10.84,15.66-20.74,4.25-10.53,4.52-19.19.79-25.75C54.85,5.8,43.77,3,38.75,2.13ZM38.05,1h0Z"/><path d="M38.54,23c2.77-1.88,9.6-5.4,12,3.75a.74.74,0,0,1-.94.89L38.74,24.27A.73.73,0,0,1,38.54,23Z"/><path d="M31,47.23a8.46,8.46,0,0,0,5.72,3.68,10,10,0,0,0,1.44.1c4.73,0,9.15-3.29,9.36-3.45A1,1,0,0,0,46.31,46c-.05,0-4.88,3.64-9.28,3a6.47,6.47,0,0,1-4.4-2.85,9,9,0,0,0-7.26-3.85l-.61,2A7.19,7.19,0,0,1,31,47.23Z"/><path d="M42.81,62.6c-12.14,6.57-23.87.52-23.87.52l4.81-15.64,1-3.28c-4.39,0-8.85,2.72-8.92,2.76a1,1,0,1,1-1.06-1.7,19.85,19.85,0,0,1,10.59-3L31,24.06,25.41,6c-.65.22-36.49,3.69-21.94,39.75S44.52,68.16,44.52,68.16ZM13.21,26.87l8.44-2.38a.75.75,0,0,1,.9,1c-2.64,5.6-7.19,4-9.5,2.75A.76.76,0,0,1,13.21,26.87Z"/></g></g><text x="0" y="85.7" fill="#000000" font-size="5px" font-weight="bold" font-family="'Helvetica Neue', Helvetica, Arial-Unicode, Arial, Sans-serif">Created by Rachel Siao</text><text x="0" y="90.7" fill="#000000" font-size="5px" font-weight="bold" font-family="'Helvetica Neue', Helvetica, Arial-Unicode, Arial, Sans-serif">from the Noun Project</text></svg>