<svg xmlns="http://www.w3.org/2000/svg" viewBox="0 0 64 80" x="0px" y="0px"><path d="M59.93973,35.83781a2.06069,2.06069,0,0,0-1.41-1.45l-14.49-4.22a5.00763,5.00763,0,0,0-1.44-.2h-22.68c-.24054-.368-13.79246,4.0163-14.48,4.15a2.01114,2.01114,0,0,0-1.44,1.83C3.969,38.50167,7.74363,38.69117,9.57962,39.168c4.83641.65926,7.80933-.56314,10.44014-1.40018,12.00264-3.85167,22.09644,8.91931,33.91,3.77994a17.56135,17.56135,0,0,0,5.48-3.78A2.02361,2.02361,0,0,0,59.93973,35.83781Z"/><path d="M21.9097,28.96781c.35976.05743,19.61582-.02036,19.95022.01009a2.00613,2.00613,0,0,0,1.57981-.75008,2.0277,2.0277,0,0,0,.42-1.69l-1.21-5.88a7.24179,7.24179,0,0,0-7.06-5.75H28.4097a7.24178,7.24178,0,0,0-7.06,5.75l-1.21,5.88A2.05568,2.05568,0,0,0,21.9097,28.96781Z"/><path d="M36.52975,41.02781c-1.48987-.36838-2.72353-1.70927-3.40993-.27009l-2.23008.00007c-1.27369-1.92687-4.10267-1.85954-6.17994-2.11014-3.00242-.2231-6.82363.07038-6.33007,4.07027l.54,2.70991c1.12515,5.30674,8.56724,4.097,11.02.73987a6.91522,6.91522,0,0,0,1.46007-3.4099H32.5997c.33424,5.75858,10.701,9.47852,12.49021,2.66l.34982-1.8A40.601,40.601,0,0,1,36.52975,41.02781Z"/><text x="0" y="79" fill="#000000" font-size="5px" font-weight="bold" font-family="'Helvetica Neue', Helvetica, Arial-Unicode, Arial, Sans-serif">Created by Darwin Mulya</text><text x="0" y="84" fill="#000000" font-size="5px" font-weight="bold" font-family="'Helvetica Neue', Helvetica, Arial-Unicode, Arial, Sans-serif">from the Noun Project</text></svg>