<svg xmlns="http://www.w3.org/2000/svg" version="1.1" viewBox="-5.0 -10.0 110.0 135.0">
 <g>
  <path d="m13.055 75.602h17.371v-69.352h-17.371zm9.1406-47.137c0.015626-0.88281 0.73438-1.5898 1.6211-1.5898 0.88281 0 1.6016 0.70703 1.6172 1.5898v8.5234c0 0.89453-0.72266 1.6211-1.6172 1.6211-0.89453 0-1.6211-0.72656-1.6211-1.6211z"/>
  <path d="m13.055 90.508h17.371v-11.664h-17.371zm5.8164-8.4922h4.9414l0.003906 0.003906c0.88281 0.011719 1.5977 0.73438 1.5977 1.6211 0 0.88281-0.71484 1.6055-1.5977 1.6172h-4.9453c-0.88281-0.011718-1.5938-0.73437-1.5938-1.6172 0-0.88672 0.71094-1.6094 1.5938-1.6211z"/>
  <path d="m39.223 47.992h47.719v4.5703h-47.719z"/>
  <path d="m44.832 67.758h36.508v-11.957h-36.508zm13.367-7.4062h10.953v0.003907c0.88672 0.011719 1.5977 0.73438 1.5977 1.6172 0 0.88672-0.71094 1.6094-1.5977 1.6211h-10.953c-0.88281-0.015625-1.5898-0.73438-1.5898-1.6211 0-0.88281 0.70703-1.6016 1.5898-1.6172z"/>
  <path d="m44.832 83.754h36.508v-12.754h-36.508zm13.367-7.793h10.953v-0.003907c0.88672 0.015625 1.5977 0.73438 1.5977 1.6211s-0.71094 1.6094-1.5977 1.6211h-10.953c-0.88281-0.015625-1.5898-0.73828-1.5898-1.6211s0.70703-1.6055 1.5898-1.6211z"/>
  <path d="m76.656 86.992h-3.2422v5.1367c0 0.42969 0.16797 0.84375 0.47266 1.1484 0.30469 0.30469 0.71875 0.47266 1.1484 0.47266h4.3594c0.42969 0 0.84375-0.16797 1.1445-0.47266 0.30469-0.30469 0.47656-0.71875 0.47656-1.1484v-5.1367h-4.3594z"/>
  <path d="m48.656 86.992h-3.2422c-1.3945-0.0625-3.7539 0.48437-3.8242-1.6211v-29.57h-3.9844c-0.89453-0.003906-1.6172-0.72656-1.6211-1.6211v-7.8086c0.003906-0.89453 0.72656-1.6172 1.6211-1.6211h13.434l-0.003906-38.5h-17.367v84.258h11.746v1.6211c0.003907 0.89453 0.72656 1.6172 1.6211 1.6211h5.6211c0.42969 0 0.84375-0.16797 1.1484-0.47266 0.30469-0.30469 0.47266-0.71875 0.47266-1.1484v-5.1367c-1.3867-0.027344-4.2578 0.023437-5.6211 0zm-9.9844-58.527c0.019531-0.88281 0.73828-1.5898 1.6211-1.5898 0.88281 0 1.6055 0.70703 1.6211 1.5898v8.5234c-0.011718 0.88672-0.73437 1.5977-1.6211 1.5977-0.88281 0-1.6055-0.71094-1.6211-1.5977z"/>
 </g>
<text x="0.0" y="117.5" font-size="5.0" font-weight="bold" font-family="Arbeit Regular, Helvetica, Arial-Unicode, Arial, Sans-serif" fill="#000000">Created by Dincha Agatha</text><text x="0.0" y="122.5" font-size="5.0" font-weight="bold" font-family="Arbeit Regular, Helvetica, Arial-Unicode, Arial, Sans-serif" fill="#000000">from Noun Project</text></svg>