<svg xmlns="http://www.w3.org/2000/svg" xmlns:xlink="http://www.w3.org/1999/xlink" xmlns:serif="http://www.serif.com/" viewBox="0 0 64 80" version="1.1" xml:space="preserve" style="" x="0px" y="0px" fill-rule="evenodd" clip-rule="evenodd" stroke-linejoin="round" stroke-miterlimit="2"><g transform="matrix(2,0,0,2,-936,-84)"><path d="M475.937,72.243L478.437,67.743C478.571,67.502 478.484,67.197 478.243,67.063C478.002,66.929 477.697,67.016 477.563,67.257L475.063,71.757C474.929,71.998 475.016,72.303 475.257,72.437C475.498,72.571 475.803,72.484 475.937,72.243ZM494.5,52.5L494.5,46C494.5,45.724 494.276,45.5 494,45.5L491,45.5L491,44C491,43.724 490.776,43.5 490.5,43.5C490.224,43.5 490,43.724 490,44L490,45.5L487,45.5C486.724,45.5 486.5,45.724 486.5,46L486.5,49.4L481.831,50.602C480.845,50.877 480.059,51.684 479.571,52.863C478.905,54.47 478.787,56.792 479.409,59.205C480.032,61.621 481.255,63.574 482.607,64.621C483.601,65.392 484.674,65.685 485.664,65.411L497.415,62.308C498.352,62.056 499.091,61.27 499.531,60.1C500.122,58.53 500.182,56.24 499.541,53.844C498.976,51.734 497.984,49.966 496.871,48.851C496.43,48.408 495.966,48.066 495.5,47.836L495.5,52.5C495.5,53.88 494.38,55 493,55C491.62,55 490.5,53.88 490.5,52.5L490.5,48.37L489.5,48.627L489.5,46.5L491.5,46.5L491.5,52.5C491.5,53.328 492.172,54 493,54C493.828,54 494.5,53.328 494.5,52.5ZM485.401,64.447C486.117,64.247 486.65,63.623 487.005,62.767C487.605,61.32 487.682,59.229 487.122,57.057C486.563,54.889 485.493,53.121 484.28,52.181C483.592,51.648 482.863,51.386 482.175,51.546L482.092,51.567C481.379,51.769 480.848,52.392 480.495,53.245C479.895,54.692 479.818,56.783 480.378,58.955C480.937,61.123 482.007,62.891 483.22,63.831C483.933,64.384 484.69,64.645 485.401,64.447ZM468.608,62.488L473.108,61.488C473.378,61.428 473.548,61.161 473.488,60.892C473.428,60.622 473.161,60.452 472.892,60.512L468.392,61.512C468.122,61.572 467.952,61.839 468.012,62.108C468.072,62.378 468.339,62.548 468.608,62.488ZM469.776,50.947L473.776,52.947C474.023,53.071 474.324,52.97 474.447,52.724C474.571,52.477 474.47,52.176 474.224,52.053L470.224,50.053C469.977,49.929 469.676,50.03 469.553,50.276C469.429,50.523 469.53,50.824 469.776,50.947Z"/></g><text x="0" y="79" fill="#000000" font-size="5px" font-weight="bold" font-family="'Helvetica Neue', Helvetica, Arial-Unicode, Arial, Sans-serif">Created by Warunk Icon</text><text x="0" y="84" fill="#000000" font-size="5px" font-weight="bold" font-family="'Helvetica Neue', Helvetica, Arial-Unicode, Arial, Sans-serif">from the Noun Project</text></svg>