<svg xmlns="http://www.w3.org/2000/svg" xmlns:xlink="http://www.w3.org/1999/xlink" version="1.1" x="0px" y="0px" viewBox="0 0 512 640" style="enable-background:new 0 0 512 512;" xml:space="preserve"><path d="M428.3,423.7v30.7h30.3v-30.7H428.3z M247.5,423.7v30.7h30.3v-30.7H247.5z M66.6,423.7v30.7h30.3v-30.7H66.6z M278.6,385  c-2.2,4.8-7.1,8-12.6,8c-6.6,0-11.8,0.8-16.8-4.1c-1.1-1.1-2.1-2.4-2.7-3.9h-180v30.7c130.7,0,261.3,0,392,0V385H278.6z   M454.3,233.1v-7c0-3.2-2.6-5.8-5.8-5.8H76.8c-3.2,0-5.8,2.6-5.8,5.8v7c0,3.2,2.6,5.8,5.8,5.8h371.7  C451.6,239,454.3,236.3,454.3,233.1L454.3,233.1z M279.9,212.3h160.9c5-4.5,9-9.9,11.8-16c2.9-6.3,4.6-13.3,4.6-20.7v-45.3  c0-27.1-22.2-49.4-49.4-49.4h-128V212.3z M253.3,212.3h18.7V71.8c0-3.2-2.6-5.9-5.9-5.9h-6.9c-3.2,0-5.9,2.6-5.9,5.9V212.3z   M84.4,212.3h160.9V81h-128c-27.1,0-49.3,22.2-49.3,49.4v45.3C67.9,189.8,74,203,84.4,212.3L84.4,212.3z M245.3,246.9H82.9  c-4.5,4.4-8.2,9.7-10.8,15.5c-2.7,6.1-4.2,12.8-4.2,19.8v45.3c0,27.1,22.2,49.4,49.3,49.4h128V246.9z M271.9,246.9h-18.7v132.2  c0,3.2,2.6,5.9,5.9,5.9h6.9c3.2,0,5.9-2.7,5.9-5.9V246.9z M442.3,246.9H279.9v130h128c27.1,0,49.4-22.2,49.4-49.4v-45.3  C457.3,268.8,451.8,256.2,442.3,246.9L442.3,246.9z"/><text x="0" y="527" fill="#000000" font-size="5px" font-weight="bold" font-family="'Helvetica Neue', Helvetica, Arial-Unicode, Arial, Sans-serif">Created by BEJOUN</text><text x="0" y="532" fill="#000000" font-size="5px" font-weight="bold" font-family="'Helvetica Neue', Helvetica, Arial-Unicode, Arial, Sans-serif">from the Noun Project</text></svg>