<svg xmlns="http://www.w3.org/2000/svg" xmlns:xlink="http://www.w3.org/1999/xlink" version="1.1" x="0px" y="0px" viewBox="0 0 90 112.5" enable-background="new 0 0 90 90" xml:space="preserve"><path fill-rule="evenodd" clip-rule="evenodd" d="M29.238,17.346c-8.155,0-14.719,7.015-14.719,13.911v8.041  c0,1.339,0.865,2.105,1.658,2.563c0.525,0.303,1.009,0.584,1.577,0.917c1.751,4.828,6.344,8.052,11.483,8.057  c5.146-0.005,9.735-3.229,11.491-8.063c0.566-0.327,1.046-0.608,1.571-0.911c0.793-0.458,1.656-1.225,1.656-2.563v-8.041  C43.957,24.361,37.39,17.346,29.238,17.346z M27.134,24.939h4.209l0.75,0.833c0,1.916-0.766,3.995-2.855,4.521  c-2.093-0.526-2.854-2.605-2.854-4.521L27.134,24.939z M21.51,35.903h15.468c0.309,0.869,0.464,1.78,0.47,2.703  c0,4.531-3.673,8.208-8.21,8.208c-4.53,0-8.202-3.678-8.202-8.208C21.036,37.684,21.197,36.772,21.51,35.903z"/><path d="M36.375,52.226l-6.433,3.443c-0.475,0.254-0.953,0.254-1.428,0l-6.421-3.438l-11.329,4.541  c-1.812,0.984-2.495,1.839-3.15,3.385l-2.267,6.798c-0.474,2.036,0.521,2.801,1.438,3.083c3.886,0.869,14.906,2.615,22.452,2.615  c7.543,0,18.563-1.746,22.454-2.615c0.912-0.281,1.912-1.052,1.434-3.083l-2.266-6.798c-0.662-1.546-1.34-2.401-3.152-3.385  L36.375,52.226z M15.197,64.272h7.822c0.324,0,0.584,0.26,0.584,0.583v1.205c0,0.322-0.26,0.583-0.584,0.583h-7.822  c-0.322,0-0.582-0.26-0.582-0.583v-1.205C14.615,64.533,14.875,64.272,15.197,64.272z M35.453,64.272h7.822  c0.323,0,0.584,0.26,0.584,0.583v1.205c0,0.322-0.261,0.583-0.584,0.583h-7.822c-0.324,0-0.589-0.26-0.589-0.583v-1.205  C34.864,64.533,35.128,64.272,35.453,64.272z"/><path d="M70.775,56.964c2.193,0,3.969,1.776,3.969,3.959c0,2.188-1.775,3.958-3.969,3.958c-2.182,0-3.953-1.77-3.953-3.958  c0-1.047,0.412-2.057,1.156-2.801C68.723,57.382,69.729,56.964,70.775,56.964z M60.604,56.964c2.188,0,3.959,1.776,3.959,3.959  c0,2.188-1.771,3.958-3.959,3.958c-2.182,0-3.959-1.77-3.959-3.958c0-1.047,0.418-2.057,1.162-2.801  C58.547,57.382,59.551,56.964,60.604,56.964z M79.484,56.647c1.229,0,2.229,0.995,2.229,2.229c0,1.229-1,2.224-2.229,2.224  c-1.23,0-2.23-0.995-2.23-2.224c0-0.593,0.24-1.161,0.656-1.579C78.328,56.882,78.895,56.647,79.484,56.647z M49.063,53.579v0.678  c2.16,1.172,3.785,2.875,4.422,4.781l2.422,7.265c0.213,0.636,0.207,1.319,0.166,1.964H69.91c1.5,0,2.734-0.202,4.209-0.677  l5.391-2.593c3.182-1.533,5.266-2.923,5.266-5.751c0-3.124-2.162-5.667-5.291-5.667H49.063z"/><path d="M60.604,62.507c-0.869,0-1.578-0.713-1.578-1.584c0-0.875,0.709-1.577,1.578-1.577c0.422,0,0.818,0.167,1.119,0.463  c0.297,0.292,0.465,0.698,0.465,1.114C62.188,61.794,61.473,62.507,60.604,62.507z"/><path d="M70.781,62.507c-0.871,0-1.578-0.713-1.578-1.584c0-0.875,0.707-1.577,1.578-1.577c0.416,0,0.816,0.167,1.113,0.463  c0.303,0.292,0.465,0.698,0.465,1.114C72.359,61.794,71.65,62.507,70.781,62.507z"/><path fill-rule="evenodd" clip-rule="evenodd" d="M59.119,33.418c-0.422,0-0.838,0.104-1.203,0.322l1.51,4.443  c0.902-0.167,1.309-0.547,1.803-1.203h11.213c0.975,0,0.975,1.032,2.281,1.032h3.709c0.65,0,1.166-0.526,1.166-1.177v-2.052  c0-0.652-0.52-1.172-1.166-1.172h-3.709c-1.307,0-1.301,1.025-2.281,1.025H61.223C60.691,33.836,60,33.418,59.119,33.418z"/><path fill-rule="evenodd" clip-rule="evenodd" d="M46.813,31.877v7.421c0,2.568-1.872,4.333-3.079,5.038  c-0.005,0-0.005,0.005-0.01,0.005c-0.309,0.176-0.626,0.364-0.934,0.541c-0.957,2.058-2.317,3.823-4.016,5.23l3.411,1.369h36.423  l-2.824-4.635c-0.379-0.376-1.072-0.724-2.066-0.724H56.9v-0.975l1.057-1.62c0.844-1.23,1.09-1.468,0.652-2.787l-2.449-7.342  c-0.385-0.991-1.172-1.521-2.15-1.521H46.813z"/><text x="0" y="105" fill="#000000" font-size="5px" font-weight="bold" font-family="'Helvetica Neue', Helvetica, Arial-Unicode, Arial, Sans-serif">Created by Cuputo</text><text x="0" y="110" fill="#000000" font-size="5px" font-weight="bold" font-family="'Helvetica Neue', Helvetica, Arial-Unicode, Arial, Sans-serif">from the Noun Project</text></svg>