<svg xmlns="http://www.w3.org/2000/svg" data-name="Layer 38" viewBox="0 0 100 125" x="0px" y="0px"><path d="M75.38,38.14C73.7,33.37,70.11,27,62.6,23.65,54,19.86,43.22,20.3,34.38,24.8,26.77,28.68,21.67,35,20,42.58c0,.05-1.32,7.44.81,10.42,1.7,2.38-1.33,6.48-4,10.1-1.17,1.59-2.78,3.77-2.72,4.36.53,1,3.88,2.43,6.09,3.08a.76.76,0,0,1,.54.71c0,.54.17,12.62.2,14.91,1.46.8,9.44,3.11,15.39,2.15h.09a.51.51,0,0,1,.17,0c2.32-.42,3.94-1.31,4.8-2.65a.76.76,0,0,1,1-.23.75.75,0,0,1,.22,1,8,8,0,0,1-5.36,3.22l-.72,4.6H66.77l-.11-5.83a31,31,0,0,1,2.12-11.58c1.35-3.44,3.39-8.4,5.49-12.49C78,57.2,78.39,46.67,75.38,38.14ZM50.92,66.31h-.05l-.6,0-.62,0a19.85,19.85,0,0,1,0-39.68h.06c.41,0,.82,0,1.22,0a19.85,19.85,0,0,1,0,39.68Z"/><path d="M49.71,64.82a9.9,9.9,0,0,0,1.09,0,8.84,8.84,0,0,0,8.11-7.09,8.67,8.67,0,0,0,.16-1.7,8.81,8.81,0,0,0-8.8-8.8A10.33,10.33,0,0,1,40,36.92a9.07,9.07,0,0,1,.06-1c0-.11,0-.22,0-.33s0-.45.1-.67.06-.26.1-.39a5.66,5.66,0,0,1,.15-.59c0-.13.09-.26.14-.4a4.81,4.81,0,0,1,.2-.53c.05-.14.12-.27.18-.4l.24-.5.22-.38.29-.46.25-.36.33-.43.29-.34.36-.39a1.85,1.85,0,0,1,.14-.14,18.37,18.37,0,0,0,6.65,35.25Zm.56-11.76a3.74,3.74,0,1,1-3.73,3.74A3.74,3.74,0,0,1,50.27,53.06Z"/><path d="M50.83,28.13l-.56,0-.55,0a8.82,8.82,0,0,0-8.09,7.09,8.67,8.67,0,0,0-.17,1.7,8.82,8.82,0,0,0,8.81,8.81,10.3,10.3,0,0,1,7.21,17.65,18.37,18.37,0,0,0-6.65-35.25Zm-.56,11.78A3.74,3.74,0,1,1,54,36.17,3.74,3.74,0,0,1,50.27,39.91Z"/><path d="M50.27,33.94a2.24,2.24,0,1,0,2.23,2.23A2.23,2.23,0,0,0,50.27,33.94Z"/><path d="M48,56.8a2.23,2.23,0,1,0,2.23-2.24A2.23,2.23,0,0,0,48,56.8Z"/><path d="M50,4.25a.76.76,0,0,0-.75.75v6.61a.75.75,0,0,0,1.5,0V5A.76.76,0,0,0,50,4.25Z"/><path d="M94.35,48.61H87.69a.75.75,0,0,0,0,1.5h6.66a.75.75,0,0,0,0-1.5Z"/><path d="M13.06,49.36a.74.74,0,0,0-.75-.75H5.65a.75.75,0,1,0,0,1.5h6.66A.75.75,0,0,0,13.06,49.36Z"/><path d="M80.83,17.46l-4.68,4.69a.74.74,0,0,0,0,1.06.71.71,0,0,0,.53.22.74.74,0,0,0,.53-.22l4.68-4.69a.74.74,0,0,0,0-1.06A.75.75,0,0,0,80.83,17.46Z"/><path d="M18.11,17.46a.74.74,0,0,0,0,1.06l4.68,4.69a.74.74,0,0,0,.53.22.71.71,0,0,0,.53-.22.74.74,0,0,0,0-1.06l-4.68-4.69A.75.75,0,0,0,18.11,17.46Z"/><path d="M64.85,15.4a.75.75,0,0,0,.69-.46l2.6-6.07a.75.75,0,0,0-.4-1,.74.74,0,0,0-1,.39l-2.6,6.07a.75.75,0,0,0,.39,1A.8.8,0,0,0,64.85,15.4Z"/><path d="M91.07,66.11l-6.13-2.62a.75.75,0,0,0-.59,1.38l6.13,2.62a.8.8,0,0,0,.3.06.75.75,0,0,0,.69-.45A.76.76,0,0,0,91.07,66.11Z"/><path d="M9.51,31.22a.74.74,0,0,0-1,.39.76.76,0,0,0,.39,1l6.14,2.62a.72.72,0,0,0,.29.06.75.75,0,0,0,.3-1.44Z"/><path d="M85,36.07a1,1,0,0,0,.28,0l6.15-2.47a.75.75,0,1,0-.56-1.39l-6.15,2.47a.74.74,0,0,0-.42,1A.76.76,0,0,0,85,36.07Z"/><path d="M33.22,7.49a.75.75,0,0,0-.42,1l2.47,6.16a.76.76,0,0,0,.7.47.66.66,0,0,0,.27-.06.74.74,0,0,0,.42-1L34.2,7.9A.75.75,0,0,0,33.22,7.49Z"/><text x="0" y="115" fill="#000000" font-size="5px" font-weight="bold" font-family="'Helvetica Neue', Helvetica, Arial-Unicode, Arial, Sans-serif">Created by Lars Meiertoberens</text><text x="0" y="120" fill="#000000" font-size="5px" font-weight="bold" font-family="'Helvetica Neue', Helvetica, Arial-Unicode, Arial, Sans-serif">from the Noun Project</text></svg>