<svg xmlns="http://www.w3.org/2000/svg" xmlns:xlink="http://www.w3.org/1999/xlink" version="1.1" x="0px" y="0px" viewBox="0 0 64 80" style="enable-background:new 0 0 64 64;" xml:space="preserve"><path d="M45.534,46.154l-7.9-4.991C37.867,40.524,38,39.836,38,39.116c0-2.972-2.163-5.433-5-5.91V25h-2v8.206  c-2.837,0.477-5,2.938-5,5.91c0,0.77,0.15,1.504,0.415,2.181l-7.936,4.85l1.043,1.707l7.922-4.841  c1.1,1.286,2.732,2.103,4.557,2.103c1.875,0,3.548-0.861,4.648-2.208l7.817,4.938L45.534,46.154z M33.2,40.177h-2.4v-2.4h2.4V40.177  z"/><path d="M27,15c-2.209,0-4,1.791-4,4v4h18v-4c0-2.209-1.791-4-4-4h-2v-1.812c1.79-1.039,3-2.973,3-5.188c0-3.309-2.691-6-6-6  s-6,2.691-6,6c0,2.215,1.21,4.149,3,5.188V15H27z M33,15h-2v-1.09c0.326,0.055,0.659,0.09,1,0.09s0.674-0.035,1-0.09V15z M28,8  c0-0.077,0.018-0.148,0.023-0.224C28.099,7.78,28.174,7.79,28.25,7.79c1.47,0,2.81-0.61,3.75-1.58c0.94,0.97,2.28,1.58,3.75,1.58  c0.076,0,0.151-0.01,0.227-0.014C35.982,7.852,36,7.923,36,8c0,2.206-1.794,4-4,4S28,10.206,28,8z"/><path d="M58,54h-2v-1.812c1.79-1.039,3-2.973,3-5.188c0-3.309-2.691-6-6-6s-6,2.691-6,6c0,2.215,1.21,4.149,3,5.188V54h-2  c-2.209,0-4,1.791-4,4v4h18v-4C62,55.791,60.209,54,58,54z M54,54h-2v-1.09c0.326,0.055,0.659,0.09,1,0.09s0.674-0.035,1-0.09V54z   M53,51c-2.206,0-4-1.794-4-4c0-0.077,0.018-0.148,0.023-0.224c0.076,0.003,0.151,0.014,0.227,0.014c1.47,0,2.81-0.61,3.75-1.58  c0.94,0.97,2.28,1.58,3.75,1.58c0.076,0,0.151-0.01,0.227-0.014C56.982,46.852,57,46.923,57,47C57,49.206,55.206,51,53,51z"/><path d="M16,54h-2v-1.812c1.79-1.039,3-2.973,3-5.188c0-3.309-2.691-6-6-6s-6,2.691-6,6c0,2.215,1.21,4.149,3,5.188V54H6  c-2.209,0-4,1.791-4,4v4h18v-4C20,55.791,18.209,54,16,54z M12,54h-2v-1.09c0.326,0.055,0.659,0.09,1,0.09s0.674-0.035,1-0.09V54z   M11,51c-2.206,0-4-1.794-4-4c0-0.077,0.018-0.148,0.023-0.224C7.099,46.78,7.174,46.79,7.25,46.79c1.47,0,2.81-0.61,3.75-1.58  c0.94,0.97,2.28,1.58,3.75,1.58c0.076,0,0.151-0.01,0.227-0.014C14.982,46.852,15,46.923,15,47C15,49.206,13.206,51,11,51z"/><text x="0" y="79" fill="#000000" font-size="5px" font-weight="bold" font-family="'Helvetica Neue', Helvetica, Arial-Unicode, Arial, Sans-serif">Created by Nithinan Tatah</text><text x="0" y="84" fill="#000000" font-size="5px" font-weight="bold" font-family="'Helvetica Neue', Helvetica, Arial-Unicode, Arial, Sans-serif">from the Noun Project</text></svg>