<svg xmlns="http://www.w3.org/2000/svg" version="1.1" viewBox="-5.0 -10.0 110.0 135.0">
 <path d="m50 8.0195h-0.003906c-23.184 0-41.973 18.793-41.973 41.977 0 23.18 18.793 41.977 41.977 41.977 23.18 0 41.977-18.797 41.977-41.977 0-23.184-18.797-41.977-41.977-41.977zm0 6.0625c0.87891 0 1.5938 0.71484 1.5938 1.5977v4.6641c0 0.88281-0.71484 1.5977-1.5938 1.5977-0.88281 0-1.5977-0.71484-1.5977-1.5977v-4.6641c0-0.88281 0.71094-1.5977 1.5938-1.5977zm24.266 10.051c0.40625 0 0.81641 0.15625 1.1289 0.46875 0.62109 0.62109 0.62109 1.6328 0 2.2578h-0.003906c-0.30859 0.3125-0.71875 0.46875-1.1289 0.46875-0.40625 0-0.81641-0.15625-1.1289-0.46875-0.625-0.625-0.625-1.6328 0-2.2578 0.3125-0.3125 0.71875-0.46875 1.125-0.46875l0.007813 0.003907zm-48.531 0c0.40625 0 0.81641 0.15625 1.1289 0.46875 0.625 0.625 0.625 1.6328 0 2.2578-0.3125 0.3125-0.72266 0.46875-1.1289 0.46875-0.41016 0-0.81641-0.15625-1.1289-0.46875h-0.003907c-0.62109-0.625-0.62109-1.6367 0-2.2578 0.3125-0.3125 0.71875-0.46875 1.125-0.46875l0.007813 0.003907zm-5.3867 24.266c0.88281 0 1.5977 0.71484 1.5977 1.5977 0 0.87891-0.71484 1.5977-1.5977 1.5977h-4.6641c-0.88281 0-1.5977-0.71875-1.5977-1.5977 0-0.88281 0.71094-1.5977 1.5938-1.5977l0.003906 0.003906zm63.969 0c0.87891 0 1.5977 0.71484 1.5977 1.5977 0 0.87891-0.71875 1.5977-1.5977 1.5977h-4.668c-0.88281 0-1.5977-0.71875-1.5977-1.5977 0-0.88281 0.71484-1.5977 1.5977-1.5977v0.003906zm-34.316-22.188v0.003906c0.87891-0.003906 1.5938 0.71484 1.5938 1.5938v21.527l12.98 12.98c0.625 0.625 0.625 1.6367 0 2.2578-0.3125 0.3125-0.71875 0.46875-1.1289 0.46875-0.40625 0-0.81641-0.15625-1.1289-0.46875l-13.367-13.371c-0.30859-0.3125-0.54688-0.72656-0.54688-1.207v-22.188c0-0.87891 0.71094-1.5938 1.5938-1.5938h0.003906v-0.003906 0.003906zm-24.266 46.449v0.003906c0.41016-0.003906 0.81641 0.15234 1.1289 0.46484 0.625 0.625 0.625 1.6367 0 2.2617-0.3125 0.3125-0.72266 0.46875-1.1289 0.46875-0.41016 0-0.82031-0.15625-1.1328-0.46875-0.62109-0.625-0.62109-1.6367 0.003907-2.2578v-0.003906c0.30859-0.30859 0.71484-0.46484 1.1211-0.46484h0.007813v-0.003906 0.003906zm48.527 0.003906c0.41016 0 0.82031 0.15234 1.1289 0.46484l0.003906 0.003906c0.62109 0.62109 0.62109 1.6328 0 2.2578-0.3125 0.3125-0.72266 0.46875-1.1328 0.46875-0.40625 0-0.81641-0.15625-1.1289-0.46875-0.625-0.625-0.625-1.6367 0-2.2617 0.3125-0.30859 0.71875-0.46484 1.125-0.46484zm-24.262 5.3828v0.003906c0.87891-0.003906 1.5938 0.71094 1.5938 1.5938v4.668c0 0.88281-0.71484 1.5977-1.5938 1.5977-0.88281 0-1.5977-0.71484-1.5977-1.5977v-4.668c0-0.87891 0.71094-1.5938 1.5938-1.5938h0.003906v-0.003906 0.003906z"/>
<text x="0.0" y="117.5" font-size="5.0" font-weight="bold" font-family="Arbeit Regular, Helvetica, Arial-Unicode, Arial, Sans-serif" fill="#000000">Created by My Project</text><text x="0.0" y="122.5" font-size="5.0" font-weight="bold" font-family="Arbeit Regular, Helvetica, Arial-Unicode, Arial, Sans-serif" fill="#000000">from Noun Project</text></svg>