<svg xmlns="http://www.w3.org/2000/svg" version="1.1" viewBox="-5.0 -10.0 110.0 135.0">
 <path d="m33.164 33.055h-25.992v-4.3398h25.082 0.91016zm-4.9219-10.922h-16.148v4.3398h16.148zm40.129-0.66016v2.6797h31.129v-2.6797zm0 59.988v-55.066h26.688s0 57.973-0.023438 57.98c-0.16797 0.054688-0.33594 0.14453-0.48047 0.23438-0.37109 0.24609-0.90625 0.79297-1.2891 0.78516-0.14453-0.023437-0.35938-0.26953-0.5625-0.51562-0.78125-1.168-2.3555-1.6523-3.4883-0.60547-0.29297-0.42188-0.69141-1.0859-1.5938-1.2344-0.4375-0.066406-0.79688 0.035157-1.0781 0.17969-0.52344 0.29297-0.70703 0.69141-1.1875 0.95312-0.61719 0.30469-1.457 0.19141-2.2656-0.11328-1.0508-0.32031-1.7305-1.1445-2.4336-1.8945-0.64844-0.49219-1.8398-0.42578-2.625-0.37109-1.793 0.050781-3.3516 1.168-4.2148 2.7031-0.61328-2.1602-3.2578-3.4336-5.4453-3.0352zm20.633-45.242h2.2422v-4.0938h-2.2422zm0 10.641h2.2422v-4.082h-2.2422zm0 10.641h2.2422v-4.082h-2.2422zm0 10.641h2.2422v-4.082h-2.2422zm-8.4102-31.922h2.2422v-4.0938h-2.2422zm0 10.641h2.2422v-4.082h-2.2422zm0 10.641h2.2422v-4.082h-2.2422zm0 10.641h2.2422v-4.082h-2.2422zm-8.4102-31.922h2.2422v-4.0938h-2.2422zm0 10.641h2.2422v-4.082h-2.2422zm0 10.641h2.2422v-4.082h-2.2422zm0 10.641h2.2422v-4.082h-2.2422zm-37.898-41.668h-0.89844v-6.6367l32.742-14.242v76.91c-0.33594 0.28516-0.94922 1.5273-1.3789 1.6133-0.38281 0.019531-0.98828-0.68359-1.3125-1.0312-0.85156-0.88672-1.9062-2.0078-3.5195-2.0508-0.79688-0.023437-1.2891 0.53906-1.9961 0.80859-1.0078 0.39062-2.0508-0.011719-3.082 0.078125-1.2539 0.074219-2.1953 0.99219-2.5 2.207-2.4492-0.95703-5.3164 0.67969-5.6641 3.3203-2.9023-0.89062-5.6719 0.59375-7.8828 2.3672v-55.641c0-0.61719-0.50391-1.1211-1.1211-1.1211h-2.2539v-5.4609c-0.007813-0.625-0.50391-1.1211-1.1328-1.1211zm20.789 16.305c0 0.61719 0.49219 1.1211 1.1211 1.1211h5.707c0.61719 0 1.1211-0.50391 1.1211-1.1211v-6.2891c0-0.61719-0.50391-1.1211-1.1211-1.1211h-5.707c-0.62891 0-1.1211 0.50391-1.1211 1.1211zm0 13.164c0 0.61719 0.49219 1.1211 1.1211 1.1211h5.707c0.61719 0 1.1211-0.50391 1.1211-1.1211v-6.2773c0-0.62891-0.50391-1.1211-1.1211-1.1211h-5.707c-0.62891 0-1.1211 0.49219-1.1211 1.1211zm0 13.164c0 0.62891 0.49219 1.1211 1.1211 1.1211h5.707c0.61719 0 1.1211-0.49219 1.1211-1.1211v-6.2773c0-0.61719-0.50391-1.1211-1.1211-1.1211h-5.707c-0.62891 0-1.1211 0.50391-1.1211 1.1211zm-13.02-26.328c0 0.61719 0.50391 1.1211 1.1211 1.1211h5.707c0.61719 0 1.1211-0.50391 1.1211-1.1211v-6.2891c0-0.61719-0.50391-1.1211-1.1211-1.1211h-5.707c-0.61719 0-1.1211 0.50391-1.1211 1.1211zm0 13.164c0 0.61719 0.50391 1.1211 1.1211 1.1211h5.707c0.61719 0 1.1211-0.50391 1.1211-1.1211v-6.2773c0-0.62891-0.50391-1.1211-1.1211-1.1211h-5.707c-0.61719 0-1.1211 0.49219-1.1211 1.1211zm0 13.164c0 0.62891 0.50391 1.1211 1.1211 1.1211h5.707c0.61719 0 1.1211-0.49219 1.1211-1.1211v-6.2773c0-0.61719-0.50391-1.1211-1.1211-1.1211h-5.707c-0.61719 0-1.1211 0.50391-1.1211 1.1211zm18.727-31.5h-3.4648v4.0469h3.4648zm0 13.176h-3.4648v4.0352h3.4648zm0 13.164h-3.4648v4.0352h3.4648zm-13.02 0h-3.4648v4.0352h3.4648zm0-13.164h-3.4648v4.0352h3.4648zm0-13.176h-3.4648v4.0469h3.4648zm46.492 49.887c-1.3359 0.39062-2.9023-0.29297-3.543-1.5234-0.88672 1.0078-2.8164 0.73828-3.3867-0.48047-1.3438 1.1992-3.4219 1.4922-5.0469 0.70703-2.6289-1.6133-4.832-3.9922-6.8047-0.023437-0.4375 0.70703-1.168 1.4023-1.9961 1.2539-1.1875-0.20312-1.4023-1.8164-2.1172-2.793-0.83984-1.1211-2.668-1.3242-3.7227-0.41406-0.66016 0.5625-1.0195 1.4453-1.7617 1.8711-0.82031 0.48047-1.8945 0.25781-2.7031-0.24609-1.3594-0.61328-2.2656-3.3711-3.9805-2.1523-0.98828 0.52734-2.1523 0.73047-3.2617 0.55078-0.40234-0.066407-0.83984-0.16797-1.1758 0.054687-0.4375 0.30078-0.38281 0.96484-0.66016 1.4258-0.40234 0.67188-1.3672 0.70703-2.1406 0.57031-0.77344-0.125-1.6602-0.30078-2.2891 0.17969-0.875 0.66016-0.69531 2.1641-1.5586 2.8359-0.64062 0.49219-1.5469 0.3125-2.3555 0.25781-2.7031-0.17188-5.1055 1.3906-7.0742 3.082-0.46094 0.40234-1.582 1.1328-1.7148 1.7148 15.16 0.09375 46.035-0.019531 60.234 0.023438 0.125-0.67188 0.58203-1.2891 1.1992-1.6016-0.32422-0.66016-0.48047-1.3906-0.47266-2.1289-1.9844 0.88672-4.25-1.0859-3.668-3.1641zm-65.184-28.68c0.36719 0.46875 0.74609 1.0352 1.1211 1.5469v-17.918h-8.9023v22.773c1.0117-2.3086 2.3047-4.5117 3.8789-6.4805 0.94922-1.2461 2.9961-1.1797 3.9023 0.078125zm-25.273-7.3789c1.1211-1.5195 1.9805-3.6523 4.1133-3.543v-6.5703c0-0.61719 0.49219-1.1211 1.1211-1.1211h22.281c0.61719 0 1.1211 0.50391 1.1211 1.1211v22.941c2.9414 5.5469 3.4297 14.902 0 19.871v5.8633h4.1133l0.003906-54.699h-32.754zm24.398 38.562h1.9961v-3.9258c-0.64844 0.32422-1.3242 0.52734-1.9961 0.62891zm-6.9062-6.5156v6.5156h4.6641v-3.2969c-1.957-0.29297-3.6836-1.5039-4.6641-3.2188zm-17.492 6.5156h2.8828v-5.9766c-1-0.10156-1.9844-0.41406-2.8828-0.89844zm6.3594-40.93c3.5703 4.9141 7.1797 11.023 7.1875 19.387 0.003906 5.6758-0.94922 13.336-7.1875 15.34v6.1992h8.8906v-47.551h-8.8906zm16.918 11c-2.9492 3.5391-5.2852 8.043-5.4961 13.926 0.14062 4.1641 0.34766 9.125 4.375 10.395v-8.6797l-1.5352-2.0859c-0.76953-1.0273 0.58984-2.3359 1.582-1.5352 0.24219-1.3086 2.207-1.1172 2.1992 0.21484v4.5977s0.52734-0.82031 0.52734-0.82031c0.78906-1.2266 2.6641-0.042969 1.8945 1.1992l-2.4219 3.8125v3.2969c2.5195-0.58203 3.5-3.3242 3.9453-5.5742 1.4609-6.5547-0.69922-13.77-5.0703-18.746zm-18.152 17.012v4.6758c5.7852-1.3281 6.0352-8.7969 6.1875-13.625-0.15625-7.3711-3.168-12.832-6.7969-17.762-0.5625-0.64844-1.1172 0.082031-1.4258 0.55078-0.73828 0.99609-1.4336 2.0391-2.0625 3.1172-2.0859 3.5-4.3281 8.5547-4.3281 14.094-0.03125 4.582 0.44531 12.555 6.168 13.625 0.011719 0 0.011719-11.539 0.011719-11.539l-2.0078-2.7266c-0.90234-1.457 1.2031-2.5781 2.0078-1.0547v-0.44922c0.003907-1.4688 2.2461-1.4688 2.2422 0v6.8945l1.2227-1.9297c0.79688-1.2383 2.6797-0.027344 1.8945 1.1992z"/>
<text x="0.0" y="117.5" font-size="5.0" font-weight="bold" font-family="Arbeit Regular, Helvetica, Arial-Unicode, Arial, Sans-serif" fill="#000000">Created by ahmadwil</text><text x="0.0" y="122.5" font-size="5.0" font-weight="bold" font-family="Arbeit Regular, Helvetica, Arial-Unicode, Arial, Sans-serif" fill="#000000">from Noun Project</text></svg>