<svg xmlns="http://www.w3.org/2000/svg" version="1.1" viewBox="-5.0 -10.0 110.0 135.0">
 <path d="m62.27 11.117c-0.57812 0.26562-1.2656 0.011718-1.5352-0.56641-0.26562-0.57812-0.011719-1.2656 0.56641-1.5352 1.4492-0.67578 2.9609-1.2266 4.5195-1.6562 1.5469-0.42578 3.125-0.72656 4.7148-0.89062 0.49609-0.050781 0.95312 0.22266 1.1562 0.64844 2.1133 4.1562 3.1953 8.793 3.125 13.492-0.0625 4.5312-1.1953 9.1211-3.5195 13.371-1.3359 2.4609-2.9844 4.6523-4.8633 6.543-1.9492 1.9531-4.1445 3.5938-6.4961 4.8984-0.55859 0.30469-1.2656 0.10156-1.5703-0.45703-0.30469-0.55859-0.10156-1.2617 0.45703-1.5703 2.1719-1.1953 4.1875-2.7031 5.9688-4.5 1.7305-1.7422 3.2461-3.7539 4.4805-6.0156 2.1328-3.9141 3.1836-8.1328 3.2383-12.293 0.058593-4.0547-0.82031-8.0703-2.5391-11.723-1.2031 0.16406-2.3945 0.40625-3.5508 0.72656-1.4141 0.38672-2.8008 0.89844-4.1562 1.5273zm-12.27 84.223c-2.6836 0.070312-5.4648 1.2734-8.2422 1.1719-5.4727 3.8516-14.164 4.4609-14.801 2.082-0.63672-2.3672 4.7148-3.5117 7.1289-4.582-5.3906-0.83984-21.816-4.7539-19.32-11.609 2.2891-6.2695 19.895-0.625 23.812-1.4336 0.26172-3.5508 1.0938-2.8828 1.7422-5.7266 0.99219-4.3477 0.375-10.715-0.27344-14.973-0.019531-0.14062-0.14062-0.26172-0.3125-0.28125-0.17188-0.011719-0.36328 0.078125-0.38281 0.21484l-1.5352 9.3984c-0.25 2.418-1.2969 5.4922-4.3164 6.0664l-16.52 3.1641c-4.1367 0.90234-5.0898-3.8008-1.4648-5.207l15.719-5.168 1.7812-13.383c0.99219-5.4219 4.0664-7.1602 8.6719-7.6953 2.1133-0.36328 4.4727-1.9023 4.4688-4.0078-0.007812-1.4844-3.2891-2.4258-3.5-6.2812l-0.16406-3.0273c-0.30078-5.582 3.5938-8.375 7.5039-8.3945 3.9062 0.019531 7.8008 2.8125 7.5039 8.3945l-0.16406 3.0273c-0.21094 3.8555-3.4922 4.7969-3.5 6.2812-0.007813 2.1055 2.3555 3.6445 4.4688 4.0078 4.6055 0.53516 7.6797 2.2734 8.6719 7.6953l1.7812 13.383 15.719 5.168c3.6289 1.4062 2.6719 6.1094-1.4648 5.207l-16.52-3.1641c-3.0156-0.57422-4.0664-3.6445-4.3164-6.0664l-1.5352-9.3984c-0.011719-0.14062-0.21094-0.23047-0.38281-0.21484-0.16406 0.019531-0.29297 0.14062-0.3125 0.28125-0.64844 4.2578-1.2656 10.629-0.27344 14.973 0.64844 2.8438 1.4844 2.1758 1.7422 5.7266 3.9258 0.80859 21.527-4.8359 23.812 1.4336 2.4961 6.8555-13.93 10.766-19.32 11.609 2.4102 1.0703 7.7656 2.2148 7.1328 4.582-0.64453 2.3789-9.3281 1.7695-14.801-2.082-2.7734 0.10156-5.5625-1.1016-8.2461-1.1719zm-9.4453-60.359c0.23047 0.59375-0.0625 1.2617-0.65625 1.4961-0.59766 0.23047-1.2656-0.0625-1.5-0.65625-0.66797-1.7109-1.1914-3.5078-1.5391-5.3594-0.33594-1.8203-0.52344-3.6797-0.52344-5.5742 0-5.0273 1.2422-9.7617 3.4375-13.93 2.2773-4.3164 5.5742-8.0117 9.5781-10.754 0.41406-0.28516 0.94141-0.26172 1.3242 0.011719 3.9883 2.75 7.2852 6.4336 9.5508 10.742 2.1953 4.168 3.4375 8.9023 3.4375 13.93 0 1.8945-0.17969 3.7539-0.52344 5.5742-0.35156 1.8594-0.87109 3.6445-1.5391 5.3594-0.23437 0.59375-0.90234 0.89063-1.5 0.65625-0.59375-0.23047-0.88281-0.90234-0.65625-1.4961 0.625-1.5859 1.1055-3.2383 1.4258-4.9453 0.3125-1.6562 0.47656-3.3789 0.47656-5.1484 0-4.6445-1.1445-9.0156-3.1641-12.848-1.9727-3.75-4.7852-6.9883-8.1836-9.4688-3.3984 2.4805-6.2031 5.7227-8.1758 9.4648-2.0234 3.8359-3.168 8.2109-3.168 12.855 0 1.7695 0.16406 3.4883 0.47656 5.1484 0.32422 1.707 0.80078 3.3594 1.4258 4.9453zm-17.176-15.316c0.63672 0 1.1562 0.51563 1.1562 1.1523 0 0.63672-0.50781 1.1562-1.1523 1.1562-1.7305 0.011719-3.4609 0.19141-5.1602 0.53906-1.4258 0.29297-2.8398 0.69922-4.2109 1.2266 0.23438 4.0234 1.3867 7.9609 3.3867 11.504 2.043 3.6289 4.9766 6.8281 8.7188 9.2383 1.043 0.67578 2.1172 1.2656 3.2148 1.7773 1.125 0.52344 2.2656 0.96094 3.4102 1.3047 0.60547 0.19141 0.95312 0.83203 0.76953 1.4453-0.19141 0.60547-0.83203 0.94922-1.4453 0.76172-1.2656-0.38281-2.5-0.85938-3.7031-1.418-1.1953-0.55469-2.3594-1.1953-3.4922-1.9219-4.0742-2.6289-7.2656-6.1094-9.4961-10.062-2.2891-4.0664-3.5586-8.6406-3.7031-13.293-0.042969-0.48828 0.23047-0.97266 0.70703-1.1719 1.7383-0.72656 3.5391-1.2852 5.3906-1.6602 1.8398-0.375 3.7227-0.57422 5.6133-0.58594zm53.234 2.3086c-0.63672 0-1.1523-0.52344-1.1523-1.1562 0.007812-0.63672 0.52344-1.1523 1.1562-1.1523 1.8945 0.011719 3.7734 0.21094 5.6133 0.58594 1.8516 0.375 3.6602 0.93359 5.3906 1.6602 0.48438 0.19922 0.75781 0.67969 0.70703 1.1758-0.14453 4.6445-1.4141 9.2227-3.7031 13.289-2.2266 3.9531-5.4141 7.4336-9.4961 10.062-1.1328 0.72656-2.2969 1.3672-3.4883 1.9297-1.2031 0.55469-2.4453 1.0312-3.7109 1.418-0.60938 0.18359-1.2539-0.16406-1.4375-0.76953-0.18359-0.60938 0.16016-1.2539 0.76953-1.4375 1.1406-0.35156 2.2773-0.78906 3.4062-1.3125 1.0938-0.50781 2.1719-1.1016 3.2148-1.7773 3.7422-2.4102 6.6758-5.6133 8.7266-9.2383 1.9922-3.543 3.1445-7.4844 3.3867-11.504-1.3828-0.52734-2.7891-0.93359-4.2188-1.2266-1.6992-0.35156-3.4297-0.52734-5.1602-0.53906zm-37.914-12.957c0.57812 0.26562 0.83203 0.95312 0.56641 1.5352-0.26562 0.57812-0.95312 0.83203-1.5352 0.56641-1.3477-0.625-2.7383-1.1406-4.1562-1.5273l-0.050781-0.011719c-1.1445-0.31641-2.3164-0.55469-3.5-0.71094-1.7188 3.6523-2.5977 7.668-2.5312 11.723 0.058593 4.1602 1.1016 8.3828 3.2344 12.293 1.2344 2.2578 2.75 4.2695 4.4805 6.0078 1.7812 1.8008 3.8008 3.3086 5.9766 4.5039 0.55859 0.3125 0.76172 1.0117 0.45703 1.5703-0.3125 0.55859-1.0117 0.76172-1.5703 0.45703-2.3594-1.3047-4.5547-2.9453-6.5039-4.9062-1.8789-1.8906-3.5195-4.0742-4.8633-6.5352-2.3242-4.25-3.457-8.8398-3.5195-13.371-0.070313-4.6953 1.0195-9.3359 3.125-13.492 0.21094-0.42578 0.66016-0.69922 1.1562-0.64844 1.5781 0.16406 3.1367 0.45703 4.6719 0.87891l0.050781 0.011719c1.5547 0.42578 3.0625 0.98047 4.5117 1.6562z"/>
<text x="0.0" y="117.5" font-size="5.0" font-weight="bold" font-family="Arbeit Regular, Helvetica, Arial-Unicode, Arial, Sans-serif" fill="#000000">Created by popcornarts</text><text x="0.0" y="122.5" font-size="5.0" font-weight="bold" font-family="Arbeit Regular, Helvetica, Arial-Unicode, Arial, Sans-serif" fill="#000000">from Noun Project</text></svg>