<svg width="20" height="20" viewBox="0 0 20 20" fill="none" xmlns="http://www.w3.org/2000/svg">
<path d="M17.0834 5H2.91669M15.6942 7.08333L15.3109 12.8333C15.1634 15.045 15.09 16.1508 14.3692 16.825C13.6484 17.5 12.5392 17.5 10.3225 17.5H9.67752C7.46085 17.5 6.35169 17.5 5.63085 16.825C4.91002 16.1508 4.83585 15.045 4.68919 12.8333L4.30585 7.08333" stroke="#F24E1E" stroke-width="1.25" stroke-linecap="round"/>
<path d="M5.41669 5H5.50835C5.84373 4.99143 6.1687 4.88185 6.44079 4.68559C6.71287 4.48934 6.9194 4.21553 7.03335 3.9L7.06169 3.81417L7.14252 3.57167C7.21169 3.36417 7.24669 3.26083 7.29252 3.1725C7.38269 2.99949 7.51211 2.84999 7.67042 2.73597C7.82872 2.62194 8.01152 2.54655 8.20419 2.51583C8.30169 2.5 8.41085 2.5 8.62919 2.5H11.3709C11.5892 2.5 11.6984 2.5 11.7959 2.51583C11.9885 2.54655 12.1713 2.62194 12.3296 2.73597C12.4879 2.84999 12.6173 2.99949 12.7075 3.1725C12.7534 3.26083 12.7884 3.36417 12.8575 3.57167L12.9384 3.81417C13.044 4.16523 13.2624 4.47167 13.5598 4.68605C13.8571 4.90043 14.2169 5.01077 14.5834 5" stroke="#F24E1E" stroke-width="1.25"/>
</svg>
