<svg xmlns="http://www.w3.org/2000/svg" version="1.1" viewBox="-5.0 -10.0 110.0 135.0">
 <g>
  <path d="m14.852 68.238c-3.9805-0.17188-2.8594 3.75-2.9102 6.1602l-0.050781 2.8203c-0.011719 0.85938-0.03125 2.1016 0.17188 3.1719 0.32812 2.2109 1.2812 4.3086 2.6406 6.0781 1.3398 1.7891 3.1797 3.1797 5.2109 4.1211 1.0195 0.46094 2.1016 0.80078 3.1992 0.98828 0.55078 0.089844 1.1094 0.17969 1.6719 0.19141 0.58984 0.039063 1.0703 0.039063 1.5312 0.03125l22.551-0.03125c7.5195 0.019531 15.031 0.10938 22.539 0.37109l2.8203 0.10156c0.46094 0.019531 1.1211 0 1.6719-0.011719 0.57031-0.070313 1.1602-0.10938 1.7305-0.21875 2.2891-0.44922 4.5117-1.4102 6.3594-2.8906 1.8516-1.4688 3.4297-3.3789 4.4219-5.6211 0.51953-1.1094 0.87891-2.2891 1.1211-3.5117 0.14062-0.60938 0.17188-1.2305 0.25-1.8516l0.12891-1.4219c0.32031-3.5 0.69922-8.5781-4.3008-8.4688-4.1016 0.089844-3.6406 4.8906-3.6602 8.1289v1.3789 0.33984l-0.019531 0.21875-0.019532 0.44922c-0.070312 0.58984-0.17188 1.1719-0.37109 1.7305-0.39062 1.1094-1.0117 2.1797-1.8789 3.0117-0.85938 0.82812-1.8984 1.5117-3.0586 1.8516-0.57812 0.16016-1.1719 0.32031-1.7812 0.32812-0.23828 0.03125-0.76172 0.039062-1.2109 0.050781l-1.3789 0.019531c-7.3516 0.12891-14.699 0.26953-22.051 0.26953l-23.07 0.007812h-1.4414c-0.42188-0.019531-0.69141-0.03125-1.0391-0.058594-0.64844-0.10156-1.3086-0.21094-1.9219-0.46875-1.25-0.44922-2.3516-1.2695-3.2188-2.2617-0.87891-1.0117-1.4492-2.2383-1.75-3.5195-0.039062-0.32812-0.12109-0.64844-0.14062-0.98047-0.011718-0.33984-0.050781-0.60938-0.039062-1.1484v-2.8789c-0.011719-2.5312 0.98047-6.2812-2.7109-6.4414z"/>
  <path d="m14.398 33.18c4.1016-0.10156 3.6406-5.0312 3.6602-8.3516v-2.8281c0.03125-0.67188 0.070312-1.2383 0.21875-1.8516 0.28125-1.1797 0.82812-2.3086 1.6602-3.2383 0.80078-0.94141 1.8398-1.6797 3-2.1211 0.57031-0.25 1.1797-0.35937 1.8008-0.46875 0.35156-0.011718 0.55078-0.050781 1.0195-0.058593l1.4219-0.019531c7.5508-0.12891 15.109-0.26953 22.66-0.26953h23.691c1.1211 0 1.6211 0 2.3281 0.12891 0.67188 0.10938 1.3203 0.30859 1.9414 0.60938 1.2383 0.55859 2.3281 1.4609 3.1289 2.5703 0.82812 1.0898 1.2891 2.4219 1.4688 3.7617 0.019531 0.37109 0.039062 0.62109 0.058593 1.0898v1.4805 2.9609c0 2.6016-0.98047 6.4609 2.6992 6.6211 3.9805 0.17969 2.8594-3.8594 2.9102-6.3281l0.050782-2.8984c0-1 0.058593-1.8281-0.011719-3.0508-0.10938-2.2891-0.91016-4.5312-2.1289-6.4688-1.2383-1.9297-2.9883-3.5195-5.0117-4.6289-2.0195-1.0703-4.3711-1.6484-6.6094-1.6211l-23.172 0.03125c-7.7188-0.019531-15.441-0.10938-23.16-0.37109l-1.4492-0.050781c-0.51172-0.011719-0.89844-0.050782-1.5391-0.03125-1.1914-0.019532-2.3711 0.17188-3.5391 0.44922-2.3281 0.58984-4.5 1.8008-6.3086 3.4297-1.7695 1.6719-3.2188 3.7617-4.0195 6.1484-0.41016 1.1914-0.67969 2.4297-0.78906 3.6992l-0.26172 2.9883c-0.32031 3.6016-0.69922 8.8203 4.3008 8.6992z"/>
  <path d="m11.82 52.77 7.2188 0.089844 3.6094 0.03125h1.8086c0.25 0.011719 0.76172 0.011719 1.1406-0.039063 0.41016-0.039062 0.82031-0.12109 1.2188-0.23047 1.6094-0.42969 3.0586-1.3906 4.1016-2.6914 0.26172-0.32031 0.48828-0.67188 0.69922-1.0312 0.10937-0.17969 0.19141-0.37109 0.28906-0.55078l0.19922-0.42188 0.76172-1.6406 3.0195-6.5586 1.5117-3.2812 0.37891-0.82031 0.14062-0.28906c0.039062-0.058594 0.070312-0.12891 0.10938-0.19141 0.16016-0.25 0.37891-0.46094 0.64062-0.62109 0.51172-0.32813 1.1406-0.42188 1.6992-0.26172 0.57812 0.16016 1.1289 0.60938 1.3789 1.1211l5.1211 13.27 5.0898 13.52 0.62891 1.6914 0.16016 0.42188 0.23047 0.55859c0.17188 0.37891 0.37891 0.75 0.60938 1.1094 0.92969 1.4102 2.3086 2.5312 3.8984 3.1289 3.1797 1.2812 7.1289 0.25 9.3203-2.4805 0.28125-0.32812 0.51953-0.69141 0.75-1.0703l0.30859-0.57031 0.19922-0.41016 0.80859-1.6211 1.6211-3.2305 1.6406-3.2188 0.82813-1.6094 0.19922-0.39062s0.050782-0.078125 0.078125-0.10938c0.050781-0.070313 0.12109-0.12891 0.19141-0.19141 0.28906-0.23047 0.62891-0.30859 0.96875-0.23828l3.6094 0.19922 7.2109 0.46094c4.4883 0.32031 11 0.69922 10.852-4.3008-0.12109-4.1016-6.2695-3.6406-10.422-3.6602h-7.0586l-3.5312 0.019531h-0.44141l-0.62891 0.019532c-0.57031 0.03125-1.1406 0.10937-1.6914 0.26172-1.1016 0.28125-2.1289 0.80078-3.0195 1.4883-0.89062 0.69141-1.6406 1.5703-2.1914 2.5586l-0.19141 0.37891-0.14062 0.28906-0.17969 0.39844-0.35938 0.80859-1.4414 3.2188-2.7891 6.25c-0.32812 0.71875-1.1602 1.1914-1.9805 1.0898-0.41016-0.039063-0.80859-0.21875-1.1289-0.5-0.16016-0.14062-0.28906-0.30078-0.39844-0.48828-0.058593-0.12109-0.078124-0.14062-0.16016-0.33984l-0.32812-0.82031-5.1484-13.16-5.3008-13.789-0.32812-0.85938c-0.21094-0.53906-0.48047-1.0508-0.78906-1.5195-0.62891-0.94141-1.4414-1.7188-2.3711-2.3008-1.8203-1.1992-4.3398-1.5898-6.4805-0.92188-2.1484 0.62891-3.9883 2.2188-4.9297 4.2695l-1.5508 3.3516-3.0898 6.7109-0.76953 1.6797c-0.23828 0.51953-0.57812 1.2695-0.62891 1.3203-0.23828 0.39844-0.60937 0.71875-1.0391 0.89844-0.21875 0.089844-0.44141 0.14844-0.67969 0.16016h-0.67969-0.92188-3.6914l-7.3906 0.011719c-3.2383 0-8.0508-0.98047-8.2617 2.6992-0.21875 3.9805 4.8086 2.8594 7.8906 2.9102z"/>
 </g>
<text x="0.0" y="117.5" font-size="5.0" font-weight="bold" font-family="Arbeit Regular, Helvetica, Arial-Unicode, Arial, Sans-serif" fill="#000000">Created by Gregor Cresnar</text><text x="0.0" y="122.5" font-size="5.0" font-weight="bold" font-family="Arbeit Regular, Helvetica, Arial-Unicode, Arial, Sans-serif" fill="#000000">from Noun Project</text></svg>