<svg xmlns="http://www.w3.org/2000/svg" xmlns:xlink="http://www.w3.org/1999/xlink" xmlns:serif="http://www.serif.com/" viewBox="0 0 100 126.25" version="1.1" xml:space="preserve" style="" x="0px" y="0px" fill-rule="evenodd" clip-rule="evenodd" stroke-linejoin="round" stroke-miterlimit="2"><path d="M27.983,82.951l-7.491,13.479c-1.601,2.88 -5.238,3.918 -8.118,2.318c-2.879,-1.601 -3.918,-5.238 -2.317,-8.118l4.268,-7.679l13.658,0Zm57.692,0l4.268,7.679c1.601,2.88 0.562,6.517 -2.317,8.118c-2.88,1.6 -6.517,0.562 -8.118,-2.318l-7.491,-13.479l13.658,0Zm-71.676,-3.5c-2.423,-0.007 -4.747,-0.974 -6.461,-2.688c-1.721,-1.721 -2.688,-4.055 -2.688,-6.489l-0,-51.534c-0,-2.434 0.967,-4.768 2.688,-6.49c1.721,-1.721 4.056,-2.688 6.49,-2.688l22.367,0l-0,-0.569c-0,-4.139 3.355,-7.493 7.493,-7.493l12.224,0c4.138,0 7.493,3.354 7.493,7.493l-0,0.569l22.367,0c2.434,0 4.769,0.967 6.49,2.688c1.721,1.722 2.688,4.056 2.688,6.49l0,51.534c0,2.434 -0.967,4.768 -2.688,6.489c-1.721,1.721 -4.056,2.688 -6.49,2.688l-71.973,0Zm26.523,-49.453c-0.466,-1.167 -0.722,-2.441 -0.722,-3.774c-0,-5.63 4.57,-10.2 10.2,-10.2c5.63,0 10.2,4.57 10.2,10.2c-0,1.333 -0.256,2.607 -0.722,3.774l9.761,0c1.754,0 3.436,0.697 4.676,1.937c1.239,1.24 1.936,2.922 1.936,4.675l0,0.199c0,1.754 -0.697,3.436 -1.936,4.675c-1.24,1.24 -2.922,1.937 -4.676,1.937l-7.643,0l-0,23.626c-0,3.188 -2.585,5.773 -5.773,5.773l-11.646,0c-3.188,0 -5.773,-2.585 -5.773,-5.773l-0,-23.626l-7.643,0c-1.754,0 -3.436,-0.697 -4.676,-1.937c-1.239,-1.239 -1.936,-2.921 -1.936,-4.675l-0,-0.199c-0,-1.753 0.697,-3.435 1.936,-4.675c1.24,-1.24 2.922,-1.937 4.676,-1.937l9.761,0Zm2.784,3.92l-12.545,0c-0.714,0 -1.399,0.284 -1.904,0.789c-0.504,0.505 -0.788,1.189 -0.788,1.903l0,0.199c0,0.714 0.284,1.399 0.788,1.904c0.505,0.504 1.19,0.788 1.904,0.788l11.563,0l0,27.546c0,1.024 0.83,1.853 1.853,1.853l3.863,0l0,-10.699c0,-1.082 0.878,-1.96 1.96,-1.96c1.082,0 1.96,0.878 1.96,1.96l0,10.699l3.863,0c1.023,0 1.853,-0.829 1.853,-1.853l0,-27.546l11.563,0c0.714,0 1.399,-0.284 1.904,-0.788c0.504,-0.505 0.788,-1.19 0.788,-1.904l-0,-0.199c-0,-0.714 -0.284,-1.398 -0.788,-1.903c-0.505,-0.505 -1.19,-0.789 -1.904,-0.789l-12.545,0c-1.792,1.561 -4.134,2.506 -6.694,2.506c-2.56,0 -4.902,-0.945 -6.694,-2.506Zm25.878,34.222l14.66,0c1.082,0 1.96,-0.879 1.96,-1.96c-0,-1.082 -0.878,-1.96 -1.96,-1.96l-14.66,0c-1.081,0 -1.96,0.878 -1.96,1.96c-0,1.081 0.879,1.96 1.96,1.96Zm-53.028,0c-1.082,0 -1.96,-0.879 -1.96,-1.96c-0,-1.082 0.878,-1.96 1.96,-1.96l14.66,0c1.081,0 1.96,0.878 1.96,1.96c0,1.081 -0.879,1.96 -1.96,1.96l-14.66,0Zm53.028,-5.88l14.66,0c1.082,0 1.96,-0.879 1.96,-1.96c-0,-1.082 -0.878,-1.96 -1.96,-1.96l-14.66,0c-1.081,0 -1.96,0.878 -1.96,1.96c-0,1.081 0.879,1.96 1.96,1.96Zm-53.028,0c-1.082,0 -1.96,-0.879 -1.96,-1.96c-0,-1.082 0.878,-1.96 1.96,-1.96l14.66,0c1.081,0 1.96,0.878 1.96,1.96c-0,1.081 -0.879,1.96 -1.96,1.96l-14.66,0Zm-0,-5.88l10.165,0c1.082,0 1.96,-0.879 1.96,-1.96c-0,-1.082 -0.878,-1.96 -1.96,-1.96l-10.165,0c-1.082,0 -1.96,0.878 -1.96,1.96c-0,1.081 0.878,1.96 1.96,1.96Zm53.028,0l10.166,0c1.082,0 1.96,-0.879 1.96,-1.96c-0,-1.082 -0.878,-1.96 -1.96,-1.96l-10.166,0c-1.081,0 -1.96,0.878 -1.96,1.96c-0,1.081 0.879,1.96 1.96,1.96Zm-19.184,-36.436c3.466,0 6.28,2.814 6.28,6.28c-0,3.466 -2.814,6.28 -6.28,6.28c-3.466,0 -6.28,-2.814 -6.28,-6.28c-0,-3.466 2.814,-6.28 6.28,-6.28Zm19.184,7.036l14.66,0c1.082,0 1.96,-0.879 1.96,-1.96c-0,-1.082 -0.878,-1.96 -1.96,-1.96l-14.66,0c-1.081,0 -1.96,0.878 -1.96,1.96c-0,1.081 0.879,1.96 1.96,1.96Zm-53.028,0c-1.082,0 -1.96,-0.879 -1.96,-1.96c-0,-1.082 0.878,-1.96 1.96,-1.96l14.66,0c1.081,0 1.96,0.878 1.96,1.96c-0,1.081 -0.879,1.96 -1.96,1.96l-14.66,0Zm53.028,-5.88l14.66,0c1.082,0 1.96,-0.878 1.96,-1.96c-0,-1.082 -0.878,-1.96 -1.96,-1.96l-14.66,0c-1.081,0 -1.96,0.878 -1.96,1.96c-0,1.082 0.879,1.96 1.96,1.96Zm-53.028,0c-1.082,0 -1.96,-0.878 -1.96,-1.96c-0,-1.082 0.878,-1.96 1.96,-1.96l14.66,0c1.081,0 1.96,0.878 1.96,1.96c-0,1.082 -0.879,1.96 -1.96,1.96l-14.66,0Z"/><text x="0" y="116" fill="#000000" font-size="5px" font-weight="bold" font-family="'Helvetica Neue', Helvetica, Arial-Unicode, Arial, Sans-serif">Created by alimasykurm</text><text x="0" y="121" fill="#000000" font-size="5px" font-weight="bold" font-family="'Helvetica Neue', Helvetica, Arial-Unicode, Arial, Sans-serif">from the Noun Project</text></svg>