<svg xmlns="http://www.w3.org/2000/svg" version="1.1" viewBox="-5.0 -10.0 110.0 135.0">
 <path d="m84.414 61.102-13.754 3.8047c-0.375 0.10156-0.42969 0.41406 0.050782 0.57031l7.3164 2.3672v0.003906c0.39062 0.082032 0.79297-0.054687 1.0508-0.35938l6.3789-6.1172c-0.25-0.30859-0.67188-0.41797-1.043-0.27344zm-14.23 2.082 13.758-3.8086c2.5508-0.70703 4.2227 1.8789 2.8203 3.2227l-6.4375 6.1758-0.003907 0.003906c-0.72656 0.76953-1.8242 1.0664-2.8398 0.76953l-7.3164-2.3672h-0.003906c-0.93359-0.21484-1.5977-1.0508-1.5898-2.0078 0.003907-0.96094 0.67578-1.7891 1.6133-1.9922zm-54.121-3.8086 13.758 3.8086h-0.003906c0.9375 0.20312 1.6094 1.0312 1.6133 1.9922 0.007812 0.96094-0.65625 1.793-1.5898 2.0078l-7.3203 2.3633c-1.0156 0.29688-2.1133 0-2.8398-0.76953l-6.4375-6.1758c-1.4062-1.3477 0.26562-3.9297 2.8203-3.2227zm13.281 5.5312-13.758-3.8047c-0.37109-0.14844-0.79297-0.039062-1.043 0.26953l6.3789 6.1172c0.25781 0.30859 0.66016 0.44531 1.0508 0.35938l7.3164-2.3672c0.48047-0.15625 0.42578-0.46875 0.050782-0.57031zm8.4609 0.45703h-0.003907c-0.46484-0.042969-0.82031-0.42969-0.82031-0.89844 0-0.46484 0.35547-0.85547 0.82031-0.89453h24.398c0.46484 0.039063 0.82031 0.42969 0.82031 0.89453 0 0.46875-0.35547 0.85547-0.82031 0.89844zm6.1016 6.957h-0.007812c-0.46094-0.042968-0.8125-0.43359-0.8125-0.89453 0-0.46484 0.35156-0.85547 0.8125-0.89844h12.203c0.46094 0.042968 0.8125 0.43359 0.8125 0.89844 0 0.46094-0.35156 0.85156-0.8125 0.89453zm-20.551 14.051h-12.23c-0.40234 0-0.80469-0.042969-1.1992-0.13672v7.2148c0.13281 0.95312 0.98828 1.6328 1.9453 1.5508h9.5273c0.96094 0.085938 1.8203-0.59766 1.9531-1.5508v-7.0781zm67.152-2.1836c0.03125-0.019531 0.0625-0.035156 0.09375-0.050781 1.1523-0.63281 1.8711-1.8438 1.875-3.1602v-2.5547h-84.953v2.5547c0.011718 1.9844 1.6172 3.5898 3.6016 3.6016h77.75c0.56641 0 1.125-0.13281 1.6328-0.39453zm-0.42969 2.0469c-0.39453 0.089844-0.79688 0.13672-1.1992 0.13672h-12.234v7.0781c0.13281 0.95312 0.99609 1.6367 1.957 1.5508h9.5312c0.96094 0.085938 1.8164-0.59766 1.9492-1.5508v-7.2148zm-69.379-34.473h58.125c0.14844 0.039062 0.30859 0.039062 0.46094 0h4.1133c5.0078 0.011719 9.0586 4.0664 9.0742 9.0703v15.801h-84.949v-17.324c0.015624-4.1641 3.3867-7.5352 7.5508-7.5469h5.5117 0.11328zm13.48-36.527 3.0859 3.0859v-0.003906c0.27344 0.27344 0.33984 0.69141 0.16406 1.0391-0.33203 0.65234-0.61328 1.3281-0.84375 2.0234-0.097657 0.40234-0.45703 0.6875-0.87109 0.6875h-4.3672c-1.1797 0.003906-2.1328 0.96094-2.1367 2.1367v3.1641c0.003906 1.1797 0.95703 2.1367 2.1367 2.1406h4.3633c0.38672 0.003907 0.73047 0.25391 0.85156 0.62109 0.22656 0.69141 0.50391 1.3672 0.82812 2.0156 0.21875 0.35547 0.16797 0.81641-0.125 1.1133l-3.0859 3.0859v-0.003906c-0.82813 0.83984-0.82813 2.1914 0 3.0273l2.2383 2.2383c0.83594 0.82812 2.1875 0.82812 3.0234 0l3.0859-3.0859c0.27344-0.27344 0.69141-0.33984 1.0352-0.16406 0.65625 0.32812 1.332 0.61328 2.0234 0.84375 0.40234 0.097656 0.6875 0.45703 0.69141 0.87109v4.3633c0.003906 1.1797 0.95703 2.1328 2.1367 2.1367h3.1641c1.1797-0.003906 2.1367-0.95703 2.1406-2.1367v-4.3555c0-0.38672 0.25-0.73047 0.62109-0.84766 0.6875-0.23047 1.3633-0.50391 2.0156-0.82812 0.35547-0.22266 0.81641-0.17188 1.1133 0.12109l3.0859 3.0859h-0.003907c0.83594 0.82812 2.1875 0.82812 3.0234 0l2.2383-2.2383c0.83203-0.83594 0.83203-2.1875 0-3.0234l-3.0859-3.0859h0.003907c-0.27344-0.27344-0.33984-0.69141-0.16406-1.0391 0.32812-0.65234 0.60938-1.3281 0.84375-2.0195 0.097656-0.40234 0.45703-0.6875 0.87109-0.69141h4.3594c1.1797-0.003907 2.1367-0.95703 2.1406-2.1367v-3.168c-0.003906-1.1797-0.96094-2.1328-2.1406-2.1367h-4.3516c-0.38672 0-0.73047-0.25391-0.85156-0.62109-0.22656-0.69141-0.50391-1.3672-0.82812-2.0156-0.21875-0.35547-0.16797-0.81641 0.125-1.1133l3.0859-3.0859c0.82813-0.83594 0.82813-2.1875 0-3.0234l-2.2383-2.2422c-0.83594-0.82812-2.1875-0.82812-3.0234 0l-3.0859 3.0859c-0.27344 0.27344-0.69141 0.33984-1.0352 0.16406-0.65625-0.33203-1.332-0.61328-2.0234-0.84375-0.40234-0.097656-0.6875-0.45703-0.69141-0.87109v-4.3633c-0.003906-1.1836-0.96094-2.1367-2.1406-2.1406h-3.1641c-1.1797 0.003906-2.1328 0.96094-2.1406 2.1406v4.3594c0 0.38672-0.25 0.73047-0.61719 0.85156-0.69141 0.22656-1.3672 0.50391-2.0195 0.82813-0.35156 0.22266-0.8125 0.16797-1.1094-0.125l-3.0898-3.0859c-0.83594-0.82812-2.1875-0.82812-3.0234 0l-2.2383 2.2383c-0.82813 0.83984-0.82813 2.1875 0 3.0273zm30.844 17.781-0.57031-0.57031 0.46094-1.1055 3.4102 0.64062c4.7109 0.97266 6.4062 5 8.8242 9l5.4375 8.9883h-3.0469l-5.0547-8.3594c-2.2773-3.7695-3.8008-7.4297-8.5938-8.418zm-32.008 1.9609-0.10156 0.10156c-1.5312 1.5352-1.5312 4.0234 0 5.5586l2.2383 2.2383c1.5391 1.5312 4.0234 1.5312 5.5625 0l2.6328-2.6367 1.1406 0.47266v3.7305c0.003907 2.168 1.7617 3.9258 3.9336 3.9297h3.1641c2.168-0.003906 3.9258-1.7617 3.9297-3.9297v-3.7266l1.1406-0.47266 2.6328 2.6367c1.5391 1.5273 4.0234 1.5273 5.5625 0l2.2383-2.2383c1.3164-1.3242 1.5234-3.3867 0.5-4.9453 2.4414 1.3633 3.7773 4.2188 5.3594 6.8398l4.5 7.4336h-55.285l5.168-9.2852c1.5156-2.7461 2.7773-5.0312 5.6836-5.6992zm22.633-14.836c2.2852 2.2852 2.9688 5.7227 1.7344 8.707-1.2383 2.9844-4.1523 4.9336-7.3828 4.9336s-6.1445-1.9492-7.3828-4.9336c-1.2344-2.9844-0.55078-6.4219 1.7344-8.707 1.4961-1.5 3.5273-2.3398 5.6484-2.3398s4.1523 0.83984 5.6484 2.3398zm-5.6484-4.1328c3.957 0 7.5234 2.3828 9.0391 6.0391 1.5117 3.6562 0.67578 7.8633-2.1211 10.66s-7.0078 3.6367-10.66 2.1211c-3.6562-1.5156-6.0391-5.082-6.0391-9.0391 0-5.4023 4.3789-9.7812 9.7812-9.7812zm-32.898 33.832c-2.0781 0.59375-3.8008-0.5-3.2422-2.6719 0.75391-2.9414 4.8047-4.6641 6.375-2.957l3-5.3984c1.8359-3.3242 3.3555-6.0781 6.9805-6.8281l3.625-0.67578h1.2344l0.47266 1.1406-0.27734 0.27734-2.4531 0.46875c-3.8359 0.78906-5.293 3.4375-7.0547 6.6289l-5.6406 10.145h-3.1016l0.070313-0.12891zm64-5.8281c-0.75391 0.019531-1.4375 0.4375-1.7969 1.0977-0.35547 0.66016-0.33594 1.4609 0.058593 2.1016 0.97656 1.8594 2.9766 2.9453 5.0664 2.7578 2.9531-0.41797 2.5078-3.7891-0.375-5.3438-0.89453-0.51172-1.9297-0.72656-2.9531-0.61328z" fill-rule="evenodd"/>
<text x="0.0" y="117.5" font-size="5.0" font-weight="bold" font-family="Arbeit Regular, Helvetica, Arial-Unicode, Arial, Sans-serif" fill="#000000">Created by Jono</text><text x="0.0" y="122.5" font-size="5.0" font-weight="bold" font-family="Arbeit Regular, Helvetica, Arial-Unicode, Arial, Sans-serif" fill="#000000">from Noun Project</text></svg>