<svg xmlns="http://www.w3.org/2000/svg" version="1.1" viewBox="-5.0 -10.0 110.0 135.0">
 <g>
  <path d="m88.422 46.508c-1.1445-0.42578-2.4297-0.12891-3.2773 0.75-4.9414 4.7344-9.2812 7.8047-13.238 9.3867 0.80078 2.668 0.58594 4.6562-0.64062 6.0469-1.1797 1.3398-3.1445 1.8906-5.7617 1.8906l0.003906-0.003906c-3.7266-0.17188-7.4219-0.74219-11.023-1.7109-2.9375-1.0391-6.1875-0.66016-8.8008 1.0312-0.56641 0.32031-1.2812 0.13281-1.6133-0.42578-0.33594-0.55859-0.16016-1.2812 0.39063-1.625 3.1797-2.0273 7.1094-2.4961 10.676-1.2734 3.6016 0.83984 12.27 2.8867 14.34 0.53906 0.71875-0.82031 0.67969-2.3477-0.10547-4.5352h-0.003906c-0.74609-0.75781-1.7695-1.1797-2.8359-1.1719-2.5234-0.125-5.0312-0.5-7.4805-1.125-2.9531-0.83984-5.8594-1.8438-8.6992-3.0039-0.019531-0.007813-0.035156-0.015625-0.050781-0.023438-9.2617-4.2617-16.227-4.4219-21.922-0.51172l-6.2578 4.9258 7.1055 15.398c1.0234-0.49219 2.082-0.91016 3.168-1.2461 1.3164-0.39844 2.6836-0.60156 4.0547-0.59375 1.9414 0.007813 3.8633 0.36719 5.6758 1.0586 4.3906 1.7969 8.9414 3.1758 13.59 4.1211 2.0508 0.32812 4.1484 0.027344 6.0234-0.86719 6.125-2.8125 12.039-6.0625 17.695-9.7266 2.1484-1.4102 3.9648-3.2734 5.3203-5.4609 1.9414-2.9844 3.668-6.1016 5.1602-9.332 0.36328-0.96484-0.48437-2.0703-1.4922-2.5117z"/>
  <path d="m29.039 76.016-1.125-2.4062c-0.14062-0.10938-0.25781-0.25391-0.33594-0.41406l-8.0234-17.387c-0.007813-0.011719-0.007813-0.027344-0.011719-0.042969l-0.86328-1.8398-8.6797 4.0742 10.379 22.086z"/>
  <path d="m80.332 20.324c-1.25 1.2188-2.7969 2.0938-4.4844 2.5391 4.0391 3.4375 7.2539 7.8945 6.9531 15.211 5.2109-0.53906 6.7305-1.1055 7.1562-1.3477 0.52734-8.25-3.6094-12.148-9.625-16.402z"/>
  <path d="m60.832 40.285c1.8984 0.11328 3.8047 0.11328 5.7031 0 9.6875-0.58594 12.895-1.3398 13.871-1.875 0.46875-7.2852-2.7148-11.281-8.0078-15.238-0.81641-0.058594-1.6211-0.22266-2.3984-0.48438-0.85156 0.69141-1.8164 1.2383-2.8477 1.6133-2.2422 0.8125-4.6992 0.8125-6.9453 0-1.0273-0.37109-1.9922-0.91406-2.8438-1.6016-0.77344 0.25781-1.5781 0.42188-2.3945 0.48438-5.2812 3.9453-8.457 7.9336-8.0078 15.242 0.96484 0.51562 4.1602 1.2734 13.871 1.8594z"/>
  <path d="m46.355 13.043c0 1.8047 0.625 3.5508 1.7695 4.9414 1.5078 1.8164 3.75 2.8633 6.1094 2.8477 0.050781 0 0.10547 0 0.15625-0.007812 0.35547-0.019531 0.71094-0.066407 1.0625-0.13281-1.6211-2.2305-2.2656-5.0234-1.7812-7.7383s2.0547-5.1133 4.3477-6.6445c-2.4062-1.3945-5.3711-1.3984-7.7773-0.007813-2.4102 1.3906-3.8906 3.9609-3.8867 6.7422z"/>
  <path d="m57.672 19.672c0.22656 0.27344 0.46875 0.53516 0.73438 0.77734 0.75391 0.70312 1.6445 1.25 2.6172 1.5977 1.7188 0.61719 3.5977 0.61719 5.3164 0 0.96875-0.34766 1.8594-0.89453 2.6133-1.5977 0.26953-0.24609 0.51953-0.50781 0.74609-0.78906 1.9102-2.3242 2.3047-5.543 1.0195-8.2617-1.2852-2.7227-4.0234-4.457-7.0352-4.457-3.0078 0-5.7461 1.7344-7.0312 4.457-1.2891 2.7188-0.89062 5.9375 1.0195 8.2617z"/>
  <path d="m51.523 22.863c-1.6914-0.44531-3.2344-1.3203-4.4883-2.5391-6 4.2461-10.137 8.1406-9.6172 16.406 0.42578 0.23828 1.9531 0.80859 7.1562 1.3477-0.28516-7.3359 2.918-11.777 6.9492-15.215z"/>
  <path d="m79.242 17.988c2.3984-2.9062 2.3711-7.1055-0.0625-9.9766-2.4336-2.8711-6.5742-3.5898-9.832-1.7031 2.293 1.5312 3.8633 3.9297 4.3477 6.6445 0.48438 2.7148-0.16016 5.5078-1.7812 7.7383 0.32422 0.066406 0.64844 0.10547 0.97656 0.125 0.11328 0.015625 0.22656 0.019532 0.33984 0.015625 2.3281 0 4.5352-1.043 6.0117-2.8438z"/>
 </g>
<text x="0.0" y="117.5" font-size="5.0" font-weight="bold" font-family="Arbeit Regular, Helvetica, Arial-Unicode, Arial, Sans-serif" fill="#000000">Created by M. Adebadal</text><text x="0.0" y="122.5" font-size="5.0" font-weight="bold" font-family="Arbeit Regular, Helvetica, Arial-Unicode, Arial, Sans-serif" fill="#000000">from Noun Project</text></svg>