<svg xmlns="http://www.w3.org/2000/svg" xmlns:xlink="http://www.w3.org/1999/xlink" version="1.1" x="0px" y="0px" viewBox="0 0 150 187.5" style="enable-background:new 0 0 150 150;" xml:space="preserve"><g><path d="M117.939,35.061c0.016,0.017,0.027,0.036,0.043,0.053C119.789,36.896,122.267,38,125,38c5.514,0,10-4.486,10-10   s-4.486-10-10-10s-10,4.486-10,10c0,2.732,1.104,5.211,2.887,7.018C117.904,35.033,117.923,35.044,117.939,35.061z"/><circle cx="131" cy="76" r="4"/><circle cx="23" cy="76" r="4"/><circle cx="77" cy="22" r="4"/><rect x="21.807" y="20.807" transform="matrix(0.7071 -0.7071 0.7071 0.7071 -11.3051 28.7071)" width="14.385" height="14.385"/><path d="M77,39c-20.402,0-37,16.598-37,37c0,10.04,4.025,19.154,10.54,25.826C52.408,94.468,59.068,89,67,89h20   c7.932,0,14.592,5.468,16.46,12.826C109.975,95.154,114,86.04,114,76C114,55.598,97.402,39,77,39z M77,85c-10.477,0-19-8.523-19-19   s8.523-19,19-19s19,8.523,19,19S87.477,85,77,85z"/><circle cx="77" cy="66" r="15"/><polygon points="20.236,134 37.764,134 29,116.472  "/><rect x="115" y="114" width="20" height="20"/><path d="M87,93H67c-6.828,0-12.431,5.294-12.949,11.991C60.364,109.999,68.335,113,77,113s16.636-3.001,22.949-8.009   C99.431,98.294,93.828,93,87,93z"/><circle cx="77" cy="130" r="4"/><path d="M49.471,45.643L38.328,34.5L35.5,37.328l11.143,11.143C47.54,47.483,48.483,46.54,49.471,45.643z"/><path d="M107.357,48.471l9.274-9.274c-1.073-0.804-2.024-1.755-2.828-2.828l-9.274,9.274   C105.517,46.54,106.46,47.483,107.357,48.471z"/><path d="M117.887,35.018c0.031,0.032,0.063,0.064,0.095,0.096c-0.016-0.017-0.027-0.036-0.043-0.053S117.904,35.033,117.887,35.018   z"/><path d="M46.643,103.529l-13.095,13.095l1.886,3.771l14.037-14.038C48.483,105.46,47.54,104.517,46.643,103.529z"/><path d="M104.529,106.357l6.471,6.471V112c0-1.104,0.896-2,2-2h0.828l-6.471-6.471C106.46,104.517,105.517,105.46,104.529,106.357z   "/><path d="M79,35.051v-5.314C78.359,29.902,77.692,30,77,30s-1.359-0.098-2-0.263v5.314H79z"/><path d="M75,116.949v5.314c0.641-0.166,1.308-0.263,2-0.263s1.359,0.098,2,0.263v-5.314H75z"/><path d="M117.949,78h5.314c-0.166-0.641-0.263-1.309-0.263-2s0.097-1.359,0.263-2h-5.314V78z"/><path d="M36.051,74h-5.314C30.903,74.641,31,75.309,31,76s-0.097,1.359-0.263,2h5.314V74z"/></g><text x="0" y="165" fill="#000000" font-size="5px" font-weight="bold" font-family="'Helvetica Neue', Helvetica, Arial-Unicode, Arial, Sans-serif">Created by bsd studio</text><text x="0" y="170" fill="#000000" font-size="5px" font-weight="bold" font-family="'Helvetica Neue', Helvetica, Arial-Unicode, Arial, Sans-serif">from the Noun Project</text></svg>