<svg xmlns="http://www.w3.org/2000/svg" xmlns:xlink="http://www.w3.org/1999/xlink" version="1.1" x="0px" y="0px" viewBox="0 0 100 125" style="enable-background:new 0 0 100 100;" xml:space="preserve"><g><path d="M48,9H29c-1.1,0-2,0.9-2,2v4h21V9z"/><rect x="52" y="9" width="6" height="6"/><path d="M81,9H62v6h9c3.31,0,6,2.69,6,6v17h6V11C83,9.9,82.1,9,81,9z"/><path d="M77,81h4c1.1,0,2-0.9,2-2V52h-6V81z"/><path d="M29,83c0-2.21-1.8-4-4-4c-1.11,0-2-0.9-2-2V62h-6v27c0,1.1,0.9,2,2,2h19v-6h-7C29.89,85,29,84.1,29,83z"/><path d="M23,33c0-1.11,0.89-2,2-2c2.2,0,4-1.8,4-4c0-1.11,0.89-2,2-2h7v-6H19c-1.1,0-2,0.9-2,2v27h6V33z"/><path d="M63,75.25v-40.5c-2.81-0.73-5.02-2.94-5.75-5.75H50c-0.56,0-1.06-0.22-1.42-0.59C48.22,28.05,48,27.55,48,27v-8h-6v8   c0,1.1-0.9,2-2,2h-7.25c-0.73,2.81-2.94,5.02-5.75,5.75v40.5c2.81,0.73,5.02,2.94,5.75,5.75H40c0.55,0,1.05,0.22,1.41,0.58   C41.78,81.94,42,82.44,42,83v8h6v-8c0-1.11,0.89-2,2-2h7.25C57.98,78.19,60.19,75.98,63,75.25z M45,35c1.1,0,2,0.89,2,2   c0,1.1-0.9,2-2,2c-1.11,0-2-0.9-2-2C43,35.89,43.89,35,45,35z M45,75c-1.11,0-2-0.9-2-2c0-1.11,0.89-2,2-2c1.1,0,2,0.89,2,2   C47,74.1,46.1,75,45,75z M56.41,54.41L50,60.83l-3.59,3.58C46.04,64.79,45.53,65,45,65s-1.04-0.21-1.42-0.59l-10-10   c-0.73-0.73-0.78-1.9-0.12-2.69l5-6C38.84,45.26,39.4,45,40,45h10c0.59,0,1.15,0.26,1.53,0.72l5,6   C57.2,52.51,57.14,53.68,56.41,54.41z"/><path d="M67,77c0,1.1-0.9,2-2,2c-2.21,0-4,1.79-4,4c0,1.1-0.9,2-2,2h-7v6h19c1.1,0,2-0.9,2-2V62h-6V77z"/><path d="M71,19H52v6h7c1.1,0,2,0.89,2,2c0,2.2,1.79,4,4,4c1.1,0,2,0.89,2,2v15h6V21C73,19.9,72.1,19,71,19z"/><rect x="67" y="52" width="6" height="6"/><rect x="17" y="52" width="6" height="6"/><rect x="77" y="42" width="6" height="6"/><polygon points="40.93,49 37.7,52.87 45,60.17 52.29,52.87 49.06,49  "/></g><text x="0" y="115" fill="#000000" font-size="5px" font-weight="bold" font-family="'Helvetica Neue', Helvetica, Arial-Unicode, Arial, Sans-serif">Created by IconMark</text><text x="0" y="120" fill="#000000" font-size="5px" font-weight="bold" font-family="'Helvetica Neue', Helvetica, Arial-Unicode, Arial, Sans-serif">from the Noun Project</text></svg>