<svg xmlns="http://www.w3.org/2000/svg" version="1.1" viewBox="-5.0 -10.0 110.0 135.0">
 <g>
  <path d="m95.734 4.1719c-2.9297-2.9297-7.6719-2.9297-10.602 0l-29.484 29.488c-1.2891-0.035156-2.5664 0.16016-3.7734 0.56641-1.7109-3.4922-2.6719-7.4258-2.6719-11.59 0.011719-5.8281-3.0234-11.012-8.125-13.863-9.2227-5.1562-17.637-0.066407-25.098 7.4766-18.656 18.879-18.52 49.062 0.28125 67.781 22.98 22.883 61.512 16.828 76.465-11.805 5.7578-11.027-2.7891-24.098-15.305-23.23-3.8203 0.26953-7.7383-0.28125-11.5-1.7734 0.23828-0.95312 0.35156-1.9453 0.32422-2.957l29.488-29.492c2.9219-2.9219 2.9219-7.6758 0-10.602zm-18.051 48.578c9.5508-0.66016 16.105 9.3008 11.703 17.73-13.867 26.555-49.492 31.77-70.469 10.879-17.227-17.148-17.344-45.172-0.25781-62.461 6.1641-6.2344 13.082-11.031 20.578-6.8398 3.8906 2.1758 6.207 6.125 6.1953 10.574 0 4.7891 1.1133 9.3398 3.1289 13.398-1.1641 0.92969-2.1602 2.1133-2.8906 3.5312-2.2773 4.4141-5.5625 7.8438-9.5234 10.367-3.3008 2.1016-2.3594 7.1719 1.4805 7.918 8.6328 1.6797 16.754 0.51172 23.836-4.2812 1.168-0.78906 2.1484-1.7773 2.9141-2.9023 4.3477 1.75 8.8789 2.3984 13.305 2.0859zm15.387-40.641-27.84 27.84c-1.0508-2.2617-2.8477-4.125-5.2812-5.2656l27.848-27.848c1.457-1.457 3.8164-1.457 5.2734 0 1.4531 1.4531 1.4531 3.8203 0 5.2734z"/>
  <path d="m28.172 37.836c4.6836 0 8.4727-3.793 8.4727-8.4766 0-4.7109-3.8164-8.4688-8.4727-8.4688s-8.4727 3.7578-8.4727 8.4688c-0.003907 4.6836 3.7891 8.4766 8.4727 8.4766z"/>
  <path d="m28.484 50.941c0-4.6719-3.8008-8.4727-8.4727-8.4727s-8.4727 3.8008-8.4727 8.4727 3.8008 8.4727 8.4727 8.4727c4.6719 0.003907 8.4727-3.7969 8.4727-8.4727z"/>
  <path d="m29.504 63.5c-4.6836 0-8.4727 3.793-8.4727 8.4766 0 4.6836 3.7891 8.4727 8.4727 8.4727s8.4766-3.7969 8.4766-8.4727c-0.003907-4.6875-3.793-8.4766-8.4766-8.4766z"/>
  <path d="m51.086 71.656c-4.6719 0-8.4727 3.8008-8.4727 8.4727s3.8008 8.4727 8.4727 8.4727c4.6719 0 8.4727-3.8008 8.4727-8.4727 0-4.668-3.8008-8.4727-8.4727-8.4727z"/>
  <path d="m72.117 79.117c4.6836 0 8.4727-3.793 8.4727-8.4766s-3.7891-8.4727-8.4727-8.4727c-4.6836 0-8.4766 3.7891-8.4766 8.4727s3.793 8.4766 8.4766 8.4766z"/>
 </g>
<text x="0.0" y="117.5" font-size="5.0" font-weight="bold" font-family="Arbeit Regular, Helvetica, Arial-Unicode, Arial, Sans-serif" fill="#000000">Created by Icogenix</text><text x="0.0" y="122.5" font-size="5.0" font-weight="bold" font-family="Arbeit Regular, Helvetica, Arial-Unicode, Arial, Sans-serif" fill="#000000">from Noun Project</text></svg>