<svg xmlns="http://www.w3.org/2000/svg" version="1.1" viewBox="-5.0 -10.0 110.0 135.0">
 <path d="m15.438 25.93c-0.46484-0.039063-0.82031-0.42969-0.82031-0.89453 0-0.46875 0.35547-0.85547 0.82031-0.89844h9.4297c0.46484 0.042969 0.82031 0.42969 0.82031 0.89844 0 0.46484-0.35547 0.85547-0.82031 0.89453zm57.824 48.648h9.4922c6.1523 0 11.691 5.625 11.691 11.398v4.8633h-0.003906c0.0625 2.2266-1.6836 4.082-3.9062 4.1602h-25.059c-2.2227-0.078125-3.9688-1.9336-3.9062-4.1602v-4.8633c0-5.7734 5.5352-11.398 11.691-11.398zm12.062-8.8164h-0.003907c-0.007812 3.5938-2.918 6.5-6.5078 6.5117h-1.6133c-3.5898-0.011719-6.5-2.918-6.5078-6.5117v-4.7539c0.046875-4.0078 3.3086-7.2344 7.3164-7.2344 4.0078 0 7.2695 3.2266 7.3164 7.2344v4.7578zm-68.074 8.8164h9.4883c6.1523 0 11.691 5.625 11.691 11.398v4.8633c0.0625 2.2266-1.6836 4.082-3.9062 4.1602h-25.059c-2.2227-0.078125-3.9688-1.9336-3.9062-4.1602v-4.8633c0-5.7734 5.5391-11.398 11.691-11.398zm12.059-8.8164c-0.007813 3.5938-2.918 6.5-6.5078 6.5117h-1.6133c-3.5898-0.011719-6.5-2.918-6.5078-6.5117v-4.7539c0-4.043 3.2734-7.3164 7.3125-7.3164 4.043 0 7.3164 3.2734 7.3164 7.3164v4.7578zm-13.871-33.238c-0.46484-0.042969-0.82031-0.42969-0.82031-0.89844 0-0.46484 0.35547-0.85547 0.82031-0.89453h20.074c0.46094 0.039062 0.82031 0.42969 0.82031 0.89453 0 0.46875-0.35938 0.85547-0.82031 0.89844zm24.883 5.1953h-0.003906c0.35547 0.55859 0.79297 1.0586 1.3008 1.4844 1.5039 1.2227 3.3867 1.8789 5.3242 1.8516h22.301-0.003907c0.20703 0 0.40234 0.070312 0.5625 0.19922l9.8906 6.9648v-0.003906c0.19531 0.13672 0.45703 0.12891 0.64453-0.019532 0.18359-0.14844 0.25-0.40234 0.16016-0.62109l-2.1602-5.2812 0.003906-0.003907c-0.10938-0.27344-0.074219-0.58594 0.089844-0.82812 0.16406-0.24609 0.4375-0.39453 0.73437-0.39844h0.47656c1.9375 0.027344 3.8203-0.62891 5.3242-1.8516 1.3125-1.043 2.0898-2.6211 2.125-4.3008v-23.766c-0.035156-1.6797-0.8125-3.2539-2.125-4.3008-1.5039-1.2188-3.3906-1.8711-5.3281-1.8438h-32.699c-1.9375-0.027344-3.8203 0.62891-5.3242 1.8477-1.3125 1.0469-2.0898 2.6211-2.125 4.3008v23.758c0.003907 0.99609 0.29297 1.9727 0.82422 2.8125zm-24.883 1.3984c-0.46484-0.042969-0.82031-0.42969-0.82031-0.89844 0-0.46484 0.35547-0.85547 0.82031-0.89453h22.699c-0.28906-0.77344-0.43359-1.5898-0.43359-2.4141v-8.9805h-5.7109c-0.46484-0.039063-0.82031-0.42969-0.82031-0.89453 0-0.46875 0.35547-0.85547 0.82031-0.89844h5.707v-8.8906h-23.773c-1.9375-0.027344-3.8242 0.62891-5.3242 1.8555-1.3164 1.043-2.0938 2.6211-2.1289 4.2969v20.539c0.035156 1.6758 0.8125 3.2539 2.1289 4.2969 1.5 1.2227 3.3828 1.8789 5.3203 1.8516h0.47656c0.29687 0.003906 0.57031 0.15234 0.73828 0.39453 0.16406 0.24609 0.19922 0.55859 0.089843 0.83203l-2.1602 5.2891c-0.089844 0.21875-0.023437 0.47266 0.16406 0.62109 0.1875 0.14844 0.44922 0.15625 0.64453 0.019532l9.8906-6.9648v0.003906c0.16016-0.12891 0.35547-0.19922 0.55859-0.20312h22.301c3.3945 0 6.7852-2.0039 7.3711-5.2344h-7.0547c-3.0547 0.066406-5.9648-1.3164-7.8398-3.7266zm57.5-19.191c2.6562 0.015625 2.1758 1.8125 2.1406 4.1172-0.015625 1.1992-1.3125 1.457-2.3281 1.4805l0.1875-5.6016zm-19.109 5.6016c-2.5469 0-2.9336-3.5-1.8047-5.0508h-0.003907c0.50391-0.43359 1.1641-0.63672 1.8203-0.55469v5.1328c0 0.12891 0.007812 0.30859 0.015625 0.47266zm7.4258 9.3008-0.003906-0.003906c-0.49219-0.30078-0.86328-0.76953-1.0391-1.3203-3.9883-0.17578-6.9141-2.1055-7.25-6.2617-3.4609-0.64844-4.1992-5.5156-2.3008-7.9336 0.82422-0.87109 2.0117-1.3047 3.2031-1.1719 0.085938-4.3477 3.2539-8.0195 7.543-8.7383 3.0195-0.53906 6.125 0.27344 8.4922 2.2227 1.0977 1.043 1.9297 2.332 2.4258 3.7656 0.28516 0.89062 0.46094 1.8164 0.53125 2.75 1.1445-0.12891 2.2891 0.26953 3.1094 1.082 1.2539 1.293 0.92969 3.2578 0.90625 4.8438-0.035156 2.4219-2.2227 3.2578-4.2656 3.2578v-0.003906c-0.058594 0-0.11328-0.003906-0.16797-0.011718-1.7812-0.33594-1.3711-1.3086-1.3711-2.5195 0-2.7109 0.38281-6.3984-0.4375-8.8281l0.003906-0.003906c-0.39844-1.1172-1.043-2.1328-1.8867-2.9648-4.2383-3.5898-11.738-2.2891-12.945 4.0781-0.11719 0.65234-0.16797 1.3125-0.16016 1.9727v6.0156l0.023437 0.72656c-0.011718 0 0.16406 1.1992-0.89844 1.4531 0.30859 3.0781 2.4062 4.3086 5.3984 4.4727 0.52344-1.5234 1.6211-1.7148 3.1484-1.7148 1.6953 0 3.4844 0.48437 3.4453 2.5547-0.046874 2.1328-1.6445 2.6094-3.3555 2.6094-0.73047 0.082031-1.4727-0.03125-2.1445-0.33203zm0.51562-2.2578c0.17969-0.78125 0.30859-0.78516 1.5352-0.78516 0.86719 0 1.6406-0.042968 1.6562 0.78516 0.015624 0.79688-0.79297 0.79297-1.5664 0.79297-1.3477 0-1.3281 0.066407-1.625-0.79297z" fill-rule="evenodd"/>
<text x="0.0" y="117.5" font-size="5.0" font-weight="bold" font-family="Arbeit Regular, Helvetica, Arial-Unicode, Arial, Sans-serif" fill="#000000">Created by Hanif Ainun</text><text x="0.0" y="122.5" font-size="5.0" font-weight="bold" font-family="Arbeit Regular, Helvetica, Arial-Unicode, Arial, Sans-serif" fill="#000000">from Noun Project</text></svg>