<svg xmlns="http://www.w3.org/2000/svg" data-name="Layer 1" viewBox="0 0 95 118.75" x="0px" y="0px"><path d="M12.6,31.779A10.933,10.933,0,1,1,23.35,20.659,10.93,10.93,0,0,1,12.6,31.779ZM41.158,20.246A23.479,23.479,0,0,1,35.4,15.677a30.817,30.817,0,0,0-8.435,19.8h11.58a50.394,50.394,0,0,1,2.614-15.233Zm-28.67,27.34h0L10.613,41.7l-7.821-.2a1.339,1.339,0,0,1,.062-2.678l8.78.225h0a1.336,1.336,0,0,1,1.239.934l1.958,6.139H20.2l.718,5.568H13.352l-.864-4.105ZM25.849,79.964a4.655,4.655,0,0,1,4.416,3.6,1.337,1.337,0,0,1,.167-.01H50.709a1.332,1.332,0,0,1,.166.01,4.655,4.655,0,0,1,4.416-3.6,4.95,4.95,0,0,1,0,9.872,4.655,4.655,0,0,1-4.416-3.6,1.332,1.332,0,0,1-.166.01H30.432a1.337,1.337,0,0,1-.167-.01,4.5,4.5,0,0,1-8.821,0,1.5,1.5,0,0,1-.177.01h-2.26a6.268,6.268,0,0,1-4.52-1.944,6.647,6.647,0,0,1,0-9.211,6.352,6.352,0,0,1,3.375-1.838l-.49-2.37h6.02l.291,2.264h2.7l-.291-2.264h5.946l.115,2.264h2.677l-.1-2.264H43l-.073,2.264h2.676l.084-2.264h6.54l-.208,2.264h2.687l.208-2.264H61.55l-.75,4.953H19.007a3.565,3.565,0,0,0-2.583,1.114,3.97,3.97,0,0,0,0,5.494,3.565,3.565,0,0,0,2.583,1.114h2.26a1.5,1.5,0,0,1,.177.01,4.652,4.652,0,0,1,4.405-3.6Zm.8-33.841c-.041,0-.073,0-.1,0H22.9l.719,5.568H31.1l-.271-5.568Zm7.134,5.568h9.894l.2-5.568H33.5l.281,5.568Zm12.57,0H54l.51-5.568H46.553l-.2,5.568ZM32.16,43.445h6.811c-.114-.866-.208-1.733-.27-2.6-.073-.888-.115-1.781-.146-2.679H26.964c.031.856.1,1.692.208,2.506.114.935.281,1.859.479,2.771h4.384c.042,0,.084,0,.125,0Zm14.1,10.934-.2,5.563h7.175l.511-5.563ZM45.97,62.63l-.188,5.563h6.7l.51-5.563ZM31.9,68.193l-.271-5.563h-6.6l.718,5.563Zm-.4-8.251-.281-5.563H23.964l.719,5.563Zm2.406-5.563.271,5.563h9.206l.2-5.563Zm.406,8.251.271,5.563H43.1l.2-5.563Zm22.37-10.939h7.749l.833-5.568H60.352c-.031,0-.073.005-.114.005s-.084,0-.115-.005H57.2l-.511,5.568Zm-.25,2.688-.51,5.563h7.259l.844-5.563Zm-.76,8.251-.51,5.563h6.78l.843-5.563ZM23.037,68.193l-.708-5.563H15.643l1.167,5.563Zm-1.062-8.251-.708-5.563H13.914l1.167,5.563Zm43.71,1.5c-.011.032-.011.064-.021.1l-.855,5.711c3.792-1.573,7.145-5.053,9.676-9.791.437-.825.853-1.689,1.239-2.585a35.282,35.282,0,0,0-8.654-2.657l-.094.615a1.415,1.415,0,0,1,.01.207,1.369,1.369,0,0,1-.125.588l-1.176,7.816Zm1.78-11.88.688-4.576h0a1.314,1.314,0,0,0,.01-.2,1.335,1.335,0,0,0-1.333-1.339H61.581V38.168H79.234a47.5,47.5,0,0,1-2.531,14.2,38.217,38.217,0,0,0-9.238-2.807Zm-8.571-6.114V38.168H41.242c.031.84.073,1.667.135,2.479.073.96.177,1.893.292,2.8ZM61.581,5.164V22a37.528,37.528,0,0,0,12.393-2.456c.656-.253,1.281-.524,1.9-.81A32.477,32.477,0,0,0,73.5,14.076C70.361,9.01,66.184,5.707,61.581,5.164Zm0,19.523A40.258,40.258,0,0,0,74.953,22.04c.646-.249,1.26-.513,1.875-.793a47.862,47.862,0,0,1,2.416,14.232H61.581V24.687ZM58.894,35.479V24.69a41.126,41.126,0,0,1-13.851-2.6q-.75-.294-1.468-.619a47.555,47.555,0,0,0-2.333,14Zm0-13.478a38.367,38.367,0,0,1-12.872-2.407c-.51-.2-1.021-.416-1.51-.641a33.343,33.343,0,0,1,2.468-4.877c3.135-5.066,7.311-8.369,11.914-8.912V22ZM79.119,53.58a27.3,27.3,0,0,1,5.947,4.409,30.874,30.874,0,0,0,8.446-19.821H81.921a49.941,49.941,0,0,1-2.8,15.412Zm-8.79,13.393a27.191,27.191,0,0,0,6.52-8.257c.447-.84.875-1.714,1.27-2.621a24.3,24.3,0,0,1,5.03,3.769,33.335,33.335,0,0,1-8.092,5.394q-.234.106-.468.21a31.252,31.252,0,0,1-4.26,1.5ZM45.741,8.241a33.944,33.944,0,0,1,3.874-1.509A26.709,26.709,0,0,0,44.7,12.669,37.051,37.051,0,0,0,42.127,17.7a20.568,20.568,0,0,1-4.78-3.87,39.545,39.545,0,0,1,8.394-5.594Zm32.513,9.242a36.173,36.173,0,0,0-2.478-4.814A26.413,26.413,0,0,0,70.86,6.732q1.062.339,2.094.744a35.494,35.494,0,0,1,10.143,6.3,23.519,23.519,0,0,1-4.843,3.705Zm6.78-1.853a26.467,26.467,0,0,1-5.8,4.384,50.112,50.112,0,0,1,2.7,15.465H93.512A30.845,30.845,0,0,0,85.034,15.63ZM8.759,23.248c0,.058.011.116.011.172a3.7,3.7,0,0,0,2.155,3.148l.011.846a1.344,1.344,0,0,0,2.687-.043l-.021-.654a3.706,3.706,0,0,0,2.551-3.55h0a.993.993,0,0,0-.01-.173,3.694,3.694,0,0,0-3.749-3.478,1,1,0,0,1-.719-.287,1,1,0,0,1-.021-1.432.994.994,0,0,1,.625-.3l.063,0V17.49h.021a1.013,1.013,0,0,1,1.02.918v.055a1.344,1.344,0,1,0,2.687,0,.993.993,0,0,0-.01-.173,3.671,3.671,0,0,0-2.406-3.252l-.01-.75a1.339,1.339,0,1,0-2.677.042l.011.756a3.692,3.692,0,0,0-1.261.854,3.655,3.655,0,0,0-1.031,2.625,3.709,3.709,0,0,0,1.125,2.6,3.67,3.67,0,0,0,2.624,1.034,1.019,1.019,0,0,1,.729.287,1,1,0,0,1,.3.631v.055h0v.021a1.006,1.006,0,0,1-.916,1.028H12.5v0h-.021a1.039,1.039,0,0,1-.729-.287,1.008,1.008,0,0,1-.3-.631v-.054a1.344,1.344,0,1,0-2.687,0Z" style="" fill-rule="evenodd"/><text x="0" y="110" fill="#000000" font-size="5px" font-weight="bold" font-family="'Helvetica Neue', Helvetica, Arial-Unicode, Arial, Sans-serif">Created by feri ulan taufiq</text><text x="0" y="115" fill="#000000" font-size="5px" font-weight="bold" font-family="'Helvetica Neue', Helvetica, Arial-Unicode, Arial, Sans-serif">from the Noun Project</text></svg>