<svg xmlns="http://www.w3.org/2000/svg" version="1.1" viewBox="-5.0 -10.0 110.0 135.0">
 <path d="m94.922 73.66-1.5195-0.28125h-0.003906c-0.48047-0.078125-0.86719-0.42969-1-0.89844-0.26953-0.92188-0.64063-1.8164-1.0977-2.6602-0.23828-0.42578-0.21094-0.94922 0.070313-1.3516l0.87109-1.2617-0.003907 0.003907c0.36328-0.50781 0.30469-1.2031-0.13672-1.6406l-2.1016-2.0703c-0.44141-0.4375-1.1289-0.5-1.6406-0.14844l-1.2617 0.87891h0.003906c-0.40234 0.28125-0.92578 0.30859-1.3516 0.070312-0.84375-0.46094-1.7383-0.83594-2.6602-1.1094-0.47266-0.125-0.82422-0.51953-0.89844-1l-0.28125-1.5117c-0.12891-0.58984-0.65625-1.0078-1.2617-1h-2.8984c-0.60547-0.007813-1.1328 0.41016-1.2617 1l-0.26953 1.5117c-0.082031 0.47656-0.42969 0.86719-0.89844 1-0.92578 0.27344-1.8203 0.64453-2.6719 1.1094-0.42188 0.23828-0.94141 0.21094-1.3398-0.070312l-1.3086-0.87891c-0.51172-0.35156-1.1992-0.28906-1.6406 0.14844l-2.0703 2.0703c-0.44141 0.4375-0.5 1.1328-0.14062 1.6406l0.87109 1.2617v-0.003906c0.28125 0.40234 0.30859 0.92578 0.070313 1.3516-0.45312 0.84766-0.82031 1.7383-1.0898 2.6602-0.12891 0.46875-0.51953 0.82031-1 0.89844l-1.5195 0.28125c-0.58984 0.12891-1.0078 0.65625-1 1.2617v2.9219-0.003906c-0.011719 0.60547 0.40625 1.1367 1 1.2695l1.5195 0.26953c0.48047 0.082032 0.87109 0.43359 1 0.90234 0.27734 0.94141 0.65625 1.8555 1.1289 2.7188 0.24609 0.42188 0.21875 0.94531-0.070312 1.3398l-0.87109 1.2695h0.003906c-0.36328 0.50391-0.30078 1.1953 0.13672 1.6289l2.0703 2.0703c0.43359 0.44922 1.1328 0.51562 1.6406 0.15234l1.2695-0.87109c0.39453-0.28516 0.91797-0.31641 1.3398-0.078125 0.85156 0.46094 1.7461 0.83203 2.6719 1.1094 0.46875 0.12891 0.81641 0.51953 0.89844 1l0.26953 1.5117v-0.003906c0.10938 0.61328 0.64062 1.0625 1.2617 1.0625h2.9297c0.62109 0 1.1523-0.44922 1.2617-1.0625l0.28125-1.5117-0.003906 0.003906c0.078125-0.48438 0.42969-0.875 0.90234-1 0.92188-0.27734 1.8125-0.64844 2.6602-1.1094 0.42578-0.23828 0.94922-0.21094 1.3477 0.066406l1.2617 0.87891v0.003907c0.51172 0.33203 1.1914 0.25 1.6094-0.19922l2.0703-2.0703c0.44141-0.4375 0.5-1.1289 0.14063-1.6328l-0.87109-1.2695c-0.25-0.38672-0.26562-0.88672-0.039063-1.2891 0.45703-0.84766 0.82812-1.7461 1.0977-2.6719 0.13281-0.46484 0.52344-0.81641 1-0.89844l1.5195-0.26953h0.003906c0.58984-0.13281 1.0078-0.66406 1-1.2695v-2.9688c0.007813-0.60547-0.41016-1.1328-1-1.2617zm-15.703 11.078c-3.3789 0-6.4297-2.0352-7.7227-5.1602-1.293-3.1211-0.57812-6.7188 1.8125-9.1094s5.9883-3.1055 9.1094-1.8125c3.125 1.293 5.1602 4.3438 5.1602 7.7227 0 4.6172-3.7422 8.3594-8.3594 8.3594zm-71.02-10.207c-1.5625-0.007812-3.0664 0.58594-4.1992 1.6602v-47.941c0.011719-2.3086 1.8906-4.1758 4.1992-4.1719h6.1914c0.21875 0 0.42578 0.089844 0.57812 0.24219 0.15625 0.15234 0.24219 0.36328 0.24219 0.57813v48.812c0 0.45312-0.36719 0.82031-0.82031 0.82031zm55 6.4609v-0.003907c-1.5195-0.27344-2.625-1.6016-2.6211-3.1484v-2.918c0-1.5469 1.1016-2.8711 2.6211-3.1523l1.1406-0.19922c0.26562-0.80078 0.60156-1.5781 1-2.3203l-0.66016-1c-0.86719-1.25-0.73438-2.9414 0.32031-4.0391l2.0703-2.0703c1.0938-1.0898 2.8125-1.2422 4.0781-0.35938l1 0.66016c0.74609-0.39844 1.5234-0.73438 2.3203-1l0.21094-1.1289v-0.003906c0.26953-1.5234 1.5938-2.6328 3.1406-2.6289h2.9297c1.5469 0 2.875 1.1055 3.1484 2.6289l0.19922 1.1289 0.003906 0.003906c0.79688 0.26562 1.5742 0.60156 2.3203 1l1.1797-0.80859v-31.633c0-0.45312-0.36719-0.82031-0.82031-0.82031h-3.8516l-7.5195 13-5.7109 4.4609c-1.0469 0.79297-2.4648 0.88281-3.6016 0.22656-1.1367-0.65234-1.7734-1.9258-1.6172-3.2266l1-7.1484 4.1914-7.2617h-52.543v44.5c-0.003906 1.5078-1.2305 2.7305-2.7383 2.7305h-6.1914c-2.3008 0-4.168 1.8672-4.168 4.168 0 2.3047 1.8672 4.1719 4.168 4.1719h56.223c0.054687-0.10938 0.11719-0.21094 0.1875-0.3125l0.66016-1c-0.39062-0.74609-0.72656-1.5195-1-2.3164zm-1.5-27.801h3.6914c0.42578 0.12109 0.71875 0.51562 0.71875 0.95703 0 0.44531-0.29297 0.83594-0.71875 0.96094h-3.7188c-0.30469 0.089844-0.62891 0.03125-0.88281-0.16016-0.25-0.1875-0.39844-0.48438-0.39844-0.80078 0-0.3125 0.14844-0.60938 0.39844-0.79688 0.25391-0.19141 0.57813-0.25 0.88281-0.16016zm-5.3594-10.953 2.6602-2.6094c0.38281-0.34766 0.96875-0.34766 1.3516 0 0.35547 0.38281 0.35547 0.97656 0 1.3594l-2.6094 2.6016h-0.003907c-0.14453 0.28125-0.41797 0.47656-0.73438 0.52344-0.3125 0.050781-0.63281-0.054687-0.85547-0.28125-0.22656-0.22266-0.33203-0.54297-0.28125-0.85547 0.046874-0.31641 0.24219-0.58984 0.52344-0.73828zm-11.52-7.6602c0.125-0.42578 0.51563-0.71875 0.96094-0.71875 0.44141 0 0.83594 0.29297 0.95703 0.71875v3.6836c-0.12109 0.42578-0.51562 0.71875-0.95703 0.71875-0.44531 0-0.83594-0.29297-0.96094-0.71875zm-13.559 5.0508c0.38281-0.35547 0.97656-0.35547 1.3594 0l2.6094 2.6094c0.27734 0.15234 0.46484 0.42578 0.51172 0.73828 0.042968 0.3125-0.0625 0.62891-0.28516 0.85156-0.22656 0.22266-0.54297 0.32422-0.85547 0.27734s-0.58203-0.23828-0.73047-0.51562l-2.6094-2.5898c-0.36328-0.38672-0.36328-0.98438 0-1.3711zm-1.3633 15.48h-3.6875c-0.42578-0.125-0.72266-0.51562-0.72266-0.96094 0-0.44141 0.29688-0.83594 0.72266-0.95703h3.6875c0.42969 0.12109 0.72266 0.51562 0.72266 0.95703 0 0.44531-0.29297 0.83594-0.72266 0.96094zm5.3281 11-2.6094 2.6094h0.003906c-0.15234 0.27734-0.42578 0.46094-0.73828 0.50391-0.30859 0.046875-0.62109-0.058594-0.84375-0.28125-0.22266-0.22266-0.32812-0.53516-0.28516-0.84766 0.046875-0.30859 0.23047-0.58203 0.50781-0.73438l2.6094-2.6016v0.003907c0.14844-0.28125 0.41797-0.47266 0.73047-0.51953 0.3125-0.046876 0.62891 0.058593 0.85547 0.28125 0.22266 0.22266 0.32812 0.53516 0.28516 0.84766-0.046876 0.31641-0.23438 0.58594-0.51172 0.73828zm18.328-0.78125h0.003906c-0.3125 0.78516-0.46875 1.625-0.45703 2.4727v4.7695c-0.003906 2.1016-1.582 3.8711-3.6719 4.1094l-0.35156 1.6797c-0.21094 1.1562-1.2148 1.9961-2.3867 2h-1.8125c-1.1719-0.003906-2.1758-0.84375-2.3906-2l-0.35156-1.6797h0.003906c-2.0898-0.23828-3.668-2.0078-3.6719-4.1094v-4.8203c0.003906-0.84766-0.15625-1.6836-0.46875-2.4688-0.32422-0.78125-0.80078-1.4883-1.3984-2.082-3.6367-3.7031-4.6953-9.2305-2.6875-14.016 2.0078-4.7891 6.6953-7.9023 11.887-7.9023 5.1914 0 9.875 3.1133 11.883 7.9023 2.0117 4.7852 0.95312 10.312-2.6836 14.016-0.60938 0.59375-1.1016 1.3008-1.4414 2.082zm5.4453 3.3438-2.6094-2.6094v-0.003906c-0.28125-0.14453-0.47656-0.41797-0.52344-0.73438-0.050782-0.3125 0.054687-0.63281 0.28125-0.85547 0.22266-0.22656 0.54297-0.33203 0.85547-0.28125 0.31641 0.046875 0.58984 0.24219 0.73438 0.52344l2.6094 2.6016 0.003906-0.003906c0.35547 0.38672 0.35547 0.97656 0 1.3633-0.38281 0.34766-0.96875 0.34766-1.3516 0zm-2.2383-14.523c0.003906 2.8867-1.1289 5.6602-3.1602 7.7109-1.6133 1.5977-2.4922 3.793-2.4219 6.0625h-4.4414v-9.3516l4.6406-4.6406c0.23047-0.39453 0.16406-0.89453-0.16016-1.2148-0.32812-0.32031-0.82812-0.37891-1.2188-0.14453l-4.25 4.25-4.25-4.25c-0.38281-0.35156-0.96875-0.35156-1.3516 0-0.35547 0.38281-0.35547 0.97656 0 1.3594l4.6406 4.6406v9.3516h-4.4102c0.03125-1.1523-0.17578-2.2969-0.60938-3.3633-0.40625-1.0078-1.0078-1.9258-1.7695-2.6992-2.5898-2.6055-3.7109-6.332-2.9805-9.9375 0.72656-3.6016 3.207-6.6016 6.6055-7.9961 3.4023-1.3945 7.2734-1 10.32 1.0547 3.0508 2.0547 4.8711 5.4961 4.8555 9.168zm-16.383 15.691h10.801v2.6797c-0.003907 1.2109-0.96875 2.1992-2.1797 2.2305h-6.3906c-1.2266-0.011719-2.2188-1.0039-2.2305-2.2305zm3.7109 6.8203h3.3789l-0.26172 1.2617h0.003907c-0.050782 0.24609-0.26953 0.42188-0.51953 0.41797h-1.8125c-0.25391 0.011718-0.47656-0.16797-0.51953-0.41797zm23.07-38.531 6 3.4414-4.6016 3.5508c-0.42969 0.33203-1.0195 0.375-1.4922 0.10156-0.46875-0.27344-0.73047-0.80469-0.65625-1.3438zm0.60938-1.8516 13.309-23 6.6406 3.8281-13.301 23zm20.91-20.855-6.6797-3.8438 2.1992-3.7578c0.53516-0.91016 1.7031-1.2227 2.6211-0.69922l3.3281 1.8789c0.91797 0.53125 1.2305 1.7031 0.70312 2.6211z" fill-rule="evenodd"/>
<text x="0.0" y="117.5" font-size="5.0" font-weight="bold" font-family="Arbeit Regular, Helvetica, Arial-Unicode, Arial, Sans-serif" fill="#000000">Created by Hanbai</text><text x="0.0" y="122.5" font-size="5.0" font-weight="bold" font-family="Arbeit Regular, Helvetica, Arial-Unicode, Arial, Sans-serif" fill="#000000">from Noun Project</text></svg>