<svg xmlns="http://www.w3.org/2000/svg" xmlns:xlink="http://www.w3.org/1999/xlink" version="1.1" x="0px" y="0px" viewBox="0 0 512 640" style="enable-background:new 0 0 512 512;" xml:space="preserve"><path d="M160,160h16v-17.6c0-7.8,2.3-15.5,6.7-22c6.1-9.1,9.4-19.9,9.3-30.9V16h-16v73.6c0,7.8-2.3,15.5-6.7,22  c-6.1,9.1-9.4,19.9-9.3,30.9V160z"/><path d="M128,142.4V200h16v-57.6c0-11-3.2-21.7-9.3-30.9c-4.3-6.5-6.7-14.2-6.7-22V16h-16v73.6c0,11,3.2,21.7,9.3,30.9  C125.7,126.9,128,134.6,128,142.4z"/><rect x="144" y="16" width="16" height="88"/><path d="M32,142.4V224h16v-81.6c0-11-3.2-21.7-9.3-30.9c-4.3-6.5-6.7-14.2-6.7-22V56c0-13.3,10.7-24,24-24s24,10.7,24,24v33.6  c0,7.8-2.3,15.5-6.7,22c-6.1,9.1-9.4,19.9-9.3,30.9V224h16v-81.6c0-7.8,2.3-15.5,6.7-22c6.1-9.1,9.4-19.9,9.3-30.9V56  c0-22.1-17.9-40-40-40S16,33.9,16,56v33.6c0,11,3.2,21.7,9.3,30.9C29.7,126.9,32,134.6,32,142.4z"/><path d="M488,392h-17.8l-1.5-6.1C465,371,454.3,358.7,440,353l-7.6-3c4.9-5.8,7.6-13.2,7.6-20.8V320c0-17.7-14.3-32-32-32  s-32,14.3-32,32v9.2c0,7.6,2.7,15,7.6,20.8l-7.6,3c-14.3,5.7-25,18-28.7,32.9l-1.5,6.1H328c-4.4,0-8,3.6-8,8v96h16v-48h144v48h16  v-96C496,395.6,492.4,392,488,392z M392,320c0-8.8,7.2-16,16-16s16,7.2,16,16v9.2c0,6.1-3.4,11.6-8.8,14.3l-2.7,1.4  c-2.7,1.4-4.4,4.1-4.4,7.1c0-3-1.7-5.8-4.4-7.1l-2.7-1.4c-5.4-2.7-8.9-8.2-8.8-14.3V320z M362.8,389.8c2.5-10,9.6-18.1,19.2-22  l21-8.4c2.9-1.2,4.9-3.9,5-7.1c0-0.1,0-0.2,0-0.3c0,0.1,0,0.2,0,0.3c0.1,3.1,2.1,5.9,5,7.1l21,8.4c9.5,3.8,16.7,12,19.2,22l0.6,2.2  h-91.5L362.8,389.8z M336,432v-24h144v24H336z"/><path d="M56.7,239.3c-0.5,5.5-0.7,11.1-0.7,16.7c-0.1,28.8,6.1,57.2,18.1,83.3l14.5-6.7c-11.1-24-16.7-50.2-16.7-76.7  c0-5.1,0.2-10.3,0.6-15.3L56.7,239.3z"/><path d="M256,440c-23.6,0-47.1-4.5-69-13.4l-6,14.8c39.7,16,83.5,18.9,125,8.2l-4-15.5C287,438.1,271.5,440,256,440z"/><path d="M453.2,289.3c1.8-11,2.8-22.2,2.8-33.3c0.1-28.8-6.1-57.2-18.1-83.3l-14.5,6.7c11.1,24,16.7,50.2,16.7,76.7  c0,10.3-0.8,20.5-2.5,30.7L453.2,289.3z"/><path d="M256,72c20.9,0,41.6,3.5,61.3,10.5l5.3-15.1c-37.5-13.2-78.1-15-116.7-5.1l4,15.5C225,73.9,240.5,72,256,72z"/><path d="M264,144.3V184h-16v-39.7c-24.1,1.7-47,11.2-65.3,27.1l23,23l-11.3,11.3l-23-23C155.5,201,146,223.9,144.3,248H184v16h-39.7  c1.7,24.1,11.2,47,27.1,65.3l23-23l11.3,11.3l-23,23c18.2,15.9,41.2,25.4,65.3,27.1V336h16v31.7c24.1-1.7,47-11.2,65.3-27.1l-23-23  l11.3-11.3l23,23c15.9-18.2,25.4-41.2,27.1-65.3H328v-16h39.7c-1.7-24.1-11.2-47-27.1-65.3l-23,23l-11.3-11.3l23-23  C311,155.5,288.1,146,264,144.3z M264,256c0,2.1-0.8,4.2-2.3,5.7l-40,40l-11.3-11.3l37.7-37.7V200h16V256z"/><path d="M148.7,352H77.6c-11.7,0-21.8,8.5-23.7,20.1L41.2,448H24c-4.4,0-8,3.6-8,8v16c0,13.2,10.8,24,24,24h90.7  c11.5,0,21.5-8.2,23.6-19.6l18-96c2.4-13-6.1-25.6-19.2-28C151.7,352.1,150.2,352,148.7,352z M80,384h56v16H80V384z M80,416h48v16  H80V416z M138.6,473.5c-0.7,3.8-4,6.5-7.9,6.5H40c-4.4,0-8-3.6-8-8v-8h108.4L138.6,473.5z"/><path d="M472,40h-11.7l-13.6-20.4c-1.5-2.2-4-3.6-6.7-3.6h-48c-2.7,0-5.2,1.3-6.7,3.6L371.7,40H360c-13.2,0-24,10.8-24,24v72  c0,13.2,10.8,24,24,24h112c13.2,0,24-10.8,24-24V64C496,50.8,485.2,40,472,40z M416,128c-17.7,0-32-14.3-32-32s14.3-32,32-32  s32,14.3,32,32C448,113.7,433.7,128,416,128z"/><circle cx="416" cy="96" r="16"/><text x="0" y="527" fill="#000000" font-size="5px" font-weight="bold" font-family="'Helvetica Neue', Helvetica, Arial-Unicode, Arial, Sans-serif">Created by WiStudio</text><text x="0" y="532" fill="#000000" font-size="5px" font-weight="bold" font-family="'Helvetica Neue', Helvetica, Arial-Unicode, Arial, Sans-serif">from the Noun Project</text></svg>