<svg xmlns="http://www.w3.org/2000/svg" xmlns:xlink="http://www.w3.org/1999/xlink" version="1.1" x="0px" y="0px" viewBox="0 0 100 125" style="enable-background:new 0 0 100 100;" xml:space="preserve"><g><path d="M14.451,69.416v9.209c-0.425-0.137-0.844-0.289-1.253-0.459c0-3.125,0-6.898,0-7.344   C13.198,69.482,14.451,69.416,14.451,69.416z M7.411,100H30.87V82.809H7.411V100z M74.348,30.99c0.41,0.17,0.828,0.322,1.253,0.459   V22.24c0,0-1.253,0.065-1.253,1.406C74.348,24.09,74.348,27.865,74.348,30.99z M64.41,16.115C64.41,7.214,71.647,0,80.574,0   C89.502,0,96.74,7.214,96.74,16.115c0,4.993-2.279,9.455-5.855,12.411v-5.778c0-3.963-3.854-7.176-7.83-7.174l-4.963-0.002   c-3.975,0-7.828,3.213-7.828,7.176v5.778C66.688,25.57,64.41,21.108,64.41,16.115z M74.484,8.636c0.001,3.353,2.727,6.07,6.09,6.07   c3.361,0,6.088-2.718,6.088-6.07c0-3.352-2.727-6.068-6.088-6.068C77.211,2.568,74.484,5.285,74.484,8.636z M85.549,22.24   c0,0,0,5.127,0,9.209c0.425-0.137,0.844-0.289,1.252-0.459c0-3.115,0.001-6.9,0-7.344C86.801,22.333,85.549,22.24,85.549,22.24z    M25.651,70.822c0-1.313-1.252-1.406-1.252-1.406s0,5.127,0,9.209c0.426-0.137,0.844-0.289,1.253-0.459   C25.651,75.051,25.652,71.266,25.651,70.822z M66.165,40.253c0,4.993-2.278,9.455-5.855,12.411v-5.778   c0-3.963-3.854-7.176-7.829-7.175l-4.963-0.001c-3.976,0-7.828,3.213-7.828,7.176v5.778c-3.576-2.956-5.855-7.418-5.855-12.411   c0-8.9,7.237-16.115,16.165-16.115C58.928,24.138,66.165,31.353,66.165,40.253z M56.088,32.775c0-3.353-2.727-6.069-6.089-6.068   c-3.363,0-6.089,2.716-6.089,6.068c0,3.353,2.727,6.07,6.089,6.07C53.361,38.845,56.088,36.127,56.088,32.775z M56.227,47.785   c0-1.313-1.253-1.406-1.253-1.406s0,5.127,0,9.209c0.425-0.137,0.843-0.289,1.253-0.461C56.227,52.014,56.227,48.227,56.227,47.785   z M68.846,100h23.458V35.773H68.846V100z M43.773,47.785c0,0.443,0,4.219,0,7.342c0.409,0.172,0.828,0.324,1.253,0.461v-9.209   C45.026,46.378,43.773,46.444,43.773,47.785z M35.59,63.291c0,4.994-2.279,9.455-5.855,12.412v-5.779   c0-3.963-3.854-7.176-7.83-7.174l-4.962-0.002c-3.976,0-7.828,3.213-7.828,7.176v5.777c-3.576-2.955-5.855-7.418-5.855-12.41   c0-8.9,7.237-16.116,16.165-16.116S35.59,54.391,35.59,63.291z M25.513,55.813c0-3.352-2.726-6.069-6.088-6.069   c-3.363,0-6.089,2.717-6.089,6.069c0,3.354,2.727,6.07,6.089,6.07C22.787,61.883,25.513,59.166,25.513,55.813z M38.271,100h23.458   V59.566H38.271V100z"/></g><text x="0" y="115" fill="#000000" font-size="5px" font-weight="bold" font-family="'Helvetica Neue', Helvetica, Arial-Unicode, Arial, Sans-serif">Created by b farias</text><text x="0" y="120" fill="#000000" font-size="5px" font-weight="bold" font-family="'Helvetica Neue', Helvetica, Arial-Unicode, Arial, Sans-serif">from the Noun Project</text></svg>