<svg xmlns="http://www.w3.org/2000/svg" xmlns:xlink="http://www.w3.org/1999/xlink" version="1.1" x="0px" y="0px" viewBox="-49 141 512 640" style="enable-background:new -49 141 512 512;" xml:space="preserve"><g><g><polygon points="211.8,217.8 270,217.8 270,179 211.8,179 202.2,179 202.2,242 211.8,242   "/><polygon points="249,401.8 207,259.1 165,401.8 207,401.8   "/><path d="M234.9,460c12.7,0,23-10.3,23-23v-25.4h-2.4c0,0,0,0,0,0s0,0,0,0h-43.6V437    C211.8,449.7,222.2,460,234.9,460z"/><path d="M156.1,437c0,12.7,10.3,23,23,23s23-10.3,23-23v-25.4h-46V437z"/><polygon points="95.6,401.8 151.3,401.8 154.9,401.8 195,265.7 90.8,401.8   "/><path d="M290.6,460c12.7,0,23-10.3,23-23v-25.4h-46V437C267.6,449.7,277.9,460,290.6,460z"/><polygon points="323.2,401.8 219,265.7 259.1,401.8 262.7,401.8 318.4,401.8   "/><polygon points="415.1,401.8 231.6,266.2 335.4,401.8 374.1,401.8   "/><path d="M123.4,460c12.7,0,23-10.3,23-23v-25.4h-46V437C100.4,449.7,110.7,460,123.4,460z"/><path d="M323.3,437c0,12.7,10.3,23,23,23s23-10.3,23-23v-25.4h-46L323.3,437L323.3,437z"/><path d="M379,437c0,12.7,10.3,23,23,23s23-10.3,23-23v-25.4h-46L379,437L379,437z"/><path d="M208.3,546.9c-0.4-1.5-0.8-3.1-1.2-4.6c-0.4,1.5-0.8,3-1.2,4.6c-8.3,30.3-24.3,53.5-46.9,68.1h96.1    C232.6,600.3,216.5,577.2,208.3,546.9z"/><path d="M374.1,454.1c-5.8,9.3-16.1,15.6-27.9,15.6c-11.8,0-22.1-6.2-27.9-15.6c-5.1,8.2-13.7,14.1-23.8,15.3    c-0.8,5.4-2,16.4,0.2,28.1c3.9,21.1,16.3,34.6,36.9,40.1c1.3,0.3,2.3,1.2,3,2.3c0.6,1.1,0.8,2.5,0.4,3.7c-0.1,0.3-8.3,30,5.6,50.8    c7.6,11.4,20.5,18.3,38.5,20.5h16.6V469.1C386.7,467.4,378.9,461.8,374.1,454.1z"/><path d="M332.7,599.8c-12.9-19.5-9.9-44-7.9-54.1c-21.7-7.2-35.3-23.3-39.5-46.7c-2.2-12.2-1.3-23.4-0.4-29.8    c-9.4-1.6-17.4-7.3-22.2-15.1c-5.8,9.3-16.1,15.6-27.9,15.6s-22.1-6.2-27.9-15.6c-5.8,9.3-16.1,15.6-27.9,15.6    c-11.8,0-22.1-6.2-27.9-15.6c-4.8,7.8-12.8,13.4-22.2,15.1c0.9,6.4,1.8,17.6-0.4,29.8c-4.2,23.4-17.8,39.4-39.5,46.7    c2,10.1,5,34.7-7.9,54.1C77.2,606,71.9,611,65.5,615h72.7c29.2-12,48.8-35.7,58.4-70.7c4.1-14.9,5.3-28.7,5.7-38    c-0.2-4.8-0.1-8.5,0-10.7c0-0.9-0.1-1.4-0.1-1.4c-0.2-2.7,1.8-5,4.5-5.2c0.2,0,0.3,0,0.5,0c0.2,0,0.3,0,0.5,0    c2.7,0.2,4.7,2.5,4.5,5.2c0,0,0,0.6-0.1,1.4c0.1,2.1,0.2,5.8,0,10.5c0.3,9.4,1.6,23.4,5.7,38.4c9.6,34.8,29.2,58.5,58.3,70.4h72.5    C342.1,611,336.8,606,332.7,599.8z"/><polygon points="39.9,401.8 78.7,401.8 182.4,266.2 -1.1,401.8   "/><path d="M35,437v-25.4h-46V437c0,12.7,10.3,23,23,23S35,449.7,35,437z"/><path d="M44.7,437c0,12.7,10.3,23,23,23s23-10.3,23-23v-25.4h-46V437z"/><path d="M73.2,594.5c13.9-20.9,5.7-50.5,5.6-50.8c-0.4-1.3-0.2-2.6,0.4-3.7c0.6-1.1,1.7-2,3-2.3    c20.6-5.5,33.1-19,36.9-40.1c2.1-11.7,1-22.7,0.2-28.1c-10-1.3-18.7-7.1-23.8-15.3c-5.8,9.3-16.1,15.6-27.9,15.6    s-22.1-6.2-27.9-15.6c-4.7,7.7-12.6,13.3-21.8,15V615h16.6C52.7,612.8,65.6,605.9,73.2,594.5z"/></g></g><text x="-49" y="668" fill="#000000" font-size="5px" font-weight="bold" font-family="'Helvetica Neue', Helvetica, Arial-Unicode, Arial, Sans-serif">Created by Icon Market</text><text x="-49" y="673" fill="#000000" font-size="5px" font-weight="bold" font-family="'Helvetica Neue', Helvetica, Arial-Unicode, Arial, Sans-serif">from the Noun Project</text></svg>