<svg xmlns="http://www.w3.org/2000/svg" viewBox="0 0 512 640" x="0px" y="0px"><path d="M291.151,304.647c22.352,9.577,38.8,30.813,45.125,58.263,8.13,35.276-1.119,75.235-24.824,110.2a221.946,221.946,0,0,0,90.174-46.9c-15.174-28.338-15.356-55.05-1.116-93.023,6.9-18.4,7.271-34,1.1-46.372-7.526-15.088-22.945-21.41-26.9-22.819H236.886C243.717,274.331,258.906,290.827,291.151,304.647Z"/><path d="M248.336,248l-42.9-59.293a11.81,11.81,0,0,0-18.87,0L143.662,248Z"/><path d="M164.95,191.282l-25.788-34.053a14.528,14.528,0,0,0-22.324,0L48.094,248h75.82Z"/><path d="M304,188.944l-11.578-5.789a8,8,0,0,1,7.156-14.31L304,171.056V160a8,8,0,0,1,16,0v36.955A30.248,30.248,0,0,0,333.41,200a30.711,30.711,0,0,0,12.992-2.849,42.717,42.717,0,0,1-.869-54.836,37.518,37.518,0,0,1-5.253-17.9,7.984,7.984,0,0,1-4.116-4.808C333.334,110.417,323.4,104,312,104s-21.334,6.417-24.164,15.6a8,8,0,0,1-5.57,5.372c-8.957,2.406-14.976,9.227-14.976,16.974a15.7,15.7,0,0,0,3.963,10.254,8,8,0,0,1-.592,11.014A20.142,20.142,0,0,0,264,177.85c0,12.213,11.928,22.15,26.59,22.15A30.248,30.248,0,0,0,304,196.955Z"/><path d="M388.471,200A40.923,40.923,0,0,0,408,195.18v-14.9l-20.438-13.625a8,8,0,1,1,8.876-13.312L408,161.052V144a8,8,0,0,1,16,0v17.052l11.562-7.708a8,8,0,0,1,8.876,13.312L424,180.281v14.9A40.923,40.923,0,0,0,443.529,200C463.64,200,480,186.2,480,169.231a28.178,28.178,0,0,0-9.282-20.478,8,8,0,0,1-.586-11.017,22.4,22.4,0,0,0,5.633-14.659c0-11-8.416-20.662-20.942-24.034a8,8,0,0,1-5.566-5.368C445.324,80.913,431.647,72,416,72s-29.324,8.913-33.257,21.675a8,8,0,0,1-5.566,5.368c-12.526,3.372-20.942,13.03-20.942,24.034a22.4,22.4,0,0,0,5.633,14.659,8,8,0,0,1-.586,11.017A28.178,28.178,0,0,0,352,169.231C352,186.2,368.36,200,388.471,200Z"/><path d="M256,480a227.273,227.273,0,0,0,31.945-2.258c28.693-34.322,40.929-75.706,32.74-111.239-5.166-22.42-18.228-39.6-35.835-47.149C239.838,300.063,223.782,275.3,218.539,264H32.14A224,224,0,0,0,256,480Z"/><path d="M415.826,279.472c8.339,16.543,8.226,36.507-.336,59.337C405,366.8,401.343,388.931,413.848,414.923c.18-.179.364-.351.544-.531A222.4,222.4,0,0,0,479.86,264h-75.5A57.562,57.562,0,0,1,415.826,279.472Z"/><path d="M48,88a15.81,15.81,0,0,0,8.061-2.192,8,8,0,0,1,9.655,1.146,31.97,31.97,0,0,0,44.568,0,8,8,0,0,1,9.655-1.146A15.81,15.81,0,0,0,128,88a16,16,0,0,0,0-32,15.176,15.176,0,0,0-2.121.141,8,8,0,0,1-8.47-4.764,32.006,32.006,0,0,0-58.818,0,8,8,0,0,1-8.47,4.764A15.176,15.176,0,0,0,48,56a16,16,0,0,0,0,32Z"/><path d="M256,64a8,8,0,0,1-8-8,12.077,12.077,0,0,0-1.312-4.72C245.8,49.658,244.3,48,240,48a8,8,0,0,1,0-16c7.01,0,12.241,2.274,16,5.621C259.759,34.274,264.99,32,272,32a8,8,0,0,1,0,16c-4.3,0-5.8,1.658-6.688,3.28a12.032,12.032,0,0,0-1.312,4.8A8,8,0,0,1,256,64Z"/><path d="M200,128a8,8,0,0,1-8-8,12.077,12.077,0,0,0-1.312-4.72C189.8,113.658,188.3,112,184,112a8,8,0,0,1,0-16c7.01,0,12.241,2.274,16,5.621C203.759,98.274,208.99,96,216,96a8,8,0,0,1,0,16c-4.3,0-5.795,1.658-6.688,3.28a12.032,12.032,0,0,0-1.312,4.8A8,8,0,0,1,200,128Z"/><path d="M320,248V214.074a44.625,44.625,0,0,1-8-3.223,44.625,44.625,0,0,1-8,3.223V248Z"/><path d="M416,209.073a54.748,54.748,0,0,1-8,3.572V248h16V212.645A54.748,54.748,0,0,1,416,209.073Z"/><text x="0" y="527" fill="#000000" font-size="5px" font-weight="bold" font-family="'Helvetica Neue', Helvetica, Arial-Unicode, Arial, Sans-serif">Created by iconixar</text><text x="0" y="532" fill="#000000" font-size="5px" font-weight="bold" font-family="'Helvetica Neue', Helvetica, Arial-Unicode, Arial, Sans-serif">from the Noun Project</text></svg>