<svg xmlns="http://www.w3.org/2000/svg" data-name="Layer 1" viewBox="0 0 100 125" x="0px" y="0px"><defs><style>.cls-1{fill-rule:evenodd;}</style></defs><path className="cls-1" d="M79.29,69.359,77.3,65.351,75.337,69.31a1.12,1.12,0,0,1-.867.663l-4.427.653,3.165,3.1a1.118,1.118,0,0,1,.355,1.017l-.748,4.419,3.963-2.073a1.117,1.117,0,0,1,1.041,0l3.969,2.076-.748-4.419h0a1.122,1.122,0,0,1,.32-.983l3.2-3.133-4.427-.653h0a1.122,1.122,0,0,1-.843-.613Zm10.318-9.651a17.405,17.405,0,1,1-12.307-5.1,17.349,17.349,0,0,1,12.307,5.1ZM61.4,60.477a19.739,19.739,0,0,1,6.166-5.531V53.407h-7.07v7.07Zm-9.36,9.62h-7.07v7.07h7.07V70.1Zm-8.193-2.245h9.316a1.123,1.123,0,0,1,1.123,1.123V78.29a1.123,1.123,0,0,1-1.123,1.123H43.842a1.123,1.123,0,0,1-1.123-1.123V68.975a1.123,1.123,0,0,1,1.123-1.123ZM36.509,70.1h-7.07v7.07h7.07V70.1Zm-8.193-2.245h9.316a1.123,1.123,0,0,1,1.123,1.123V78.29a1.123,1.123,0,0,1-1.123,1.123H28.316a1.123,1.123,0,0,1-1.123-1.123V68.975a1.123,1.123,0,0,1,1.123-1.123ZM20.983,70.1h-7.07v7.07h7.07V70.1ZM12.79,67.852h9.316a1.123,1.123,0,0,1,1.123,1.123V78.29a1.123,1.123,0,0,1-1.123,1.123H12.79a1.123,1.123,0,0,1-1.123-1.123V68.975a1.123,1.123,0,0,1,1.123-1.123ZM52.035,53.407h-7.07v7.07h7.07v-7.07Zm-8.193-2.246h9.316a1.123,1.123,0,0,1,1.123,1.123V61.6a1.123,1.123,0,0,1-1.123,1.123H43.842A1.123,1.123,0,0,1,42.719,61.6V52.284a1.123,1.123,0,0,1,1.123-1.123Zm-7.333,2.246h-7.07v7.07h7.07v-7.07Zm-8.193-2.246h9.316a1.123,1.123,0,0,1,1.123,1.123V61.6a1.123,1.123,0,0,1-1.123,1.123H28.316A1.123,1.123,0,0,1,27.193,61.6V52.284a1.123,1.123,0,0,1,1.123-1.123Zm-7.333,2.246h-7.07v7.07h7.07v-7.07ZM12.79,51.161h9.316a1.123,1.123,0,0,1,1.123,1.123V61.6a1.123,1.123,0,0,1-1.123,1.123H12.79A1.123,1.123,0,0,1,11.667,61.6V52.284a1.123,1.123,0,0,1,1.123-1.123ZM67.561,36.717h-7.07v7.069h7.07V36.717Zm-8.193-2.246h9.316a1.122,1.122,0,0,1,1.122,1.123v9.315a1.122,1.122,0,0,1-1.122,1.123H59.368a1.123,1.123,0,0,1-1.123-1.123V35.594a1.123,1.123,0,0,1,1.123-1.123Zm-7.333,2.246h-7.07v7.069h7.07V36.717Zm-8.193-2.246h9.316a1.123,1.123,0,0,1,1.123,1.123v9.315a1.123,1.123,0,0,1-1.123,1.123H43.842a1.123,1.123,0,0,1-1.123-1.123V35.594a1.123,1.123,0,0,1,1.123-1.123Zm-7.333,2.246h-7.07v7.069h7.07V36.717Zm-8.193-2.246h9.316a1.123,1.123,0,0,1,1.123,1.123v9.315a1.123,1.123,0,0,1-1.123,1.123H28.316a1.123,1.123,0,0,1-1.123-1.123V35.594a1.123,1.123,0,0,1,1.123-1.123Zm-7.333,2.246h-7.07v7.069h7.07V36.717ZM12.79,34.471h9.316a1.123,1.123,0,0,1,1.123,1.123v9.315a1.123,1.123,0,0,1-1.123,1.123H12.79a1.123,1.123,0,0,1-1.123-1.123V35.594a1.123,1.123,0,0,1,1.123-1.123Zm29.529-23.23A2.241,2.241,0,0,0,38.5,12.823v7.246a2.241,2.241,0,0,0,4.482,0V12.823a2.233,2.233,0,0,0-.659-1.582ZM76.179,52.4a19.526,19.526,0,0,0-6.373,1.449V52.284a1.122,1.122,0,0,0-1.122-1.123H59.368a1.123,1.123,0,0,0-1.123,1.123V61.6a1.123,1.123,0,0,0,1.123,1.123h.616a19.66,19.66,0,0,0,2.287,21.948H5.3V29.213H76.179V52.4Zm-9.86-41.156A2.241,2.241,0,0,0,62.5,12.823v7.246a2.242,2.242,0,0,0,4.483,0V12.823a2.234,2.234,0,0,0-.66-1.582Zm-48,0A2.241,2.241,0,0,0,14.5,12.823v7.246a2.242,2.242,0,0,0,4.483,0V12.823a2.234,2.234,0,0,0-.66-1.582Zm2.9,6.328H36.25v2.5a4.487,4.487,0,0,0,8.974,0v-2.5H60.251v2.5a4.487,4.487,0,0,0,8.973,0v-2.5h6.955v9.4H5.3v-9.4H12.25v2.5a4.487,4.487,0,0,0,8.973,0v-2.5ZM78.306,62.335l2.731,5.505,6.083.9A1.121,1.121,0,0,1,87.7,70.69l-4.349,4.257,1.027,6.067a1.12,1.12,0,0,1-1.687,1.141L77.3,79.338l-5.45,2.851a1.117,1.117,0,0,1-1.62-1.175h0l1.028-6.067-4.4-4.3a1.119,1.119,0,0,1,.623-1.906v0l6.083-.9L76.3,62.335a1.12,1.12,0,0,1,2.009,0Z"/><text x="0" y="115" fill="#000000" font-size="5px" font-weight="bold" font-family="'Helvetica Neue', Helvetica, Arial-Unicode, Arial, Sans-serif">Created by uyun</text><text x="0" y="120" fill="#000000" font-size="5px" font-weight="bold" font-family="'Helvetica Neue', Helvetica, Arial-Unicode, Arial, Sans-serif">from the Noun Project</text></svg>