<svg xmlns="http://www.w3.org/2000/svg" version="1.1" viewBox="-5.0 -10.0 110.0 135.0">
 <path d="m95.832 24.996v41.668l-25-12.5v-16.668zm-25-10.414c0 8.0547-6.5273 14.582-14.582 14.582s-14.582-6.5273-14.582-14.582c0-8.0547 6.5273-14.582 14.582-14.582s14.582 6.5273 14.582 14.582zm-52.082-14.582c-8.0547 0-14.582 6.5273-14.582 14.582 0 8.0547 6.5273 14.582 14.582 14.582s14.582-6.5273 14.582-14.582c0-8.0547-6.5273-14.582-14.582-14.582zm37.5 37.5c-7.7422 0-14.602-3.8594-18.75-9.7539-4.1484 5.8945-11.008 9.7539-18.75 9.7539-2.1719 0-4.2578-0.32422-6.25-0.88672v19.637c0 3.4531 2.8008 6.25 6.25 6.25h37.5c3.4492 0 6.25-2.7969 6.25-6.25v-19.637c-1.9922 0.5625-4.0781 0.88672-6.25 0.88672zm-12.988 33.332h-11.523l-23.285 23.273 5.8906 5.8906 18.988-18.984v18.973h8.332v-18.973l18.988 18.984 5.8906-5.8906-23.285-23.273z"/>
<text x="0.0" y="117.5" font-size="5.0" font-weight="bold" font-family="Arbeit Regular, Helvetica, Arial-Unicode, Arial, Sans-serif" fill="#000000">Created by jin seung lee</text><text x="0.0" y="122.5" font-size="5.0" font-weight="bold" font-family="Arbeit Regular, Helvetica, Arial-Unicode, Arial, Sans-serif" fill="#000000">from Noun Project</text></svg>