<svg xmlns="http://www.w3.org/2000/svg" viewBox="0 0 64 80" x="0px" y="0px"><defs><style>
      .cls-1 {
        stroke-width: 0px;
      }
    </style></defs><path class="cls-1" d="M62,42c0-1.87-1.3-3.44-3.04-3.87-.46-6.76-6.09-12.13-12.96-12.13h-10c-.93,0-1.84.1-2.72.29l.64-6.45c1.2-.39,2.08-1.51,2.08-2.84v-2c0-1.65-1.35-3-3-3h-7.56l2.25-6h4.31c.55,0,1-.45,1-1s-.45-1-1-1h-5c-.42,0-.79.26-.94.65l-2.75,7.35H5c-1.65,0-3,1.35-3,3v2c0,1.33.88,2.45,2.08,2.84l3.57,35.66c.25,2.56,2.39,4.5,4.97,4.5h12.76c.73,0,1.45-.17,2.11-.47.79.3,1.64.47,2.51.47h22c3.86,0,7-3.14,7-7v-1.14c.68-.18,1.31-.52,1.83-1.03.75-.76,1.17-1.76,1.17-2.83,0-1.2-.54-2.27-1.38-3,.84-.73,1.38-1.8,1.38-3ZM36,28h10c5.73,0,10.45,4.4,10.96,10h-31.92c.51-5.6,5.23-10,10.96-10ZM5,18c-.55,0-1-.45-1-1v-2c0-.55.45-1,1-1h28c.55,0,1,.45,1,1v2c0,.55-.45,1-1,1H5ZM22,48c0-.53.21-1.03.59-1.41s.88-.59,1.41-.59h2.65l5,4h-7.65c-1.1,0-2-.9-2-2ZM57,53c0,2.76-2.24,5-5,5h-22c-.74,0-1.47-.16-2.12-.48-1.75-.82-2.88-2.59-2.88-4.52v-1h9.15l2.23,1.78c.18.15.4.22.62.22s.44-.07.62-.22l3.38-2.7,3.38,2.7c.18.15.4.22.62.22s.44-.07.62-.22l2.23-1.78h9.15v1ZM59.41,49.41c-.38.38-.88.59-1.41.59h-7.65l5-4h2.65c1.1,0,2,.9,2,2,0,.53-.21,1.03-.59,1.41ZM58,44H24c-1.1,0-2-.9-2-2s.9-2,2-2h34c1.1,0,2,.9,2,2s-.9,2-2,2Z"/><text x="0" y="79" fill="#000000" font-size="5px" font-weight="bold" font-family="'Helvetica Neue', Helvetica, Arial-Unicode, Arial, Sans-serif">Created by Satria Arnata</text><text x="0" y="84" fill="#000000" font-size="5px" font-weight="bold" font-family="'Helvetica Neue', Helvetica, Arial-Unicode, Arial, Sans-serif">from the Noun Project</text></svg>