<svg xmlns="http://www.w3.org/2000/svg" version="1.1" viewBox="-5.0 -10.0 110.0 135.0">
 <g>
  <path d="m28.078 54.188 4.0469-0.90625c0.046875 0.20312 0.10938 0.39062 0.17188 0.57812l-2.5781 2.2031c-0.15625 0.125-0.20312 0.34375-0.125 0.53125l1 2.3281c0.14062 0.34375 0.60938 0.375 0.8125 0.0625l2.2188-3.5c0.17188 0.10938 0.34375 0.20312 0.53125 0.28125l-0.26562 3.375c-0.015625 0.20312 0.10938 0.39062 0.29688 0.46875l2.3594 0.9375c0.34375 0.14062 0.70312-0.17188 0.625-0.53125l-0.90625-4.0469c0.20312-0.046875 0.39062-0.09375 0.57812-0.17188l2.2031 2.5781c0.125 0.15625 0.34375 0.20312 0.53125 0.125l2.3281-1c0.34375-0.14062 0.375-0.60938 0.0625-0.8125l-3.5-2.2188c0.10938-0.17188 0.20312-0.34375 0.28125-0.53125l3.375 0.26562c0.20312 0.015625 0.39062-0.10938 0.46875-0.29688l0.9375-2.3594c0.14062-0.34375-0.17188-0.70312-0.53125-0.625l-4.0469 0.90625c-0.046875-0.20312-0.10938-0.39062-0.17188-0.57812l2.5781-2.2031c0.15625-0.125 0.20312-0.34375 0.125-0.53125l-1-2.3281c-0.14062-0.34375-0.60938-0.375-0.8125-0.0625l-2.2188 3.5c-0.17188-0.10938-0.34375-0.20312-0.53125-0.28125l0.26562-3.375c0.015625-0.20312-0.10938-0.39062-0.29688-0.46875l-2.3594-0.9375c-0.34375-0.14062-0.70312 0.17188-0.625 0.53125l0.90625 4.0469c-0.20312 0.046875-0.39062 0.10938-0.57812 0.17188l-2.2031-2.5781c-0.125-0.15625-0.34375-0.20312-0.53125-0.125l-2.3281 1c-0.34375 0.14062-0.375 0.60938-0.0625 0.8125l3.5 2.2188c-0.10938 0.17188-0.20312 0.34375-0.28125 0.53125l-3.375-0.26562c-0.20312-0.015625-0.39062 0.10938-0.46875 0.29688l-0.9375 2.3594c-0.14062 0.34375 0.17188 0.70312 0.53125 0.625z"/>
  <path d="m14.25 41.312h2.6562v5.3281h-2.6562v4.0781h2.6562v5.3281h-2.6562v4.0781h2.6562v8h-2.6562v3.4844h2.6562v5.3281h-2.6562v8.7031h44.156v-47.969h-44.156zm36.734 23.812h2.6562v16.828h-2.6562zm-2.5312 16.828h-2.6562v-16.828h2.6562zm-23.547-36.672c0-1.8594 1.5156-3.3594 3.3594-3.3594h14.547c1.8594 0 3.3594 1.5156 3.3594 3.3594v14.547c0 1.8594-1.5156 3.3594-3.3594 3.3594h-14.547c-1.8594 0-3.3594-1.5156-3.3594-3.3594zm0 22.5h14.484v2.6562h-14.484zm0 5.2969h14.484v2.6562h-14.484zm0 5.2969h14.484v2.6562h-14.484z"/>
  <path d="m42.969 27.828h3.0469c0.15625 0 0.28125 0.125 0.28125 0.28125v6.5h3.125v-6.5c0-1.875-1.5312-3.4062-3.4062-3.4062h-3.0469v-3.4375h6.5781c1.8125 0 3.2969 1.4688 3.2969 3.2969v10.047h3.125v-10.047c0-3.5312-2.875-6.4219-6.4219-6.4219h-6.5781v-3.75h-28.719v17.25h28.719z"/>
  <path d="m62.141 14.391v41.781h18.922v-41.781zm14.844 33.719h-10.766v-2.5h10.766zm0-7.7188h-10.766v-2.5h10.766zm0-7.7188h-10.766v-2.5h10.766zm0-7.7188h-10.766v-2.5h10.766z"/>
  <path d="m98.438 41.062v-37.938c0-0.85938-0.70312-1.5625-1.5625-1.5625h-93.75c-0.85938 0-1.5625 0.70312-1.5625 1.5625v93.75c0 0.85938 0.70312 1.5625 1.5625 1.5625h93.75c0.85938 0 1.5625-0.70312 1.5625-1.5625v-6.3281c0-0.6875-0.45312-1.2969-1.1094-1.5l-3.2969-1.0156c-0.65625-0.20312-1.1094-0.8125-1.1094-1.5v-5.0938c0-0.5 0.25-0.98438 0.65625-1.2656l4.2031-2.9844c0.40625-0.29688 0.65625-0.76562 0.65625-1.2656v-20.234c0-0.5-0.25-0.98438-0.65625-1.2656l-4.2031-2.9844c-0.40625-0.29688-0.65625-0.76562-0.65625-1.2656v-5.0938c0-0.6875 0.45312-1.2969 1.1094-1.5l3.2969-1.0156c0.65625-0.20312 1.1094-0.8125 1.1094-1.5zm-14.016 49.609h-73.531c-0.85938 0-1.5625-0.70312-1.5625-1.5625v-78.219c0-0.85938 0.70312-1.5625 1.5625-1.5625h73.531c0.85938 0 1.5625 0.70312 1.5625 1.5625v78.219c0 0.85938-0.70312 1.5625-1.5625 1.5625z"/>
 </g>
<text x="0.0" y="117.5" font-size="5.0" font-weight="bold" font-family="Arbeit Regular, Helvetica, Arial-Unicode, Arial, Sans-serif" fill="#000000">Created by SHAHAREA</text><text x="0.0" y="122.5" font-size="5.0" font-weight="bold" font-family="Arbeit Regular, Helvetica, Arial-Unicode, Arial, Sans-serif" fill="#000000">from Noun Project</text></svg>