<svg xmlns="http://www.w3.org/2000/svg" version="1.1" viewBox="-5.0 -10.0 110.0 135.0">
 <path d="m8.3164 66.367-5.5781 4.957c-0.0625 0.050781-0.09375 0.125-0.10547 0.21094 0 0.085938 0.019532 0.15625 0.074219 0.22266l19.801 22.262c0.050782 0.0625 0.125 0.09375 0.21094 0.10547 0.085938 0 0.15625-0.019531 0.22266-0.074219l5.5781-4.957c0.0625-0.050781 0.09375-0.125 0.10547-0.21094 0-0.085937-0.019531-0.15625-0.074219-0.22266l-19.801-22.262c-0.050781-0.0625-0.125-0.09375-0.21094-0.10547-0.085937 0-0.15625 0.019531-0.22266 0.074219zm20.516 19.105-16.809-18.906 15.633-14.504 0.0625-0.0625c4.5781-4.8086 15.59-2.6719 24.926-0.875 3.0938 0.60156 6.0195 1.168 8.5352 1.4414 0.88281 0.13672 1.6523 0.57031 2.2227 1.1914 0.55859 0.62109 0.91406 1.4297 0.96875 2.3281 0.042968 0.89453-0.22266 1.7383-0.71484 2.4102-0.47266 0.64062-1.1484 1.1484-1.957 1.3789l-11.938 0.11719c-0.28516 0-0.54688 0.10547-0.74609 0.27344-0.68359 0.58984-1.1914 1.2227-1.4727 1.8516-0.24219 0.52734-0.33594 1.0625-0.28516 1.5898 0.0625 0.55859 0.28516 1.0742 0.67188 1.5352 0.35937 0.42187 0.86328 0.78906 1.5273 1.0859 0.17969 0.085937 0.35938 0.11719 0.53516 0.10547l12.086 0.16797c1.6094 0.019532 3.1055-0.19141 4.5156-0.66406 1.4219-0.46484 2.7578-1.1797 4.043-2.1484l19.156-14.496c2.6641-0.83203 4.875-1.0938 6.3047-0.78906 0.52734 0.11719 0.91406 0.29297 1.1172 0.53516 0.15625 0.19922 0.21094 0.49609 0.14844 0.90625-0.15625 0.95703-0.91406 2.2734-2.3984 3.957l-23.641 23.23c-1.0938 1.0742-2.293 1.8828-3.6016 2.4297-1.3164 0.54688-2.7266 0.84375-4.2617 0.875l-24.496 0.47266c-1.6953 0.03125-3.2734 0.32812-4.7461 0.89453-1.4727 0.57031-2.8438 1.4102-4.1172 2.5156l-1.2617 1.1055zm55.82-55.441c-2.0117-2.0117-4.7891-3.2539-7.8633-3.2539-3.0742 0-5.8516 1.2422-7.8633 3.2539s-3.2539 4.7891-3.2539 7.8633 1.2422 5.8516 3.2539 7.8633c2.0117 2.0117 4.7891 3.2539 7.8633 3.2539 3.0742 0 5.8516-1.2422 7.8633-3.2539 2.0117-2.0117 3.2539-4.7891 3.2539-7.8633s-1.2422-5.8516-3.2539-7.8633zm-6.1562 1.9688v3.0195c0 0.64062 0.52734 1.168 1.168 1.168h3.0312v3.3984h-3.0312c-0.64062 0-1.168 0.52734-1.168 1.168v3.0312h-3.3984v-3.0312c0-0.64062-0.52734-1.168-1.168-1.168h-3.0195v-3.3984h3.0195c0.64062 0 1.168-0.52734 1.168-1.168v-3.0195zm-4.2617-2.3281h5.125c0.39844 0 0.76953 0.16797 1.043 0.42969 0.26172 0.26172 0.42969 0.63281 0.42969 1.043v2.7266h2.7266c0.39844 0 0.76953 0.16797 1.043 0.42969 0.27344 0.26172 0.42969 0.63281 0.42969 1.043v5.125c0 0.39844-0.16797 0.76953-0.42969 1.0312-0.26172 0.26172-0.63281 0.42969-1.043 0.42969h-2.7266v2.7266c0 0.39844-0.16797 0.76953-0.42969 1.0312-0.26172 0.26172-0.63281 0.42969-1.043 0.42969h-5.125c-0.39844 0-0.76953-0.16797-1.0312-0.42969-0.26172-0.27344-0.42969-0.63281-0.42969-1.043v-2.7266h-2.7266c-0.39844 0-0.76953-0.16797-1.0312-0.42969-0.26172-0.27344-0.42969-0.63281-0.42969-1.043v-5.125c0-0.39844 0.16797-0.76953 0.42969-1.043 0.042969-0.042969 0.085937-0.085938 0.13672-0.11719 0.25391-0.19922 0.55859-0.31641 0.90625-0.31641h2.7266v-2.7266c0-0.39844 0.16797-0.76953 0.42969-1.043 0.042968-0.042969 0.085937-0.085938 0.13672-0.11719 0.25391-0.19922 0.55859-0.31641 0.90625-0.31641zm-39.105 0.86328c-0.64062 0-1.168-0.52734-1.168-1.168 0-0.64063 0.52734-1.168 1.168-1.168h6.9688l2.5352-5.0859c0.28516-0.57031 0.98047-0.80078 1.5586-0.51562 0.21094 0.10547 0.37891 0.26172 0.48438 0.45312 0 0 3.3984 5.8945 3.3984 5.8945h1.5469l3.6406-6.3164c0.32812-0.55859 1.0312-0.74609 1.5898-0.42188 0.27344 0.15625 0.46484 0.42188 0.53516 0.70703l2.6328 9.8086h4.3281c0.68359-1.6406 1.6719-3.1172 2.9141-4.3594 2.4297-2.4297 5.7891-3.9375 9.5039-3.9375s7.0742 1.5039 9.5039 3.9375c0.085938 0.085938 0.15625 0.15625 0.23047 0.24219 2.293-5.2422 2.5156-9.7461 1.3359-13.336-0.85156-2.6094-2.4531-4.7383-4.5352-6.3047-2.1055-1.5898-4.6953-2.6016-7.5039-2.9688-4.957-0.63281-10.57 0.75781-15.398 4.6211-0.42188 0.34766-1.0312 0.35937-1.4727 0-6.1992-4.9805-13.695-5.8633-19.422-3.6094-2.3477 0.92578-4.3906 2.3789-5.9062 4.2852s-2.5039 4.2734-2.7578 7.043c-0.68359 7.4414 3.8633 17.695 17.664 29.621 1.5352 0.27344 3.0625 0.57031 4.5469 0.85156 3.0859 0.60156 5.9805 1.1562 8.3984 1.4219h0.050781c1.4219 0.22266 2.6719 0.92578 3.5898 1.9375 0.074218 0.085937 0.14844 0.15625 0.21094 0.24219 0.84375-0.64062 1.6094-1.2422 2.3281-1.8086 0.60938-0.48437 1.2109-0.98047 1.8086-1.4844-0.78906-0.51563-1.5156-1.1055-2.1797-1.7695-2.4297-2.4297-3.9375-5.8008-3.9375-9.5039 0-0.96875 0.10547-1.9141 0.29297-2.8203h-4.4961c-0.51563 0-0.98828-0.34766-1.125-0.86328l-2.1367-7.957-2.5352 4.3906c-0.19141 0.39062-0.58984 0.65234-1.0508 0.65234h-2.8945c-0.39844 0-0.78906-0.21094-1-0.57812l-2.6641-4.6094-1.8516 3.6953c-0.16797 0.42969-0.58984 0.74609-1.0859 0.74609h-7.6836z" fill-rule="evenodd"/>
<text x="0.0" y="117.5" font-size="5.0" font-weight="bold" font-family="Arbeit Regular, Helvetica, Arial-Unicode, Arial, Sans-serif" fill="#000000">Created by Siti Solekah</text><text x="0.0" y="122.5" font-size="5.0" font-weight="bold" font-family="Arbeit Regular, Helvetica, Arial-Unicode, Arial, Sans-serif" fill="#000000">from Noun Project</text></svg>