<svg xmlns="http://www.w3.org/2000/svg" version="1.1" viewBox="-5.0 -10.0 110.0 135.0">
 <path d="m69.715 66.066c-2.4375 2.2188-2.3867 6.2852-0.03125 8.6562 0.078125 0.078125 0.066406 0.20703-0.023438 0.27344-4.2188 3.0352-8.1289 4.8672-12.922 6.8945-2.2344 0.94531-4.457 1.8867-6.6562 3.0625-0.054687 0.03125-0.11719 0.03125-0.17188 0-3.8906-2.0859-7.8438-3.4141-11.754-5.3359-2.8086-1.3789-5.4336-2.9062-7.8203-4.6211-0.089844-0.066406-0.10156-0.19531-0.023438-0.27344 2.3555-2.3711 2.4062-6.4375-0.03125-8.6562-0.058594-0.050781-0.14062-0.0625-0.20703-0.023437-2.0391 1.1172-3.2578 3.4805-3.0508 5.8906 0.015624 0.16406-0.17969 0.25781-0.30078 0.14844-2.6445-2.4062-4.875-5.1406-6.5742-8.3086-0.050782-0.097657-0.003907-0.21875 0.10156-0.25391 3.2383-1.1172 5.3438-4.793 4.1172-7.8906-0.03125-0.074218-0.10156-0.12109-0.18359-0.11328-2.3633 0.20703-4.5859 1.8789-5.4922 4.1953-0.0625 0.15625-0.28125 0.15234-0.33594-0.003907-1.2188-3.4531-1.8047-7.1914-1.8672-10.949 0-0.10156 0.078125-0.18359 0.17969-0.18359 3.4688-0.007813 6.8359-2.832 6.7891-6.1562 0-0.082031-0.058593-0.15234-0.14062-0.17188-2.1133-0.48828-4.6055 0.23828-6.3008 1.8633-0.12109 0.11719-0.32031 0.015625-0.30469-0.14844 0.38672-3.4453 1.2422-6.7383 2.4961-9.9375 0.035157-0.09375 0.14062-0.13672 0.23438-0.10156 3.2227 1.2539 7.4766-0.16016 8.8203-3.1992 0.035156-0.078125 0.011719-0.17188-0.0625-0.21875-1.8633-1.3047-4.5938-1.4492-6.8594-0.44922-0.15625 0.066406-0.30859-0.09375-0.23438-0.24609 1.5117-2.9688 3.3477-5.8789 5.4414-8.7617 0.085937-0.11719 0.10547-0.20703 0.18359-0.25 1.0742-0.53125 2.0352-1.3789 2.7266-2.4844 1.0898-1.7539 1.2227-3.7422 0.52734-5.3086-0.03125-0.074218-0.10547-0.11719-0.1875-0.10547-3.2344 0.39844-5.9023 3.5-5.6328 6.7656 0.003907 0.042969-0.007812 0.082032-0.035156 0.12109-2.1289 2.9609-4 5.9609-5.5469 9.0391-0.070312 0.14062-0.27344 0.12891-0.32812-0.019531-0.82422-2.25-2.8672-3.9141-5.1172-4.2422-0.078125-0.011719-0.15234 0.027344-0.1875 0.10156-0.73438 1.5508-0.65234 3.543 0.39453 5.3203 0.78125 1.3281 1.9609 2.3008 3.2578 2.8164 0.089844 0.035157 0.13672 0.14062 0.10156 0.23438-1.4297 3.6562-2.3828 7.4258-2.75 11.371-0.015625 0.15625-0.21094 0.21875-0.3125 0.10156-1.6758-1.8945-4.3789-2.8008-6.6875-2.2656-0.082031 0.019531-0.13672 0.089843-0.14062 0.17187-0.042969 3.3203 3.3203 6.1484 6.7891 6.1562 0.097657 0 0.17969 0.078126 0.17969 0.17578 0.058594 3.9102 0.65625 7.8242 1.8828 11.445 0.050782 0.15234-0.10547 0.28906-0.24609 0.21875-2.1797-1.0352-4.793-0.98438-6.6602 0.16406-0.074218 0.046875-0.10547 0.13281-0.074218 0.21484 1.1484 3.1289 5.3281 4.7734 8.625 3.6875 0.085937-0.027343 0.17578 0.007813 0.21484 0.089844 1.7734 3.4336 4.125 6.4336 6.9258 9.0664 0.12109 0.11328 0.039062 0.3125-0.125 0.3125-2.3789-0.042968-4.6992 1-5.8711 2.7852-0.046875 0.074219-0.039063 0.16797 0.027344 0.23047 2.4492 2.3477 7.0352 2.25 9.5547-0.13672 0.0625-0.058594 0.16016-0.066407 0.23047-0.015625 2.6484 1.957 5.5742 3.6797 8.7109 5.2188 3.3359 1.6406 6.6797 2.8398 9.9766 4.4336 0.125 0.0625 0.13672 0.23437 0.019531 0.3125l-2.4102 1.5938c-0.60547 0.42969-0.75391 1.2656-0.32422 1.875 0.42969 0.60937 1.2695 0.75391 1.875 0.32812 1.2578-0.88672 2.4844-1.6758 3.793-2.4375 0.058594-0.035156 0.125-0.035156 0.17969 0 1.3047 0.76172 2.5312 1.5508 3.793 2.4375 0.60938 0.42969 1.4492 0.28125 1.875-0.32812 0.4375-0.62109 0.26172-1.4883-0.32812-1.8789l-2.4062-1.5898c-0.11719-0.078126-0.10547-0.25 0.019531-0.3125 3.2969-1.5938 6.6367-2.793 9.9766-4.4336 3.1328-1.5391 6.0586-3.2617 8.7109-5.2188 0.070313-0.050782 0.16797-0.046875 0.23047 0.015625 2.5195 2.3906 7.1055 2.4844 9.5547 0.13672 0.0625-0.0625 0.074219-0.15625 0.027343-0.23047-1.168-1.7852-3.4922-2.8281-5.8711-2.7852-0.16406 0.003907-0.24609-0.19922-0.125-0.3125 2.7969-2.6289 5.1484-5.6289 6.9258-9.0664 0.039062-0.078125 0.13281-0.11719 0.21484-0.089844 3.2969 1.0859 7.4766-0.55859 8.625-3.6875 0.03125-0.082031 0-0.17187-0.074219-0.21484-1.8672-1.1484-4.4844-1.1953-6.6602-0.16406-0.14453 0.066406-0.29688-0.070312-0.24609-0.21875 1.2266-3.6211 1.8242-7.5352 1.8828-11.445 0-0.097656 0.082031-0.17578 0.17969-0.17578 3.4688-0.007812 6.8359-2.832 6.7891-6.1562 0-0.082031-0.058594-0.15234-0.14063-0.17187-2.3086-0.53516-5.0117 0.37109-6.6875 2.2656-0.10547 0.11719-0.30078 0.054688-0.3125-0.10156-0.37109-3.9492-1.3203-7.7188-2.75-11.371-0.035156-0.09375 0.007813-0.19531 0.10156-0.23438 1.2969-0.51562 2.4766-1.4883 3.2578-2.8164 1.0469-1.7773 1.1289-3.7695 0.39453-5.3203-0.035157-0.074218-0.10938-0.11328-0.1875-0.10156-2.2461 0.32812-4.2891 1.9922-5.1172 4.2422-0.054687 0.14844-0.25781 0.16016-0.32812 0.019531-1.543-3.082-3.4141-6.082-5.5469-9.0391-0.027343-0.035156-0.035156-0.074218-0.035156-0.12109 0.27344-3.2656-2.3984-6.3672-5.6328-6.7656-0.078124-0.011719-0.15234 0.03125-0.1875 0.10547-0.69531 1.5664-0.5625 3.5547 0.52734 5.3086 1.2148 1.9531 2.6992 2.3555 2.8047 2.5625 0.03125 0.058594 0.066406 0.11719 0.10547 0.17188 2.0938 2.8828 3.9297 5.7891 5.4414 8.7617 0.078125 0.15234-0.078125 0.3125-0.23438 0.24609-2.2656-1.0039-4.9961-0.85547-6.8594 0.44922-0.070313 0.050782-0.097657 0.14062-0.0625 0.21875 1.3477 3.0391 5.5977 4.4531 8.8203 3.1992 0.09375-0.035156 0.19531 0.011719 0.23438 0.10156 1.2539 3.2031 2.1133 6.4922 2.4961 9.9375 0.019531 0.16797-0.18359 0.26562-0.30469 0.14844-1.6953-1.6289-4.1914-2.3555-6.3008-1.8633-0.082031 0.019531-0.13672 0.089844-0.14062 0.17188-0.042968 3.3203 3.3203 6.1445 6.7891 6.1562 0.10156 0 0.17969 0.082031 0.17969 0.18359-0.0625 3.7578-0.64844 7.4961-1.8672 10.949-0.054688 0.15625-0.27734 0.16016-0.33594 0.003907-0.90625-2.3164-3.1289-3.9883-5.4922-4.1953-0.082032-0.007813-0.15234 0.039063-0.18359 0.11328-1.2266 3.0977 0.87891 6.7734 4.1172 7.8906 0.10547 0.035157 0.15234 0.15625 0.10156 0.25391-1.6992 3.1641-3.9297 5.8984-6.5742 8.3086-0.12109 0.10938-0.3125 0.015625-0.30078-0.14844 0.20703-2.4102-1.0117-4.7695-3.0508-5.8906-0.0625-0.039063-0.14453-0.03125-0.20312 0.023437zm-17.199-3.3008v5.918c0 0.51172 0.30469 0.94922 0.78516 1.1289 0.56641 0.21094 0.97656 0.75781 0.97656 1.3945v2.5117c0 0.81641-0.66797 1.4844-1.4844 1.4844h-5.5859c-0.81641 0-1.4844-0.66797-1.4844-1.4844v-2.5117c0-0.63672 0.40625-1.1836 0.97656-1.3945 0.48047-0.17578 0.78516-0.61328 0.78516-1.1289v-5.918c0-0.10547 0.085937-0.18359 0.1875-0.17969 1.6406 0.085937 3.0117 0.085937 4.6562 0 0.10156-0.003907 0.1875 0.074218 0.1875 0.17969zm-3.6875-2.832c-7.6328-0.25391-14.375-6.1523-13.945-13.453 0.11328-1.9531 0.55469-3.957 1.2266-5.9648 0.039063-0.11719 0.17969-0.16016 0.27734-0.085937l4.0742 3.0664c0.058593 0.042968 0.085937 0.11719 0.066406 0.1875-0.26953 1.0586-0.44922 2.0977-0.50781 3.1016-0.19141 3.2227 2.0859 5.7031 4.8984 7 0.12109 0.054688 0.25391-0.03125 0.25391-0.16406l0.003906-38.477c0-0.042969 0.011719-0.078125 0.039063-0.11328 1.3789-1.7383 3.1797-4.3594 4.6797-5.8477 1.4062 1.2344 3.5742 4.2617 4.8867 5.8477 0.027344 0.035156 0.042969 0.070312 0.042969 0.11328v38.477c0 0.13281 0.13672 0.21875 0.25391 0.16406 2.8125-1.3008 5.0898-3.7773 4.8984-7-0.058593-1.0039-0.23437-2.043-0.50781-3.1016-0.019531-0.070313 0.007812-0.14453 0.066406-0.1875l4.0742-3.0664c0.097656-0.074219 0.23828-0.03125 0.27734 0.085937 0.67188 2.0078 1.1094 4.0117 1.2266 5.9648 0.42969 7.3008-6.3086 13.195-13.945 13.453-0.10156 0.003906-0.1875-0.078125-0.1875-0.17969l0.003906-44.199-1.0664-5.0234-0.90625 4.9883v44.234c0.003906 0.10156-0.082031 0.18359-0.18359 0.17969z" fill-rule="evenodd"/>
<text x="0.0" y="117.5" font-size="5.0" font-weight="bold" font-family="Arbeit Regular, Helvetica, Arial-Unicode, Arial, Sans-serif" fill="#000000">Created by gravisio</text><text x="0.0" y="122.5" font-size="5.0" font-weight="bold" font-family="Arbeit Regular, Helvetica, Arial-Unicode, Arial, Sans-serif" fill="#000000">from Noun Project</text></svg>