<svg xmlns="http://www.w3.org/2000/svg" version="1.1" viewBox="-5.0 -10.0 110.0 135.0">
 <g>
  <path d="m96.887 35.133c0-6.0312-4.9062-10.938-10.938-10.938h-31.25c-13.543 0.375-14.84 19.512-1.5625 21.75v28.375c-13.27 2.2383-11.992 21.371 1.5625 21.75h31.25c13.539-0.375 14.844-19.508 1.5625-21.75v-28.375c5.2969-0.75 9.375-5.3125 9.375-10.812zm-9.3711 42.344c9.082 2.0078 7.8516 15.273-1.5625 15.469h-31.25c-9.3984-0.19141-10.656-13.457-1.5625-15.469 3.0117-0.82812 6.2891 1.293 6.25 4.5312 0.10938 3.9297-4.9102 6.1836-7.7812 3.5156-0.65625-0.57813-1.6406-0.51563-2.2188 0.14062-1.7539 2.6289 3.3867 4.2148 5.3125 4.1562h31.25c1.9062 0 3.7344-0.6875 5.1719-1.9531 1.5078-1.3867-0.52344-3.6797-2.0781-2.3438-2.8789 2.668-7.8867 0.41406-7.7812-3.5156-0.046875-3.2383 3.2422-5.3633 6.25-4.5312zm-23.441-0.15625v-34.375c0.25-8.2539 12.246-8.2695 12.5 0v34.375c-0.25 8.25-12.246 8.2695-12.5 0zm21.875-34.375c-6.1875-0.16406-6.1719-9.207 0-9.375 1.125 0.003907 2.2422 0.42969 3.0938 1.1719 0.65625 0.57812 1.6406 0.51562 2.2188-0.14063 1.7578-2.625-3.3867-4.207-5.3125-4.1562h-31.25c-1.9258-0.074218-7.082 1.5781-5.3125 4.1562 1.3398 1.4297 2.4453-0.35547 3.75-0.75 2.9609-1.1406 6.3047 1.25 6.25 4.4062 0 2.5938-2.1094 4.6875-4.6875 4.6875-10.289-0.32422-10.387-15.25 0-15.625h31.25c10.375 0.37109 10.301 15.297 0 15.625z"/>
  <path d="m40.637 89.82h-12.5v-6.25h12.5v1.5625c0-1.6367 0.29688-3.2109 0.82422-4.6875h-5.5117v-6.25h9.9453c1.2188-0.98437 2.6094-1.7656 4.1172-2.3008v-0.82422h-6.25v-6.25h6.25v-6.1992l-9.4062-14.973c-2.6602-4.5273-9.7773-4.5352-12.438 0-4.6055 7.332-19.562 31.145-23.906 38.047-3.168 4.6367 0.61328 11.449 6.2188 11.25h32.535c-1.5-2.2344-2.3789-4.9219-2.3789-7.8125zm0-18.75h-12.5v-6.25h12.5zm7.625-9.375h-12.312v-6.25h8.375zm-39.531 18.75 3.9375-6.25h4.5312v6.25zm16.281 9.375h-12.5v-6.25h12.5zm0-18.75h-10.391l3.9375-6.25h6.4531zm5.7969-25.75c1.5391-2.6172 5.6172-2.6172 7.1562 0 0 0 4.3906 7 4.3906 7h-15.938z"/>
  <path d="m24.855 22.633c-1.7695-8.2734-13.547-8.2656-15.312 0-8.3398 0.070313-8.5312 12.215-0.15625 12.496h15.625c8.3633-0.25781 8.1953-12.488-0.15625-12.496zm0.15625 9.375h-15.625c-4.1172-0.10547-4.125-6.1406 0-6.25 0.80859-0.003906 1.7656 0.64453 2.5195-0.007812 0.48438-0.35156 0.72266-0.96875 0.60547-1.5547 0-2.5859 2.1016-4.6875 4.6875-4.6875 2.5859 0 4.6875 2.1016 4.6875 4.6328-0.11328 0.60547 0.10156 1.2461 0.60547 1.6094 0.75 0.64844 1.7109 0.003906 2.5195 0.007812 4.1172 0.10547 4.125 6.1445 0 6.25z"/>
  <path d="m35.949 22.633h15.625c8.3672-0.26172 8.1875-12.484-0.15625-12.496-1.7695-8.2734-13.547-8.2656-15.312 0-8.3555 0.066406-8.5156 12.223-0.15625 12.496zm0-9.375c0.80859-0.003906 1.7656 0.64453 2.5195-0.007812 0.48438-0.35156 0.72266-0.96875 0.60547-1.5547 0.1875-6.1797 9.1523-6.1875 9.375-0.054687-0.27734 1.168 0.9375 2.2656 2.0664 1.8203 0.375-0.13672 0.72266-0.20313 1.0586-0.20313 4.1172 0.10547 4.125 6.1406 0 6.25h-15.625c-4.1172-0.10547-4.125-6.1406 0-6.25z"/>
 </g>
<text x="0.0" y="117.5" font-size="5.0" font-weight="bold" font-family="Arbeit Regular, Helvetica, Arial-Unicode, Arial, Sans-serif" fill="#000000">Created by LUTFI GANI AL ACHMAD</text><text x="0.0" y="122.5" font-size="5.0" font-weight="bold" font-family="Arbeit Regular, Helvetica, Arial-Unicode, Arial, Sans-serif" fill="#000000">from Noun Project</text></svg>