<svg xmlns="http://www.w3.org/2000/svg" version="1.1" viewBox="-5.0 -10.0 110.0 135.0">
 <g>
  <path d="m84.453 39.062h15.547c-0.34375-5.9141-2.6211-11.309-6.2109-15.562-5.7188 1.1367-9 6.6172-9.3359 15.562z"/>
  <path d="m93.789 57.75c3.5898-4.25 5.8672-9.6484 6.2109-15.562h-15.547c0.33594 8.9453 3.6172 14.426 9.3359 15.562z"/>
  <path d="m53.18 23.5c-3.5898 4.25-5.8672 9.6484-6.2109 15.562h15.547c-0.33594-8.9453-3.6172-14.426-9.3359-15.562z"/>
  <path d="m23.438 73.438c0 6.25-9.375 6.25-9.375 0s9.375-6.25 9.375 0"/>
  <path d="m42.188 73.438c0 6.25-9.375 6.25-9.375 0s9.375-6.25 9.375 0"/>
  <path d="m84.699 54.977c-2.0586-3.1836-3.1875-7.4844-3.375-12.789h-6.2812l-0.046875 24.953c6.2695-0.35156 11.961-2.8789 16.324-6.8359-2.707-0.95703-4.9688-2.7656-6.625-5.3281z"/>
  <path d="m62.27 26.273c2.0586 3.1836 3.1875 7.4844 3.375 12.789h6.2344l-0.003906-25c-6.2344 0.375-11.887 2.9453-16.23 6.8828 2.707 0.95703 4.9688 2.7656 6.625 5.3281z"/>
  <path d="m81.328 39.062c0.18359-5.3047 1.3125-9.6055 3.375-12.789 1.6562-2.5625 3.9219-4.3672 6.625-5.3281-4.3672-3.9609-10.055-6.5352-16.324-6.8906l0.046875 25.008h6.2812z"/>
  <path d="m42.188 45.312c-6.25 0-7.8125 3.125-10.938 3.125h-6.25c-3.125 0-4.6875-3.125-10.938-3.125-9.375 0-14.062 4.6875-14.062 15.625 0 17.188 0 25 6.25 25 3.3398 0 5.6719-4.0156 7.8984-7.7578-1.9414-1.4219-3.2109-3.7188-3.2109-6.3047 0-4.3086 3.5039-7.8125 7.8125-7.8125s7.8125 3.5039 7.8125 7.8125h3.125c0-4.3086 3.5039-7.8125 7.8125-7.8125s7.8125 3.5039 7.8125 7.8125c0 2.5859-1.2656 4.8828-3.2109 6.3047 2.2266 3.7383 4.5547 7.7578 7.8984 7.7578 6.25 0 6.25-7.8125 6.25-25 0-10.938-4.6875-15.625-14.062-15.625zm-26.562 14.062h-1.5625v1.5625c0 0.86328-0.69922 1.5625-1.5625 1.5625s-1.5625-0.69922-1.5625-1.5625v-1.5625h-1.5625c-0.86328 0-1.5625-0.69922-1.5625-1.5625s0.69922-1.5625 1.5625-1.5625h1.5625v-1.5625c0-0.86328 0.69922-1.5625 1.5625-1.5625s1.5625 0.69922 1.5625 1.5625v1.5625h1.5625c0.86328 0 1.5625 0.69922 1.5625 1.5625s-0.69922 1.5625-1.5625 1.5625zm14.062 3.125h-3.125c-0.86328 0-1.5625-0.69922-1.5625-1.5625s0.69922-1.5625 1.5625-1.5625h3.125c0.86328 0 1.5625 0.69922 1.5625 1.5625s-0.69922 1.5625-1.5625 1.5625zm17.188-3.125h-1.5625v1.5625c0 0.86328-0.69922 1.5625-1.5625 1.5625s-1.5625-0.69922-1.5625-1.5625v-1.5625h-1.5625c-0.86328 0-1.5625-0.69922-1.5625-1.5625s0.69922-1.5625 1.5625-1.5625h1.5625v-1.5625c0-0.86328 0.69922-1.5625 1.5625-1.5625s1.5625 0.69922 1.5625 1.5625v1.5625h1.5625c0.86328 0 1.5625 0.69922 1.5625 1.5625s-0.69922 1.5625-1.5625 1.5625z"/>
  <path d="m46.969 42.188c0.011719 0.21484 0.027344 0.42969 0.046875 0.64062 6.2891 1.2656 10.156 5.2266 11.562 11.828 2.375-2.6719 3.7266-6.8984 3.9375-12.473h-15.547z"/>
  <path d="m62.27 54.977c-0.89062 1.3789-1.9609 2.5391-3.1797 3.4648 0.054687 0.80469 0.085937 1.6328 0.085937 2.4961v2.0703c3.7031 2.375 8.0391 3.8516 12.695 4.1289v-24.949h-6.2344c-0.18359 5.3047-1.3125 9.6055-3.375 12.789z"/>
 </g>
<text x="0.0" y="117.5" font-size="5.0" font-weight="bold" font-family="Arbeit Regular, Helvetica, Arial-Unicode, Arial, Sans-serif" fill="#000000">Created by Edy Subiyanto</text><text x="0.0" y="122.5" font-size="5.0" font-weight="bold" font-family="Arbeit Regular, Helvetica, Arial-Unicode, Arial, Sans-serif" fill="#000000">from Noun Project</text></svg>