<svg xmlns="http://www.w3.org/2000/svg" version="1.1" viewBox="-5.0 -10.0 110.0 135.0">
 <path d="m62.5 21.875v-9.0938c0.11328-2.332 2.0352-4.1602 4.3711-4.1602 2.332 0 4.2539 1.8281 4.3672 4.1602v9.0938c0.058594 1.1953-0.375 2.3633-1.1992 3.2305-0.82812 0.86719-1.9727 1.3594-3.168 1.3594-1.1992 0-2.3438-0.49219-3.168-1.3594-0.82812-0.86719-1.2617-2.0352-1.2031-3.2305zm18.168-7.0117h-7.293v0.65625c0.55859 0 1.0977 0.22656 1.4883 0.625 2.0195 2.0703 3.1445 4.8516 3.125 7.7422-0.027343 4.6992-3.0156 8.8711-7.457 10.414h20.832v-8.7812c0-2.8398-1.1367-5.5625-3.1562-7.5625-2.0195-2.0039-4.75-3.1133-7.5938-3.0938zm-58.793 2.7422c-2.5352 2.5938-3.2695 6.457-1.8594 9.8047 1.4062 3.3438 4.6836 5.5195 8.3125 5.5195s6.9062-2.1758 8.3125-5.5195c1.4102-3.3477 0.67578-7.2109-1.8594-9.8047v4.2695c0.070312 1.7578-0.57812 3.4648-1.7969 4.7344-1.2148 1.2656-2.8984 1.9844-4.6562 1.9844s-3.4414-0.71875-4.6562-1.9844c-1.2188-1.2695-1.8672-2.9766-1.7969-4.7344zm6.457 8.6445c1.168 0.007812 2.2891-0.44922 3.1133-1.2695 0.82813-0.82031 1.293-1.9414 1.293-3.1055v-9.0938c-0.11328-2.332-2.0352-4.1602-4.3672-4.1602-2.3359 0-4.2578 1.8281-4.3711 4.1602v9.0938c0.003906 2.4141 1.9609 4.3711 4.375 4.375zm29.426-2.3633h0.003907c-0.019531 3.0078 1.4609 5.8281 3.9492 7.5195 2.4922 1.6914 5.6602 2.0273 8.4492 0.90234 2.7891-1.1289 4.8359-3.5742 5.4492-6.5195 0.61719-2.9453-0.27734-6.0039-2.3789-8.1523v4.2383c0.23438 1.8398-0.33203 3.6914-1.5586 5.0859-1.2266 1.3945-2.9922 2.1914-4.8477 2.1914s-3.6211-0.79688-4.8477-2.1914c-1.2266-1.3945-1.7969-3.2461-1.5586-5.0859v-4.2695c-1.6641 1.668-2.6055 3.9258-2.6172 6.2812zm-18.332 0c-0.027343 4.6992-3.0156 8.8711-7.457 10.414h31.219c-3.5664-1.2422-6.2539-4.2188-7.1289-7.8945-0.87109-3.6758 0.1875-7.5469 2.8164-10.262 0.40625-0.41016 0.96484-0.63672 1.543-0.625v-0.65625h-25.594v0.65625c0.55859 0 1.0977 0.22656 1.4883 0.625 2.0312 2.0664 3.1641 4.8477 3.1562 7.7422zm-22.199 0h0.003907c-0.011719-2.8906 1.1094-5.668 3.125-7.7422 0.39844-0.40625 0.94922-0.63281 1.5195-0.625v-0.65625h-2.4883c-5.8828 0.007813-10.652 4.7734-10.656 10.656v8.8555h16.008c-4.4688-1.5469-7.4648-5.7578-7.4688-10.488zm56.555 55.551c0.66797-16.594-4.0508-19.469-4.1055-19.5h-0.125c-0.17969 0.011719-0.35938 0.03125-0.53906 0.0625 0.85547 2.2188 2.5195 8.418-0.25 18.238 1.6992 0.28125 3.375 0.67969 5.0195 1.1992zm-40.344-23.738c-1.8477 0-3.5156 1.1133-4.2266 2.8203-0.70703 1.7109-0.31641 3.6758 0.99219 4.9844s3.2773 1.6992 4.9844 0.99219c1.707-0.70703 2.8242-2.375 2.8242-4.2266-0.007813-2.5234-2.0508-4.5664-4.5742-4.5703zm7.1055 28.676c-3.5938-2.1562-15.105-7.6992-31.676-2.6055h-0.003907c0.82422 5.625 5.6406 9.7969 11.324 9.8047h13.438c1.8398-2.8086 4.1836-5.25 6.918-7.1992zm23.543-27.676h-0.003907c-2.332 1.1016-3.9922 3.2617-4.457 5.8008 2.5977-2.6641 6.0664-4.3086 9.7695-4.6367 3.375-0.39453 7.6367 1.2188 10.324 2.457v0.003907c-1.5352-2.1094-3.6211-3.75-6.0312-4.7422-0.53516-0.19922-0.8125-0.79297-0.61328-1.332 0.76953-2.082 3.8438-3.707 6.1445-4.6367-6.625-2.082-9.8945 2.75-10.043 2.9805-0.15625 0.24609-0.41016 0.41797-0.69531 0.46875-0.29297 0.042969-0.58984-0.03125-0.82422-0.20703-1.9023-1.7227-4.4336-2.5781-6.9883-2.3672-1.4453 0.21875-2.8086 0.79297-3.9688 1.6797 2.7578 0.16406 5.4023 1.1523 7.5938 2.8438 0.25781 0.22656 0.38672 0.56641 0.34766 0.90625-0.042969 0.34375-0.25 0.64453-0.55859 0.80078zm-1.918 23.07c-10.793 0-20.738 4.582-26.043 11.812h43.688c2.3672 0.015625 4.6797-0.71484 6.6133-2.082-5.582-6.0742-14.551-9.7305-24.258-9.7305zm29.102-43.312v43.668c-0.003906 2.9922-1.1758 5.8633-3.2695 8-3.3711-3.5781-7.5352-6.3164-12.156-7.9883 0.5625-11.895-1.5195-17.488-3.2305-20.051v-0.003907c3.0234 0.69922 5.9297 1.8281 8.6367 3.3438 0.35938 0.21094 0.80859 0.1875 1.1445-0.058593 0.33594-0.24609 0.49219-0.66797 0.39844-1.0742-1.043-4.5312-5.207-7.125-7.2383-8.1562 1.375-1.457 4.7188-2.8242 6.832-3.4258v-0.003907c0.41016-0.11328 0.71094-0.46875 0.75391-0.89453s-0.17969-0.83594-0.55859-1.0312c-7.8555-4.168-12.75-0.082031-14.469 1.8125-2.1953-1.6758-4.9453-2.457-7.6953-2.1758-2.8359 0.46875-5.3945 1.9805-7.1797 4.2383-0.25 0.33203-0.27734 0.78516-0.070312 1.1445 0.21094 0.36719 0.62109 0.57031 1.0391 0.51172 2.5938-0.32812 5.2227 0.17578 7.5117 1.4375-5.4805 3.8945-4.168 10.418-4.0938 10.418 0.097656 0.4375 0.46094 0.76172 0.90625 0.8125h0.11328c0.40625-0.007813 0.77344-0.24609 0.9375-0.61719 1.4766-2.957 4.1641-5.125 7.3672-5.9453 0.625 1.5117 2.6055 7.5195-0.26172 17.48v-0.003907c-1.5-0.16797-3.0117-0.25781-4.5195-0.25781-6.9492-0.046875-13.773 1.8281-19.719 5.4258-2.7617-1.8125-15.023-8.9883-33.719-3.418v-43.188zm-51.188 17.18c0.19531 0.19141 0.45703 0.30078 0.73047 0.30078 0.27734 0 0.54297-0.10547 0.73828-0.30078l2.0859-2.0859c0.40625-0.40625 0.40625-1.0703 0-1.4766-0.41016-0.41016-1.0703-0.41016-1.4805 0l-2.082 2.082c-0.19531 0.19531-0.30469 0.46484-0.30469 0.74219 0.003907 0.27734 0.11328 0.54297 0.3125 0.73828zm-7.6875-3.793c0 0.57422 0.46875 1.043 1.043 1.043s1.043-0.46875 1.043-1.043v-2.9688c0-0.57422-0.46875-1.043-1.043-1.043s-1.043 0.46875-1.043 1.043zm-9.1562 1.6992 2.082 2.082h0.003907c0.19141 0.19141 0.45312 0.30078 0.72656 0.30078 0.27734 0.003907 0.54297-0.10547 0.74219-0.30078 0.19531-0.19531 0.30859-0.46094 0.30859-0.73828 0-0.27734-0.11328-0.54688-0.30859-0.74219l-2.082-2.082h-0.003907c-0.40625-0.40234-1.0625-0.40234-1.4688 0-0.19531 0.19531-0.30859 0.46094-0.30859 0.73828 0 0.27734 0.11328 0.54688 0.30859 0.74219zm-0.23047 9.7695h0.003907c0.57422 0 1.0391-0.46484 1.0391-1.043 0-0.57422-0.46484-1.0391-1.0391-1.0391h-2.9609c-0.57422 0-1.0391 0.46484-1.0391 1.0391 0 0.57812 0.46484 1.043 1.0391 1.043zm3.793 5.5938c-0.40625-0.40234-1.0625-0.40234-1.4688 0l-2.082 2.082c-0.40234 0.40625-0.40234 1.0625 0 1.4688 0.40625 0.40625 1.0625 0.40625 1.4688 0l2.082-2.082c0.40625-0.40625 0.40625-1.0625 0-1.4688zm7.6758 3.793h0.003907c0-0.57812-0.46875-1.043-1.043-1.043s-1.043 0.46484-1.043 1.043v2.957c0 0.57422 0.46875 1.043 1.043 1.043s1.043-0.46875 1.043-1.043zm5.6133-10.418h0.003906c0-2.6914-1.6211-5.1211-4.1094-6.1484-2.4883-1.0312-5.3516-0.46094-7.2539 1.4414-1.9023 1.9023-2.4727 4.7656-1.4414 7.2539 1.0273 2.4883 3.457 4.1094 6.1484 4.1094 3.6797-0.003906 6.6562-2.9883 6.6562-6.668zm3.5508 8.7305-2.082-2.082 0.003906-0.003907c-0.41016-0.40234-1.0703-0.40234-1.4727 0.007813-0.40625 0.40625-0.40625 1.0664 0.003906 1.4727l2.082 2.082c0.40625 0.41016 1.0664 0.41016 1.4766 0.007813 0.40625-0.40625 0.41016-1.0664 0.003906-1.4766zm4.2773-8.7422c0-0.27344-0.10938-0.53906-0.30469-0.73438-0.19531-0.19531-0.46094-0.30469-0.73828-0.30469h-3c-0.57422 0-1.043 0.46484-1.043 1.0391 0 0.57812 0.46875 1.043 1.043 1.043h3c0.27734 0 0.54297-0.10938 0.73828-0.30469 0.19531-0.19531 0.30469-0.46094 0.30469-0.73828z"/>
<text x="0.0" y="117.5" font-size="5.0" font-weight="bold" font-family="Arbeit Regular, Helvetica, Arial-Unicode, Arial, Sans-serif" fill="#000000">Created by Tama Gendis</text><text x="0.0" y="122.5" font-size="5.0" font-weight="bold" font-family="Arbeit Regular, Helvetica, Arial-Unicode, Arial, Sans-serif" fill="#000000">from Noun Project</text></svg>