<svg xmlns="http://www.w3.org/2000/svg" version="1.1" viewBox="-5.0 -10.0 110.0 135.0">
 <g>
  <path d="m18.75 46.875h-9.375c-0.86328 0-1.5625 0.69922-1.5625 1.5625v50c0 0.86328 0.69922 1.5625 1.5625 1.5625h10.938v-51.562c0-0.86328-0.69922-1.5625-1.5625-1.5625z"/>
  <path d="m34.375 81.25h3.125v3.125h-3.125z"/>
  <path d="m67.188 93.75h6.25v6.25h-6.25z"/>
  <path d="m51.562 93.75h6.25v6.25h-6.25z"/>
  <path d="m46.875 81.25h3.125v3.125h-3.125z"/>
  <path d="m35.938 93.75h6.25v6.25h-6.25z"/>
  <path d="m71.875 81.25h3.125v3.125h-3.125z"/>
  <path d="m59.375 81.25h3.125v3.125h-3.125z"/>
  <path d="m88.215 50.172c-0.51953-0.26562-1.1484-0.22266-1.625 0.11719l-19.406 13.859v-12.586c0-0.58594-0.32812-1.1211-0.84766-1.3906-0.51953-0.26562-1.1484-0.22266-1.625 0.11719l-19.406 13.859v-12.586c0-0.58594-0.32813-1.1211-0.84766-1.3906-0.51953-0.26562-1.1484-0.22266-1.625 0.11719l-19.406 13.859v35.848h9.375v-7.8125c0-0.86328 0.69922-1.5625 1.5625-1.5625h9.375c0.86328 0 1.5625 0.69922 1.5625 1.5625v7.8125h3.125v-7.8125c0-0.86328 0.69922-1.5625 1.5625-1.5625h9.375c0.86328 0 1.5625 0.69922 1.5625 1.5625v7.8125h3.125v-7.8125c0-0.86328 0.69922-1.5625 1.5625-1.5625h9.375c0.86328 0 1.5625 0.69922 1.5625 1.5625v7.8125h10.938c0.86328 0 1.5625-0.69922 1.5625-1.5625v-46.875c0-0.58594-0.32812-1.1211-0.84766-1.3906zm-47.59 35.766c0 0.86328-0.69922 1.5625-1.5625 1.5625h-6.25c-0.86328 0-1.5625-0.69922-1.5625-1.5625v-6.25c0-0.86328 0.69922-1.5625 1.5625-1.5625h6.25c0.86328 0 1.5625 0.69922 1.5625 1.5625zm12.5 0c0 0.86328-0.69922 1.5625-1.5625 1.5625h-6.25c-0.86328 0-1.5625-0.69922-1.5625-1.5625v-6.25c0-0.86328 0.69922-1.5625 1.5625-1.5625h6.25c0.86328 0 1.5625 0.69922 1.5625 1.5625zm12.5 0c0 0.86328-0.69922 1.5625-1.5625 1.5625h-6.25c-0.86328 0-1.5625-0.69922-1.5625-1.5625v-6.25c0-0.86328 0.69922-1.5625 1.5625-1.5625h6.25c0.86328 0 1.5625 0.69922 1.5625 1.5625zm12.5 0c0 0.86328-0.69922 1.5625-1.5625 1.5625h-6.25c-0.86328 0-1.5625-0.69922-1.5625-1.5625v-6.25c0-0.86328 0.69922-1.5625 1.5625-1.5625h6.25c0.86328 0 1.5625 0.69922 1.5625 1.5625z"/>
  <path d="m37.5 12.5c2.4766 0 3.6562 1.1797 5.1445 2.668 1.5938 1.5938 3.582 3.582 7.3555 3.582 1.4062 0 2.7695-0.30859 4.0156-0.90234 2.0625 2.5469 5.1367 4.0273 8.4844 4.0273 0.80469 0 1.6055-0.085938 2.3828-0.26172 2.3047 2.1641 5.375 3.3867 8.5547 3.3867 6.8906 0 12.5-5.6094 12.5-12.5s-5.6094-12.5-12.5-12.5c-1.9766 0-3.9141 0.46484-5.6641 1.3516-1.6094-0.89062-3.4141-1.3516-5.2734-1.3516-2.3789 0-4.6484 0.75781-6.5234 2.1562-1.6719-1.3828-3.7812-2.1562-5.9766-2.1562-3 0-4.9219 1.1133-6.4688 2.0078-1.0742 0.625-1.9219 1.1172-2.9062 1.1172h-9.375c-3.7812 0-6.8828 1.8906-8.9688 5.4609-1.4922 2.5625-1.9297 5.1094-1.9492 5.2188-0.09375 0.57812 0.14062 1.1641 0.61328 1.5156 0.47266 0.35156 1.1016 0.40234 1.625 0.14063 1.6484-0.82422 6.418-2.9609 8.6758-2.9609z"/>
  <path d="m18.75 18.75h-9.375c-0.86328 0-1.5625 0.69922-1.5625 1.5625s0.69922 1.5625 1.5625 1.5625v21.875h9.375v-21.875c0.86328 0 1.5625-0.69922 1.5625-1.5625s-0.69922-1.5625-1.5625-1.5625z"/>
 </g>
<text x="0.0" y="117.5" font-size="5.0" font-weight="bold" font-family="Arbeit Regular, Helvetica, Arial-Unicode, Arial, Sans-serif" fill="#000000">Created by Edy Subiyanto</text><text x="0.0" y="122.5" font-size="5.0" font-weight="bold" font-family="Arbeit Regular, Helvetica, Arial-Unicode, Arial, Sans-serif" fill="#000000">from Noun Project</text></svg>