<svg xmlns="http://www.w3.org/2000/svg" data-name="Layer 1" viewBox="0 0 100 125" x="0px" y="0px"><defs><style>
      .cls-1 {
        fill-rule: evenodd;
      }
    </style></defs><path className="cls-1" d="M71.869,35.405h-10.665l1.645-25.144c.076,.005,.152,.008,.229,.008h6.918c.077,0,.153-.003,.229-.008l1.645,25.144ZM51.919,11.506h-17.467v3.402h17.467v-3.402ZM17.133,33.99h-7.022v22.097h7.022v-22.097ZM63.078,7.655h6.918c.514,0,.935-.421,.935-.935v-1.571c0-.514-.421-.935-.935-.935h-6.918c-.514,0-.935,.421-.935,.935v1.571c0,.514,.421,.935,.935,.935Zm13.131,48.433h-19.344v-18.067h19.344v18.067Zm-3.783-14.076h-11.779v4.911h11.779v-4.911Zm17.462-19.573l-11.065,4.692v28.956h11.065V22.439ZM38.235,56.087h-6.115V17.522h22.13s0,38.565,0,38.565h-6.115v-12.483c0-1.204-.985-2.189-2.189-2.189h-5.523c-1.204,0-2.189,.985-2.189,2.189v12.483Zm6.258-28.44h4.08v-4.08h-4.08v4.08Zm0,6.695h4.08v-4.08h-4.08v4.08Zm-6.695-6.695h4.08v-4.08h-4.08v4.08Zm0,6.695h4.08v-4.08h-4.08v4.08Zm-8.292-11.349l-9.758,4.138v28.956h9.758V22.993ZM4.244,58.702v3.022H95.756v-3.022H4.244Zm45.756,21.117c-8.836,0-16.079-6.818-16.756-15.48H17.224v4.129l5.764,1.137,3.249,7.843-3.273,4.88,7.718,7.717,4.88-3.273,7.843,3.249,1.137,5.765h10.914l1.137-5.765,7.843-3.249,4.88,3.273,7.718-7.717-3.273-4.88,3.249-7.843,5.764-1.137v-4.129h-16.02c-.677,8.662-7.92,15.48-16.756,15.48Z"/><text x="0" y="115" fill="#000000" font-size="5px" font-weight="bold" font-family="'Helvetica Neue', Helvetica, Arial-Unicode, Arial, Sans-serif">Created by Dewi Novita Sari</text><text x="0" y="120" fill="#000000" font-size="5px" font-weight="bold" font-family="'Helvetica Neue', Helvetica, Arial-Unicode, Arial, Sans-serif">from the Noun Project</text></svg>