<svg xmlns="http://www.w3.org/2000/svg" xmlns:xlink="http://www.w3.org/1999/xlink" xml:space="preserve" version="1.1" style="shape-rendering:geometricPrecision;text-rendering:geometricPrecision;image-rendering:optimizeQuality;" viewBox="0 0 847 1058.75" x="0px" y="0px" fill-rule="evenodd" clip-rule="evenodd"><defs><style type="text/css">
   
    .fil0 {fill:black}
   
  </style></defs><g><path className="fil0" d="M354 2c7,11 38,85 54,126 17,41 6,120 -39,149l64 147 64 -150c-52,-31 -74,-98 -49,-159 26,-66 99,-99 163,-74 63,26 92,101 66,167 -25,60 -87,93 -146,80l-74 194 146 340c2,6 -50,27 -52,21l-116 -304 -116 304c-2,7 -59,-16 -56,-22l148 -346 -71 -186c-53,10 -115,-39 -132,-80 -16,-41 -45,-116 -48,-129l194 -78zm-46 788c-5,-1 -11,4 -15,13 -3,8 -2,17 2,19 5,1 12,-4 15,-13 4,-8 3,-17 -2,-19zm-99 -702l0 0c4,-2 7,0 9,3l44 110c2,4 0,7 -4,9l0 0c-3,1 -7,0 -8,-4l-45 -110c-1,-3 1,-7 4,-8zm38 -16l0 0c4,-1 8,1 9,4l44 110c2,3 0,7 -3,8l0 0c-4,2 -8,0 -9,-3l-44 -110c-2,-3 0,-7 3,-9zm38 -15l0 0c4,-2 8,0 9,4l45 109c1,4 -1,8 -4,9l0 0c-4,1 -8,0 -9,-4l-44 -109c-2,-4 0,-8 3,-9zm39 -16l0 0c3,-1 7,1 8,4l45 110c1,3 -1,7 -4,9l0 0c-3,1 -7,-1 -9,-4l-44 -110c-1,-3 0,-7 4,-9zm235 749c5,-2 12,3 15,12 4,8 3,17 -2,19 -5,2 -11,-4 -15,-12 -3,-9 -2,-18 2,-19z"/></g><text x="0" y="862" fill="#000000" font-size="5px" font-weight="bold" font-family="'Helvetica Neue', Helvetica, Arial-Unicode, Arial, Sans-serif">Created by sumhi_icon</text><text x="0" y="867" fill="#000000" font-size="5px" font-weight="bold" font-family="'Helvetica Neue', Helvetica, Arial-Unicode, Arial, Sans-serif">from the Noun Project</text></svg>