<svg xmlns="http://www.w3.org/2000/svg" version="1.1" viewBox="-5.0 -10.0 110.0 135.0">
 <g>
  <path d="m54.352 35.941-17.391-17.27-17.949 17.949 17.387 17.27z"/>
  <path d="m55.82 33.172c1.0547 1.0469 2.7578 1.0469 3.8086 0l0.16016-0.16016c0.91406-1.0039 0.98438-2.5156 0.17188-3.6016-4.2695-6.6992-11.441-13.73-16.82-16.738-1.0977-0.76562-2.5781-0.67969-3.582 0.20703l-0.19922 0.19141c-1.0352 1.0391-1.0352 2.7227 0 3.7578z"/>
  <path d="m33.621 55.371c0.50391 0.5 0.78906 1.1875 0.78906 1.8984 0 0.71484-0.28516 1.3984-0.78906 1.9023l-0.14844 0.14844h-0.003906c-1.0078 0.91406-2.5234 0.98828-3.6172 0.17969-6.7227-4.2305-13.801-11.352-16.852-16.711-0.76562-1.0898-0.6875-2.5625 0.19141-3.5703l0.20703-0.21875c1.0508-1.0352 2.7344-1.0352 3.7812 0z"/>
  <path d="m85.449 84.738c0.33984-0.17188 0.46875-0.55078 0.76953-0.76953 1.9961-2.6797 1.625-6.4414-0.85938-8.6797l-35.059-30.859-2.7383 2.6602-2.6641 2.7383 31.102 34.844c2.2578 2.4648 6.0117 2.8281 8.6992 0.83984 0.19922-0.30078 0.58984-0.44141 0.75-0.77344z"/>
  <path d="m55.211 74 2.0078 2.2617v2.3867h1.8906l2.5117 2.5234v6.668h-47.801v-6.668l2.5078-2.5234h1.8906v-2.3867l2.0117-2.2617z"/>
 </g>
<text x="0.0" y="117.5" font-size="5.0" font-weight="bold" font-family="Arbeit Regular, Helvetica, Arial-Unicode, Arial, Sans-serif" fill="#000000">Created by susi susanti</text><text x="0.0" y="122.5" font-size="5.0" font-weight="bold" font-family="Arbeit Regular, Helvetica, Arial-Unicode, Arial, Sans-serif" fill="#000000">from Noun Project</text></svg>