<svg xmlns="http://www.w3.org/2000/svg" xmlns:xlink="http://www.w3.org/1999/xlink" version="1.1" x="0px" y="0px" viewBox="0 0 100 125" style="enable-background:new 0 0 100 100;" xml:space="preserve"><g><path d="M39.35,6H12.09C8.73,6,6,8.73,6,12.09v27.73c0,3.36,2.73,6.09,6.09,6.09h27.26c3.36,0,6.09-2.73,6.09-6.09V12.09   C45.44,8.73,42.7,6,39.35,6z M40.22,28.04c0,1.73-1.39,3.13-3.1,3.13h-6.23v6.31c0,1.73-1.39,3.13-3.1,3.13h-4.13   c-1.71,0-3.1-1.4-3.1-3.13v-6.31h-6.23c-1.71,0-3.1-1.4-3.1-3.13v-4.17c0-1.73,1.39-3.13,3.1-3.13h6.23v-6.31   c0-1.73,1.39-3.13,3.1-3.13h4.13c1.71,0,3.1,1.4,3.1,3.13v6.31h6.23c1.71,0,3.1,1.4,3.1,3.13V28.04z"/><path d="M87.91,6H60.65c-3.36,0-6.09,2.73-6.09,6.09v27.73c0,3.36,2.73,6.09,6.09,6.09h27.26c3.36,0,6.09-2.73,6.09-6.09V12.09   C94,8.73,91.27,6,87.91,6z M86.01,30.43c1.21,1.22,1.21,3.19,0,4.41l-2.93,2.96c-0.58,0.59-1.36,0.92-2.2,0.92   c-0.83,0-1.62-0.33-2.2-0.92l-4.4-4.45l-4.4,4.45c-0.58,0.59-1.37,0.92-2.2,0.92c-0.84,0-1.62-0.33-2.2-0.92l-2.93-2.96   c-1.21-1.22-1.21-3.19,0-4.41l4.42-4.47l-4.42-4.47c-1.21-1.22-1.21-3.19,0-4.41l2.93-2.96c1.17-1.19,3.22-1.19,4.4,0l4.4,4.45   l4.4-4.45c1.18-1.19,3.23-1.19,4.4,0l2.93,2.96c1.21,1.22,1.21,3.19,0,4.41l-4.42,4.47L86.01,30.43z"/><path d="M87.91,54.09H60.65c-3.36,0-6.09,2.73-6.09,6.09v27.73c0,3.36,2.73,6.09,6.09,6.09h27.26c3.36,0,6.09-2.73,6.09-6.09V60.18   C94,56.83,91.27,54.09,87.91,54.09z M74.28,58.34c2.28,0,4.13,1.87,4.13,4.16c0,2.3-1.85,4.17-4.13,4.17   c-2.28,0-4.13-1.87-4.13-4.17C70.15,60.21,72,58.34,74.28,58.34z M74.28,89.75c-2.28,0-4.13-1.87-4.13-4.16   c0-2.3,1.85-4.17,4.13-4.17c2.28,0,4.13,1.87,4.13,4.17C78.42,87.88,76.56,89.75,74.28,89.75z M88.79,75.09   c0,1.72-1.41,3.13-3.13,3.13H62.9c-1.72,0-3.13-1.41-3.13-3.13V73c0-1.72,1.41-3.13,3.13-3.13h22.76c1.72,0,3.13,1.41,3.13,3.13   V75.09z"/><path d="M39.35,54.09H12.09C8.73,54.09,6,56.83,6,60.18v27.73C6,91.27,8.73,94,12.09,94h27.26c3.36,0,6.09-2.73,6.09-6.09V60.18   C45.44,56.83,42.7,54.09,39.35,54.09z M40.22,76.13c0,1.73-1.4,3.13-3.12,3.13H14.34c-1.72,0-3.13-1.4-3.13-3.13v-4.17   c0-1.73,1.41-3.13,3.13-3.13H37.1c1.72,0,3.12,1.4,3.12,3.13V76.13z"/><path d="M37.12,22.78h-7.25c-0.56,0-1.02-0.46-1.02-1.02v-7.34c0-0.59-0.47-1.08-1.05-1.08h-4.13c-0.58,0-1.05,0.49-1.05,1.08v7.34   c0,0.56-0.46,1.02-1.02,1.02h-7.25c-0.58,0-1.05,0.49-1.05,1.08v4.17c0,0.59,0.47,1.08,1.05,1.08h7.25c0.56,0,1.02,0.46,1.02,1.02   v7.34c0,0.59,0.47,1.08,1.05,1.08h4.13c0.58,0,1.05-0.49,1.05-1.08v-7.34c0-0.56,0.46-1.02,1.02-1.02h7.25   c0.58,0,1.05-0.49,1.05-1.08v-4.17C38.17,23.27,37.7,22.78,37.12,22.78z"/><path d="M81.63,15.55c-0.4-0.4-1.09-0.4-1.49,0l-5.13,5.19v0.01H75c-0.04,0.04-0.09,0.06-0.14,0.09c-0.06,0.05-0.12,0.1-0.18,0.13   c-0.06,0.02-0.11,0.02-0.17,0.03c-0.07,0.01-0.14,0.04-0.21,0.04c-0.07,0-0.14-0.03-0.21-0.04c-0.06-0.01-0.11-0.01-0.16-0.03   c-0.07-0.03-0.13-0.08-0.19-0.13c-0.05-0.03-0.1-0.05-0.14-0.09c0,0-0.01,0-0.01-0.01l-5.13-5.19c-0.4-0.4-1.09-0.4-1.49,0   l-2.93,2.96c-0.41,0.42-0.41,1.13,0,1.55l5.13,5.18l0.01,0.01c0.04,0.05,0.07,0.11,0.1,0.16c0.04,0.06,0.09,0.1,0.11,0.16   c0.03,0.07,0.03,0.13,0.04,0.2c0.01,0.06,0.03,0.12,0.03,0.18c0,0.06-0.02,0.12-0.03,0.18c-0.01,0.07-0.01,0.13-0.04,0.2   c-0.02,0.06-0.07,0.1-0.11,0.16c-0.03,0.05-0.06,0.11-0.1,0.16l-0.01,0.01l-5.13,5.18c-0.41,0.42-0.41,1.13,0,1.55l2.93,2.96   c0.4,0.4,1.09,0.4,1.49,0l5.13-5.19v-0.01c0.01,0,0.01,0,0.01,0c0.04-0.05,0.1-0.07,0.15-0.1c0.06-0.04,0.11-0.09,0.18-0.12   c0.05-0.02,0.12-0.02,0.18-0.03c0.06-0.02,0.12-0.04,0.19-0.04c0.07,0,0.13,0.02,0.19,0.04c0.07,0.01,0.13,0.01,0.19,0.03   c0.06,0.03,0.11,0.08,0.17,0.12c0.05,0.03,0.11,0.05,0.15,0.1c0,0,0.01,0,0.01,0.01l5.13,5.19c0.4,0.4,1.09,0.4,1.49,0l2.93-2.96   c0.41-0.42,0.41-1.13,0-1.55l-5.13-5.18l-0.01-0.01c-0.04-0.05-0.07-0.11-0.1-0.16c-0.04-0.06-0.09-0.1-0.11-0.16   c-0.03-0.07-0.03-0.13-0.04-0.2c-0.01-0.06-0.03-0.12-0.03-0.18c0-0.06,0.02-0.12,0.03-0.18c0.01-0.07,0.01-0.13,0.04-0.2   c0.02-0.06,0.07-0.1,0.11-0.16c0.03-0.05,0.06-0.11,0.1-0.16l0.01-0.01l5.13-5.18c0.41-0.42,0.41-1.13,0-1.55L81.63,15.55z"/><path d="M37.1,70.87H14.34c-0.59,0-1.08,0.49-1.08,1.08v4.17c0,0.59,0.49,1.08,1.08,1.08H37.1c0.59,0,1.07-0.49,1.07-1.08v-4.17   C38.17,71.37,37.69,70.87,37.1,70.87z"/><path d="M85.66,71.92H62.9c-0.59,0-1.08,0.49-1.08,1.08v2.09c0,0.59,0.49,1.08,1.08,1.08h22.76c0.59,0,1.08-0.49,1.08-1.08V73   C86.75,72.41,86.25,71.92,85.66,71.92z"/><path d="M74.28,64.63c1.16,0,2.09-0.95,2.09-2.13c0-1.17-0.93-2.12-2.09-2.12c-1.15,0-2.09,0.95-2.09,2.12   C72.19,63.68,73.14,64.63,74.28,64.63z"/><path d="M74.28,83.46c-1.15,0-2.09,0.95-2.09,2.13c0,1.17,0.94,2.12,2.09,2.12c1.16,0,2.09-0.95,2.09-2.12   C76.37,84.41,75.44,83.46,74.28,83.46z"/></g><text x="0" y="115" fill="#000000" font-size="5px" font-weight="bold" font-family="'Helvetica Neue', Helvetica, Arial-Unicode, Arial, Sans-serif">Created by Olifernes Tejeros</text><text x="0" y="120" fill="#000000" font-size="5px" font-weight="bold" font-family="'Helvetica Neue', Helvetica, Arial-Unicode, Arial, Sans-serif">from the Noun Project</text></svg>