<svg xmlns="http://www.w3.org/2000/svg" data-name="Layer 51" viewBox="0 0 100 125" x="0px" y="0px"><path d="M79.57,40H61.5v9.57A11.94,11.94,0,0,1,49.57,61.5H40v17l9.19-9.91a7.53,7.53,0,0,1,10.39-.64L66.82,74l4.88-7.8a7.11,7.11,0,0,1,6-3.36,7.19,7.19,0,0,1,6.06,3.31L90,75.89V50.43A10.43,10.43,0,0,0,79.57,40ZM73.64,56.82a4.29,4.29,0,1,1,4.29-4.28A4.28,4.28,0,0,1,73.64,56.82Z"/><path d="M82.53,67a5.6,5.6,0,0,0-4.76-2.61h0A5.62,5.62,0,0,0,73,67l-5.33,8.54a.77.77,0,0,1-.52.34.71.71,0,0,1-.6-.16l-7.9-6.65a6,6,0,0,0-8.33.51l-9.74,10.5a.73.73,0,0,1-.51.23A10.42,10.42,0,0,0,50.43,90H79.57A10.43,10.43,0,0,0,90,79.57V78a.73.73,0,0,1-.63-.33Z"/><path d="M60,49.57V20.43A10.43,10.43,0,0,0,49.57,10H20.43A10.43,10.43,0,0,0,10,20.43V49.57A10.43,10.43,0,0,0,20.43,60H49.57A10.43,10.43,0,0,0,60,49.57ZM48.11,39.27l-19.9,9.95A4.74,4.74,0,0,1,23.56,49,4.72,4.72,0,0,1,21.3,45V25.05a4.77,4.77,0,0,1,6.91-4.27l19.9,10a4.77,4.77,0,0,1,0,8.54Z"/><path d="M47.44,32.07l-19.9-9.95a3.26,3.26,0,0,0-3.19.14,3.25,3.25,0,0,0-1.55,2.79V45a3.27,3.27,0,0,0,4.74,2.93l19.9-10a3.28,3.28,0,0,0,0-5.86Z"/><path d="M73.64,49.75a2.79,2.79,0,1,0,2.79,2.79A2.79,2.79,0,0,0,73.64,49.75Z"/><text x="0" y="115" fill="#000000" font-size="5px" font-weight="bold" font-family="'Helvetica Neue', Helvetica, Arial-Unicode, Arial, Sans-serif">Created by Lars Meiertoberens</text><text x="0" y="120" fill="#000000" font-size="5px" font-weight="bold" font-family="'Helvetica Neue', Helvetica, Arial-Unicode, Arial, Sans-serif">from the Noun Project</text></svg>