<svg xmlns="http://www.w3.org/2000/svg" version="1.1" viewBox="-5.0 -10.0 110.0 135.0">
 <g>
  <path d="m12.5 90.621c0 4.168-6.25 4.168-6.25 0 0-4.1641 6.25-4.1641 6.25 0"/>
  <path d="m62.781 9.2148c0 4.168-6.25 4.168-6.25 0 0-4.1641 6.25-4.1641 6.25 0"/>
  <path d="m14.211 14.785c1.7266 0 3.125 1.7266 3.125 3.125v9.6758c0 1.7266-1.3984 3.125-3.125 3.125-1.7266 0-3.125-1.7266-3.125-3.125v-9.6758c0-1.7266 1.3984-3.125 3.125-3.125z"/>
  <path d="m41.633 96.875c-8.6172 0-15.625-7.0078-15.625-15.625s7.0078-15.625 15.625-15.625c8.6172 0 15.625 7.0078 15.625 15.625s-7.0078 15.625-15.625 15.625zm0-25c-5.168 0-9.375 4.207-9.375 9.375s4.207 9.375 9.375 9.375c5.168 0 9.375-4.207 9.375-9.375s-4.207-9.375-9.375-9.375z"/>
  <path d="m81.25 89.371c-8.6172 0-15.625-7.0078-15.625-15.625 0-8.6172 7.0078-15.625 15.625-15.625s15.625 7.0078 15.625 15.625c0 8.6172-7.0078 15.625-15.625 15.625zm0-25c-5.168 0-9.375 4.207-9.375 9.375 0 5.168 4.207 9.375 9.375 9.375s9.375-4.207 9.375-9.375c0-5.168-4.207-9.375-9.375-9.375z"/>
  <path d="m18.75 67.492c-8.6172 0-15.625-7.0078-15.625-15.625 0-8.6172 7.0078-15.625 15.625-15.625s15.625 7.0078 15.625 15.625c0 8.6172-7.0078 15.625-15.625 15.625zm0-25c-5.168 0-9.375 4.207-9.375 9.375 0 5.168 4.207 9.375 9.375 9.375s9.375-4.207 9.375-9.375c0-5.168-4.207-9.375-9.375-9.375z"/>
  <path d="m57.258 81.25h-6.25v-39.734c0-5.3125 3.1602-10.094 8.0469-12.18l20.414-8.7031c3.875-1.6562 8.2812-1.2539 11.793 1.0703 3.5117 2.3203 5.6094 6.2188 5.6094 10.43v41.609h-6.25v-41.609c0-2.1367-1.0234-4.0391-2.8047-5.2148-1.7812-1.1797-3.9336-1.375-5.8984-0.53516l-20.414 8.7031c-2.582 1.1016-4.25 3.625-4.25 6.4297v39.734z"/>
  <path d="m52.914 53.383 39.609-16.895 2.4531 5.75-39.609 16.895z"/>
  <path d="m47.32 23.492c-8.8984-1.4453-11.711-10.027-12.574-14.516-0.30469-1.5742-1.6523-2.7266-3.2578-2.7266h-0.058593c-1.8281 0-3.3086 1.4805-3.3086 3.3086v43.109h6.25l-0.003906-28.906c2.8047 2.9609 6.7266 5.2656 12.113 5.9688 1.8672 0.24219 3.5195-1.2656 3.5195-3.1445 0-1.5547-1.1484-2.8438-2.6797-3.0938z"/>
  <path d="m54.133 81.25c0 6.9023-5.5938 12.5-12.5 12.5-6.9023 0-12.5-5.5977-12.5-12.5s5.5977-12.5 12.5-12.5c6.9062 0 12.5 5.5977 12.5 12.5"/>
  <path d="m93.75 73.746c0 6.9062-5.5977 12.5-12.5 12.5s-12.5-5.5938-12.5-12.5c0-6.9023 5.5977-12.5 12.5-12.5s12.5 5.5977 12.5 12.5"/>
  <path d="m31.25 51.867c0 6.9023-5.5977 12.5-12.5 12.5s-12.5-5.5977-12.5-12.5c0-6.9062 5.5977-12.5 12.5-12.5s12.5 5.5938 12.5 12.5"/>
  <path d="m54.133 56.254 39.617-16.887v-6.8516c0-6.9648-7.1094-11.668-13.52-8.9453l-20.18 8.5742c-3.5859 1.5234-5.9141 5.0469-5.9141 8.9453v15.164z"/>
 </g>
<text x="0.0" y="117.5" font-size="5.0" font-weight="bold" font-family="Arbeit Regular, Helvetica, Arial-Unicode, Arial, Sans-serif" fill="#000000">Created by Phoenix Dungeon</text><text x="0.0" y="122.5" font-size="5.0" font-weight="bold" font-family="Arbeit Regular, Helvetica, Arial-Unicode, Arial, Sans-serif" fill="#000000">from Noun Project</text></svg>