<svg xmlns="http://www.w3.org/2000/svg" data-name="07 Nature " viewBox="0 0 512 640" x="0px" y="0px"><path d="m504,240h-32v-16h16c2.57,0,4.99-1.24,6.49-3.32,1.5-2.09,1.91-4.77,1.1-7.21l-24-72c-1.09-3.27-4.15-5.47-7.59-5.47s-6.5,2.2-7.59,5.47l-16.41,49.23-16.41-49.23c-1.09-3.27-4.15-5.47-7.59-5.47s-6.5,2.2-7.59,5.47l-24,72c-.81,2.44-.4,5.12,1.1,7.21,1.5,2.09,3.92,3.32,6.49,3.32h16v16h-22.68c-4.21-1.51-21.17-8.31-40.76-25.64-20.81-18.42-48.95-52.87-64.83-112.42-.73-2.75-2.89-4.89-5.64-5.64-2.75-.75-5.7.03-7.73,2.03-2.33,2.29-7.23,5.68-10.37,5.68s-8.04-3.39-10.34-5.66c-2.02-2.02-4.97-2.81-7.73-2.07-2.76.74-4.92,2.9-5.65,5.66-15.88,59.55-44.02,94-64.83,112.42-19.61,17.35-36.59,24.14-40.76,25.64h-22.68v-16h16c2.57,0,4.99-1.24,6.49-3.32,1.5-2.09,1.91-4.77,1.1-7.21l-24-72c-1.09-3.27-4.15-5.47-7.59-5.47s-6.5,2.2-7.59,5.47l-16.41,49.23-16.41-49.23c-1.09-3.27-4.15-5.47-7.59-5.47s-6.5,2.2-7.59,5.47l-24,72c-.81,2.44-.4,5.12,1.1,7.21,1.5,2.09,3.92,3.32,6.49,3.32h16v16H8c-4.42,0-8,3.58-8,8v24h512v-24c0-4.42-3.58-8-8-8Zm-416,0h-32v-16h32v16Zm368,0h-32v-16h32v16Z"/><circle cx="352" cy="80" r="24"/><path d="m0,312c0,4.42,3.58,8,8,8h85.58l44.76,29.84,39.15,54.81c1.53,2.14,4,3.37,6.64,3.35,2.63-.04,5.07-1.37,6.53-3.56l16-24c.88-1.31,1.34-2.86,1.34-4.44v-16h2.23l22.18,66.53c.39,1.18,1.05,2.25,1.93,3.13l24,24c1.52,1.52,3.57,2.34,5.66,2.34.85,0,1.7-.13,2.53-.41,2.87-.96,4.96-3.46,5.39-6.46l16.16-114.26c.62-4.37,4.68-7.42,9.05-6.79,4.37.62,7.41,4.68,6.79,9.05l-8.75,61.25,19.83,15.87c2.22,1.77,5.21,2.24,7.86,1.22,2.65-1.01,4.57-3.36,5.03-6.16l7.72-46.31,12.67-19.01h40.41l21.66,21.66c1.82,1.82,4.4,2.65,6.94,2.24,2.54-.41,4.72-2.02,5.87-4.32l21.79-43.58h59.06c4.42,0,8-3.58,8-8v-24H0v24Z"/><text x="0" y="527" fill="#000000" font-size="5px" font-weight="bold" font-family="'Helvetica Neue', Helvetica, Arial-Unicode, Arial, Sans-serif">Created by Edy Subiyanto</text><text x="0" y="532" fill="#000000" font-size="5px" font-weight="bold" font-family="'Helvetica Neue', Helvetica, Arial-Unicode, Arial, Sans-serif">from the Noun Project</text></svg>