<svg xmlns="http://www.w3.org/2000/svg" xmlns:xlink="http://www.w3.org/1999/xlink" xml:space="preserve" version="1.1" style="shape-rendering:geometricPrecision;text-rendering:geometricPrecision;image-rendering:optimizeQuality;" viewBox="0 0 333.33 416.66249999999997" x="0px" y="0px" fill-rule="evenodd" clip-rule="evenodd"><defs><style type="text/css">
   
    .fil0 {fill:black}
   
  </style></defs><g><path className="fil0" d="M129.34 63.5c0,26.33 -47.68,75.25 -47.68,75.25 0,0 -47.67,-48.92 -47.67,-75.25 0,-62.71 95.35,-62.71 95.35,0zm-43.38 82.95c-0.26,-5.63 -8.56,-5.7 -8.81,0.04 0.04,7.12 3.88,13.58 8.6,18.65 4.03,4.3 10.4,-1.81 6.48,-5.98 -3.31,-3.55 -6.07,-7.72 -6.27,-12.71zm33.45 46.21c3.32,4.6 10.57,-0.43 7.12,-5.2 -3.29,-4.67 -9.62,-9.22 -14.29,-12.52 -4.04,-2.91 -9.27,2.33 -5.91,6.46 0.26,0.3 0.5,0.52 0.82,0.75 3.74,2.63 9.63,6.79 12.26,10.52zm-24.16 21.2c-5.42,2.17 -2.04,10.32 3.31,8.18 5.63,-2.26 11.23,-4.76 16.5,-7.78 5.05,-2.92 0.59,-10.55 -4.41,-7.64 -4.87,2.81 -10.19,5.15 -15.4,7.24zm-41.22 16.37c-5.21,2.61 -1.51,10.35 3.81,7.96 5.23,-2.52 10.48,-4.8 15.87,-6.94 5.39,-2.15 2.15,-10.36 -3.24,-8.2 -5.59,2.22 -11.03,4.58 -16.45,7.19zm-36.23 28.65c-2.75,5.23 5.13,9.19 7.76,4.19 2.33,-4.46 6.6,-8.59 10.51,-11.68 4.57,-3.76 -0.88,-10.43 -5.43,-6.95 -4.9,3.87 -9.93,8.87 -12.85,14.44zm22.8 38.67c5.22,2.35 8.93,-5.65 3.54,-8.08 -4.98,-2.22 -9.74,-4.73 -13.92,-8.27 -4.06,-3.81 -10.3,2.43 -5.87,6.58 4.62,4.09 10.64,7.28 16.25,9.77zm43.44 11.94c5.73,1.04 7.23,-7.65 1.54,-8.69 -5.7,-0.99 -11.38,-2.11 -17,-3.47 -5.39,-1.28 -7.99,6.75 -2.1,8.57 5.81,1.41 11.68,2.56 17.56,3.59zm44.21 5.25c5.7,0.52 6.56,-8.26 0.67,-8.8 -5.81,-0.43 -11.63,-0.95 -17.43,-1.57 -5.9,-0.54 -6.58,8.25 -0.95,8.77 5.89,0.63 11.8,1.17 17.71,1.61zm44.31 1.97c6.01,0 5.8,-8.82 0.17,-8.82 -5.84,-0.1 -11.7,-0.25 -17.54,-0.49 -5.82,-0.26 -6.13,8.56 -0.36,8.81 5.91,0.23 11.82,0.39 17.73,0.49zm44.28 -0.13c5.85,-0.27 5.63,-8.82 -0.19,-8.82 -5.85,0.13 -11.71,0.22 -17.57,0.26 -5.8,0 -5.77,8.82 0.05,8.82 5.9,-0.05 11.81,-0.14 17.7,-0.26zm44.21 -1.68c5.77,-0.26 5.39,-9.07 -0.45,-8.81 -5.86,0.3 -11.71,0.58 -17.57,0.82 -5.86,0.27 -5.4,9.07 0.35,8.81 5.89,-0.24 11.78,-0.52 17.67,-0.83zm55.06 -88.07c0,26.33 -47.68,75.25 -47.68,75.25 0,0 -47.67,-48.92 -47.67,-75.25 0,-62.71 95.35,-62.71 95.35,0zm-47.68 -28.4c23.84,0 36.7,27.47 22.44,45.81 -10.46,13.47 -30.82,14.68 -42.85,2.65 -17.4,-17.38 -4.56,-48.46 20.41,-48.46zm-186.77 -163.33c23.84,0 36.7,27.47 22.44,45.81 -10.46,13.48 -30.82,14.68 -42.86,2.65 -17.4,-17.38 -4.55,-48.46 20.42,-48.46z"/></g><text x="0" y="348.33" fill="#000000" font-size="5px" font-weight="bold" font-family="'Helvetica Neue', Helvetica, Arial-Unicode, Arial, Sans-serif">Created by wahyuni evin</text><text x="0" y="353.33" fill="#000000" font-size="5px" font-weight="bold" font-family="'Helvetica Neue', Helvetica, Arial-Unicode, Arial, Sans-serif">from the Noun Project</text></svg>