<svg xmlns="http://www.w3.org/2000/svg" xmlns:xlink="http://www.w3.org/1999/xlink" version="1.1" x="0px" y="0px" viewBox="0 0 64 80" enable-background="new 0 0 64 64" xml:space="preserve"><g><g><polygon points="51.621,5.366 51.104,5.366 50.069,3 45.155,3 44.121,5.366 43.604,5.366 43.604,10.1 51.621,10.1   "/><path d="M7.5,43.265c0,1.125,0.93,2.042,2.07,2.042h1.31V61c0,0.276,0.224,0.5,0.5,0.5h41.241c0.276,0,0.5-0.224,0.5-0.5V45.306    h1.31c1.14,0,2.07-0.917,2.07-2.042V37.06h-49V43.265z M52.121,60.5H11.879V41.234h40.241V60.5z M9.65,38.743h44.7v4.522h-1.229    v-2.53c0-0.276-0.224-0.5-0.5-0.5H11.379c-0.276,0-0.5,0.224-0.5,0.5v2.53H9.65V38.743z"/><path d="M28.61,28.405c0.01-0.05,0.02-0.1,0.05-0.14c-2.61-1.235-4.42-3.864-4.42-6.922c0-4.243,3.48-7.679,7.76-7.679    s7.76,3.436,7.76,7.679c0,3.058-1.81,5.687-4.42,6.922c0.03,0.04,0.04,0.089,0.05,0.14l0.95,7.659h20.15    c-0.08-1.105-0.36-2.56-0.7-3.476l-0.9-2.42c-0.4-1.066-0.72-2.838-0.72-3.964V12.379c0-1.125-0.93-2.042-2.07-2.042H18.586v-1.59    c0-0.684-0.491-1.244-1.089-1.244h-1.079c-0.599,0-1.089,0.561-1.089,1.244v1.59H11.9c-1.14,0-2.07,0.917-2.07,2.042v13.825    c0,1.125-0.32,2.898-0.72,3.964l-0.9,2.42c-0.34,0.917-0.62,2.371-0.69,3.476h20.14L28.61,28.405z M43.6,12.399h8.02v7.938H43.6    V12.399z M16.96,24.411c-1.72,0-3.11-1.375-3.11-3.078c0-1.693,1.39-3.067,3.11-3.067c1.71,0,3.1,1.374,3.1,3.067    C20.06,23.036,18.67,24.411,16.96,24.411z"/><path d="M29.6,28.624l-0.92,7.44h6.64l-0.92-7.44c-0.75,0.259-1.56,0.389-2.4,0.389S30.35,28.883,29.6,28.624z"/><path d="M38.36,21.343c0-0.059,0-0.119-0.01-0.179c-0.25,0.189-0.52,0.338-0.82,0.468c-0.39,0.15-0.83,0.239-1.28,0.239    s-0.88-0.089-1.28-0.239c-1.26-0.498-2.15-1.723-2.15-3.147c0-1.245,0.68-2.331,1.7-2.918c-0.77-0.338-1.63-0.518-2.52-0.518    c-3.51,0-6.36,2.819-6.36,6.294c0,2.64,1.66,4.901,3.99,5.837c0.73,0.279,1.53,0.448,2.37,0.448s1.64-0.169,2.37-0.448    C36.7,26.244,38.36,23.982,38.36,21.343z"/><polygon points="50.917,51.44 44.843,43.978 33.07,52.963 31.107,50.013 27.719,44.917 13.083,52.963 13.083,59.313     50.917,59.313   "/></g></g><text x="0" y="79" fill="#000000" font-size="5px" font-weight="bold" font-family="'Helvetica Neue', Helvetica, Arial-Unicode, Arial, Sans-serif">Created by Denicon</text><text x="0" y="84" fill="#000000" font-size="5px" font-weight="bold" font-family="'Helvetica Neue', Helvetica, Arial-Unicode, Arial, Sans-serif">from the Noun Project</text></svg>