<svg xmlns="http://www.w3.org/2000/svg" data-name="Layer 1" viewBox="0 0 95 118.75" x="0px" y="0px"><defs><style>.cls-1{fill-rule:evenodd;}</style></defs><title>a</title><path class="cls-1" d="M25.916,17.29h25.35a.382.382,0,0,1,.377.377v5.641h3V17.667a3.381,3.381,0,0,0-3.377-3.377H25.916a3.382,3.382,0,0,0-3.377,3.377v5.641h3V17.667a.383.383,0,0,1,.378-.377Zm23.1,63.42H92.479a21.785,21.785,0,0,0-43.466,0ZM6.509,76.2a1.436,1.436,0,0,1-1.434-1.434V43.788l32.23,9.276a4.535,4.535,0,0,0,2.571,0l17.965-5.172a12.983,12.983,0,0,0,6.922,10.271A24.864,24.864,0,0,0,46.7,76.2ZM2.521,27.957V38.688a1.62,1.62,0,0,0,1.194,1.586l34.42,9.905a1.525,1.525,0,0,0,.912,0l18.879-5.431A12.964,12.964,0,0,1,74.66,34.315V27.957a1.65,1.65,0,0,0-1.647-1.651H4.17a1.65,1.65,0,0,0-1.649,1.651ZM80.7,46.668a9.961,9.961,0,1,0-9.961,9.961A9.973,9.973,0,0,0,80.7,46.668ZM26.957,71.12V70.058H12.339V71.12Zm1.5-4.063H10.839a1.5,1.5,0,0,0-1.5,1.5v4.062a1.5,1.5,0,0,0,1.5,1.5H28.456a1.5,1.5,0,0,0,1.5-1.5V68.557A1.5,1.5,0,0,0,28.456,67.057Z"/><text x="0" y="110" fill="#000000" font-size="5px" font-weight="bold" font-family="'Helvetica Neue', Helvetica, Arial-Unicode, Arial, Sans-serif">Created by rukanicon</text><text x="0" y="115" fill="#000000" font-size="5px" font-weight="bold" font-family="'Helvetica Neue', Helvetica, Arial-Unicode, Arial, Sans-serif">from the Noun Project</text></svg>