<svg xmlns="http://www.w3.org/2000/svg" xmlns:xlink="http://www.w3.org/1999/xlink" version="1.1" x="0px" y="0px" viewBox="0 0 100 125" enable-background="new 0 0 100 100" xml:space="preserve"><g><path fill="#000000" d="M91.445,8.264c-1.469-0.04-2.937-0.039-4.405,0.132c-1.638,0.19-3.239,0.547-4.778,1.206   c-1.972,0.844-3.42,2.276-4.306,4.378c-0.585,1.387-1.021,2.825-1.35,4.304c-0.824,3.709-1.154,7.489-1.341,11.288   c-0.138,2.791-0.138,5.585-0.158,8.379C75.083,41.493,75,45.032,74.484,48.54c-0.24,1.634-0.598,3.237-1.273,4.733   c-1.207,2.674-3.098,4.609-5.536,5.924c-3.594,1.94-7.457,2.703-11.417,3.032c-0.243,0.02-0.272-0.065-0.272-0.298   c0.006-7.205,0.005-14.41,0.005-21.615c0.001,0,0.002,0,0.003,0c0-6.719-0.004-13.438,0.004-20.157   c0.002-1.308,0.049-2.621,0.414-3.881c0.458-1.585,1.271-2.87,2.733-3.551c0.714-0.333,1.464-0.537,2.226-0.683   c1.122-0.215,2.252-0.33,3.385-0.374h2.067V8.232h-0.306c-0.013,0-0.024-0.002-0.037-0.002c-2.084,0.002-4.169,0-6.253,0.002   H33.196v3.437h1.936c1.497,0.056,2.982,0.227,4.454,0.592c1.837,0.456,3.142,1.57,3.839,3.485c0.352,0.966,0.469,1.984,0.531,3.011   c0.074,1.223,0.053,2.447,0.053,3.671c0,13.148,0,26.297,0,39.445c0,0.361-0.001,0.369-0.344,0.345   c-1.297-0.092-2.586-0.26-3.867-0.501c-2.36-0.444-4.662-1.105-6.85-2.186c-2.149-1.062-3.963-2.567-5.322-4.686   c-1.098-1.712-1.66-3.648-2.008-5.671c-0.452-2.625-0.581-5.282-0.672-7.943c-0.081-2.363-0.047-4.728-0.081-7.091   c-0.062-4.403-0.269-8.794-0.956-13.143c-0.336-2.126-0.816-4.207-1.538-6.225c-0.957-2.675-2.65-4.471-5.161-5.39   c-2.135-0.781-4.331-1.104-6.568-1.134C10.101,8.241,9.56,8.244,9.019,8.252H4.642v3.275h4.663   c1.011,0.138,1.782,0.723,2.329,1.737c0.135,0.25,0.251,0.509,0.35,0.778c0.534,1.456,0.686,2.986,0.693,4.531   c0.024,4.953,0.046,9.906,0.022,14.858c-0.019,3.877,0.326,7.699,1.245,11.45c0.865,3.531,2.136,6.866,4.115,9.847   c0.898,1.353,1.885,2.623,3.125,3.631c1.588,1.292,3.367,2.196,5.207,2.965c3.701,1.547,7.543,2.527,11.432,3.311   c1.97,0.397,3.949,0.733,5.941,0.979c0.213,0.026,0.251,0.106,0.25,0.322c-0.007,4.327-0.007,8.653-0.004,12.98   c0.001,0.917-0.038,1.83-0.159,2.738c-0.227,1.712-0.699,3.326-1.65,4.738c-0.673,0.998-1.472,1.821-2.607,2.176   c-0.762,0.239-1.536,0.403-2.321,0.515c-1.315,0.187-2.635,0.27-3.958,0.289h-1.208v2.399h35.791v-2.399H66.63   c-1.814-0.035-3.621-0.155-5.401-0.574c-0.765-0.18-1.522-0.405-2.153-0.949c-0.717-0.617-1.29-1.369-1.742-2.23   c-0.938-1.791-1.309-3.752-1.326-5.777c-0.039-4.663-0.015-9.326-0.023-13.989c0-0.175,0.052-0.209,0.198-0.228   c0.717-0.095,1.433-0.2,2.148-0.31c3.355-0.518,6.678-1.208,9.955-2.147c2.517-0.722,4.993-1.578,7.354-2.787   c1.475-0.755,2.894-1.615,4.078-2.853c2.113-2.209,3.636-4.856,4.786-7.764c1.82-4.604,2.693-9.435,2.767-14.427   c0.062-4.167,0.016-8.335,0.035-12.503c0.009-1.952-0.072-3.907,0.098-5.855c0.099-1.147,0.302-2.27,0.765-3.32   c0.58-1.314,1.483-2.058,2.78-2.153h2.17c0.654,0,1.309-0.002,1.963,0.005c0.027,0,0.045-0.003,0.068-0.005h0.206V8.264H91.445z"/></g><text x="0" y="115" fill="#000000" font-size="5px" font-weight="bold" font-family="'Helvetica Neue', Helvetica, Arial-Unicode, Arial, Sans-serif">Created by OB</text><text x="0" y="120" fill="#000000" font-size="5px" font-weight="bold" font-family="'Helvetica Neue', Helvetica, Arial-Unicode, Arial, Sans-serif">from the Noun Project</text></svg>