<svg xmlns="http://www.w3.org/2000/svg" version="1.1" viewBox="-5.0 -10.0 110.0 135.0">
 <g>
  <path d="m42.07 22.465c4.0352-0.78516 6.6797-4.6797 5.8945-8.6797-0.78516-4.0352-4.6797-6.6797-8.6797-5.8945-4.0352 0.78516-6.6797 4.6797-5.8945 8.6797 0.78516 4.0352 4.6797 6.6797 8.6797 5.8945z"/>
  <path d="m66.25 35.035-11.75 2.8945c-1.8203-1.0703-5.0352-2.8945-8.25-4.75l7.3203 0.14453h0.32031c0.60547 0 1.25-0.14453 1.7852-0.5l11.68-7.2852c3.3945-2.0703 0.67969-7.3945-3-5.8555l-11.5 4.75c-3.6445-0.070313-17.57-0.32031-17.57-0.32031h-0.28516c-0.25 0-0.46484 0.035157-0.71484 0.070313h-0.035156c-3.8945 0.5-7.1445 3.6797-7.6445 8.0352l-1.9648 17.32-2.5 16.43c-3 4.3945-14 20.605-14 20.605-2.25 3.2852 2.5 6.9297 5.0703 3.8945l17.105-19.895c0.46484-0.53516 0.75-1.2852 0.89453-2l2.5703-11.75 8.4297 10.5-4.6797 20.715c-0.39453 1.75 0.64453 3.5352 2.4297 4.0352 1.8203 0.5 3.7148-0.53516 4.2148-2.3555l6.2852-22.395c0.32031-1.0703 0.070312-2.2852-0.57031-3.2148l-7.7852-13.82s-0.070313-0.10547-0.10547-0.14453l0.89453-8.75 8.7148 5.0352 0.28516 0.17969c0.96484 0.57031 2.2148 0.67969 3.3203 0.17969l13.105-5.5703c3.6797-1.5352 1.7852-7.2148-2.0703-6.25z"/>
  <path d="m92.43 21.535c0 4.0625-3.2969 7.3594-7.3594 7.3594s-7.3555-3.2969-7.3555-7.3594 3.293-7.3555 7.3555-7.3555 7.3594 3.293 7.3594 7.3555"/>
 </g>
<text x="0.0" y="117.5" font-size="5.0" font-weight="bold" font-family="Arbeit Regular, Helvetica, Arial-Unicode, Arial, Sans-serif" fill="#000000">Created by Iconographer</text><text x="0.0" y="122.5" font-size="5.0" font-weight="bold" font-family="Arbeit Regular, Helvetica, Arial-Unicode, Arial, Sans-serif" fill="#000000">from Noun Project</text></svg>