<svg xmlns="http://www.w3.org/2000/svg" xmlns:xlink="http://www.w3.org/1999/xlink" version="1.1" x="0px" y="0px" viewBox="0 0 96 120" style="enable-background:new 0 0 96 96;" xml:space="preserve"><style type="text/css">
	.st0{fill-rule:evenodd;clip-rule:evenodd;}
</style><path class="st0" d="M70.931,18.743l4.941,16.175h16.421L82.541,18.78c-0.021-0.035-0.142-0.037-0.177-0.037H70.931L70.931,18.743z   M36.998,59.06l-2.634,11.781c-0.165,0.74-0.507,1.404-0.973,1.951c0.126,0.289,0.223,0.593,0.286,0.91  c0.809,1.001,1.268,2.262,1.268,3.589c0,0.972-0.243,1.888-0.672,2.69h3.933V60.079h14.832v19.901h3.023V60.079h14.832v19.901  h15.946V46.512c-0.642,0.097-1.301,0.148-1.973,0.148c-3.956,0-7.928-1.811-10.105-5.18c-2.177,3.369-6.15,5.18-10.105,5.18  c-3.956,0-7.928-1.811-10.105-5.18c-2.177,3.369-6.15,5.18-10.105,5.18c-3.956,0-7.928-1.811-10.106-5.18  c-2.177,3.369-6.15,5.18-10.105,5.18c-0.672,0-1.332-0.051-1.973-0.148v4.429h8.237c2.431,0,4.813,1.456,5.943,3.606v-1.763h36.22  v4.272c-11.835,0-23.669,0-35.504,0c0.012,0.163,0.018,0.328,0.018,0.495C37.173,58.059,37.109,58.565,36.998,59.06L36.998,59.06z   M26.734,15.721h55.629c0.017,0,0.033,0,0.05,0V9.703c0-1.453-1.189-2.642-2.642-2.642h-50.77c-1.453,0-2.642,1.189-2.642,2.642  v6.039C26.483,15.728,26.608,15.721,26.734,15.721L26.734,15.721z M36.904,12.912c-0.835,0-1.511-0.677-1.511-1.511  c0-0.835,0.677-1.511,1.511-1.511h11.534c0.835,0,1.511,0.677,1.511,1.511c0,0.835-0.677,1.511-1.511,1.511H36.904L36.904,12.912z   M60.335,12.912c-0.835,0-1.511-0.677-1.511-1.511c0-0.835,0.677-1.511,1.511-1.511h11.534c0.835,0,1.511,0.677,1.511,1.511  c0,0.835-0.677,1.511-1.511,1.511H60.335L60.335,12.912z M29.232,73.09c0.835,0,1.511,0.677,1.511,1.511  c0,0.147-0.021,0.29-0.061,0.425c0.745,0.478,1.239,1.314,1.239,2.265c0,1.486-1.204,2.69-2.69,2.69c-1.486,0-2.69-1.204-2.69-2.69  c0-0.423,0.098-0.823,0.271-1.178h-9.109c0.174,0.356,0.271,0.756,0.271,1.178c0,1.486-1.204,2.69-2.69,2.69s-2.69-1.204-2.69-2.69  c0-0.423,0.098-0.823,0.271-1.178H11.86c-2.139,0-3.883-1.745-3.883-3.884c0-1.412,0.769-2.705,1.994-3.391  c-1.372-6.136-2.744-12.273-4.116-18.409h-2.47c-0.835,0-1.511-0.677-1.511-1.511c0-0.835,0.677-1.511,1.511-1.511l3.674,0.006  c0.691-0.001,1.315,0.478,1.47,1.181l1.201,5.372h20.765c1.934,0,3.654,1.634,3.654,3.587c0,0.256-0.032,0.539-0.102,0.849  l-2.634,11.781c-0.155,0.703-0.779,1.182-1.47,1.181L11.86,71.368c-0.47,0-0.861,0.391-0.861,0.861c0,0.47,0.391,0.861,0.861,0.861  H29.232L29.232,73.09z M61.519,64.923c0.417-0.721,1.34-0.966,2.06-0.549c0.721,0.417,0.966,1.34,0.549,2.06l-3.271,5.665  c-0.417,0.721-1.34,0.966-2.06,0.549c-0.721-0.417-0.966-1.34-0.549-2.06L61.519,64.923L61.519,64.923z M64.583,66.692  c0.417-0.721,1.34-0.966,2.06-0.549c0.721,0.417,0.966,1.34,0.549,2.06l-3.271,5.665c-0.417,0.721-1.34,0.966-2.06,0.549  c-0.721-0.417-0.966-1.34-0.549-2.06L64.583,66.692L64.583,66.692z M45.175,64.923c0.417-0.721,1.34-0.966,2.06-0.549  c0.721,0.417,0.966,1.34,0.549,2.06l-3.271,5.665c-0.417,0.721-1.34,0.966-2.06,0.549c-0.721-0.417-0.966-1.34-0.549-2.06  L45.175,64.923L45.175,64.923z M48.24,66.692c0.417-0.721,1.34-0.966,2.06-0.549c0.721,0.417,0.966,1.34,0.549,2.06l-3.271,5.665  c-0.417,0.721-1.34,0.966-2.06,0.549c-0.721-0.417-0.966-1.34-0.549-2.06L48.24,66.692L48.24,66.692z M15.769,83.003h77.559  c0.44,0,0.798,0.358,0.798,0.798v4.34c0,0.439-0.358,0.798-0.798,0.798H15.769c-0.439,0-0.798-0.358-0.798-0.798v-4.34  C14.971,83.362,15.33,83.003,15.769,83.003L15.769,83.003z M72.724,34.918H56.06V18.743h11.723L72.724,34.918L72.724,34.918z   M41.314,18.743l-4.941,16.175h16.664V18.743H41.314L41.314,18.743z M33.226,34.918H16.805l9.753-16.138  c0.021-0.035,0.142-0.037,0.177-0.037h11.432L33.226,34.918L33.226,34.918z M93.269,37.941c-0.938,3.676-4.809,5.696-8.404,5.696  c-3.594,0-7.466-2.021-8.404-5.696H93.269L93.269,37.941z M73.058,37.941c-0.938,3.676-4.809,5.696-8.404,5.696  c-3.594,0-7.466-2.02-8.404-5.696H73.058L73.058,37.941z M52.847,37.941c-0.938,3.676-4.809,5.696-8.404,5.696  c-3.595,0-7.466-2.02-8.404-5.696H52.847L52.847,37.941z M32.637,37.941c-0.938,3.676-4.809,5.696-8.404,5.696  c-3.595,0-7.465-2.02-8.404-5.696H32.637z"/><text x="0" y="111" fill="#000000" font-size="5px" font-weight="bold" font-family="'Helvetica Neue', Helvetica, Arial-Unicode, Arial, Sans-serif">Created by Eko Purnomo</text><text x="0" y="116" fill="#000000" font-size="5px" font-weight="bold" font-family="'Helvetica Neue', Helvetica, Arial-Unicode, Arial, Sans-serif">from the Noun Project</text></svg>