<svg xmlns="http://www.w3.org/2000/svg" version="1.1" viewBox="-5.0 -10.0 110.0 135.0">
 <path d="m49.977 10.648c-2.0664 1.5312-4.1641 2.9062-6.3008 4.125l0.023438-0.023438c-8.0586 4.7734-16.461 7.6406-25.203 8.6016-3.7734 29.789 3.125 50.266 20.703 61.426 3.2344 2.0039 6.832 3.6953 10.797 5.0742 3.9492-1.3555 7.5469-3.0469 10.801-5.0742 17.574-11.16 24.477-31.633 20.699-61.426-8.7266-0.95703-17.125-3.832-25.199-8.625-0.015625-0.007812-0.03125-0.015624-0.050781-0.023437-2.1211-1.1914-4.2109-2.5391-6.2695-4.0547zm-36.176 10.047c0.085938-0.57812 0.34375-1.0703 0.77344-1.4766 0.42188-0.40234 0.92188-0.62891 1.5-0.67578 8.7266-0.67188 17.086-3.375 25.074-8.1016l0.023437-0.023437c2.4648-1.4102 4.8828-3.043 7.25-4.8984 0.45312-0.35156 0.97266-0.52734 1.5508-0.52344 0.57812-0.003906 1.0938 0.17188 1.5469 0.52344 2.3594 1.8555 4.7695 3.4727 7.2266 4.8516l0.050781 0.023437c8.0234 4.7578 16.398 7.4766 25.125 8.1484 0.57812 0.046875 1.0781 0.27344 1.5 0.67578 0.42969 0.40234 0.6875 0.89453 0.77344 1.4766 4.6758 33.355-2.9062 56.133-22.75 68.324-3.7969 2.3672-8.0312 4.3203-12.703 5.8516-0.51953 0.17578-1.0469 0.17578-1.5742 0-4.6602-1.5664-8.8672-3.5156-12.625-5.8516-19.836-12.191-27.418-34.965-22.742-68.324zm47.949 18.477-15.922 15.875-6.125-6.125c-0.49219-0.48438-1.082-0.72656-1.7734-0.72656-0.69531-0.003906-1.2852 0.23828-1.7734 0.72656-0.48438 0.49219-0.72656 1.082-0.72656 1.7734 0 0.69141 0.23828 1.2852 0.72656 1.7734l7.8984 7.8984c0.49219 0.48437 1.0859 0.72656 1.7734 0.72656s1.2812-0.23828 1.7734-0.72656l17.699-17.648c0.48438-0.49219 0.72656-1.0859 0.72656-1.7734 0.003906-0.68359-0.23828-1.2656-0.72656-1.75-0.49219-0.49219-1.0859-0.74219-1.7734-0.75-0.69141 0-1.2852 0.24219-1.7773 0.72656zm-35.148-9.5742c7.8047-0.9375 15.594-3.7891 23.375-8.5508 7.7266 4.7656 15.516 7.6172 23.375 8.5508 2.3906 25.527-5.4062 42.441-23.375 50.75-17.973-8.3086-25.766-25.223-23.375-50.75z" fill-rule="evenodd"/>
<text x="0.0" y="117.5" font-size="5.0" font-weight="bold" font-family="Arbeit Regular, Helvetica, Arial-Unicode, Arial, Sans-serif" fill="#000000">Created by BOYS</text><text x="0.0" y="122.5" font-size="5.0" font-weight="bold" font-family="Arbeit Regular, Helvetica, Arial-Unicode, Arial, Sans-serif" fill="#000000">from Noun Project</text></svg>