<svg xmlns="http://www.w3.org/2000/svg" version="1.1" viewBox="-5.0 -10.0 110.0 135.0">
 <path d="m7.6602 96.02v1.8086c0 0.55078-0.44922 1-1 1-0.55078 0-1-0.44922-1-1v-1.8086c0-0.55078 0.44922-1 1-1 0.55078 0 1 0.44922 1 1zm-1-2.8906c0.55078 0 1-0.44922 1-1v-1.8008c0-0.55078-0.44922-1-1-1-0.55078 0-1 0.44922-1 1v1.8008c-0.011718 0.55078 0.44141 1 1 1zm0-6.418c0.55078 0 1-0.44922 1-1v-0.89844c0-0.55078-0.44922-1-1-1-0.55078 0-1 0.44922-1 1v0.89844c-0.011718 0.55078 0.44141 1 1 1zm3.7383 6.3594h-1.7969c-0.55078 0-1 0.44922-1 1 0 0.55078 0.44922 1 1 1h1.8008c0.55078 0 1-0.44922 1-1-0.003906-0.55078-0.44141-1-1.0039-1zm-5.6875 0h-1.8008c-0.55078 0-1 0.44922-1 1 0 0.55078 0.44922 1 1 1h1.8086c0.55078 0 1-0.44922 1-1-0.007812-0.55078-0.45703-1-1.0078-1zm88.641-88.09c0.55078 0 1-0.44922 1-1v-1.8008c0-0.55078-0.44922-1-1-1-0.55078 0-1 0.44922-1 1v1.8086c-0.011718 0.54297 0.4375 0.99219 1 0.99219zm0 1.8906c-0.55078 0-1 0.44922-1 1v1.8008c0 0.55078 0.44922 1 1 1 0.55078 0 1-0.44922 1-1v-1.8008c0-0.55078-0.45312-1-1-1zm0 6.418c-0.55078 0-1 0.44922-1 1v0.89844c0 0.55078 0.44922 1 1 1 0.55078 0 1-0.44922 1-1v-0.89844c0-0.55078-0.45312-1-1-1zm3.7383-8.3672h-1.8008c-0.55078 0-1 0.44922-1 1s0.44922 1 1 1h1.8008c0.55078 0 1-0.44922 1-1s-0.44141-1-1-1zm-5.6914 0h-1.7969c-0.55078 0-1 0.44922-1 1s0.44922 1 1 1h1.8086c0.55078 0 1-0.44922 1-1s-0.44922-1-1.0117-1zm-59.367 42.508-10.898-8.4492 16.281-21.031c1.1406-1.4805 3.2695-1.75 4.75-0.60938l5.3984 4.1797 0.14844 0.12109c0.71875 0.55078 1.1719 1.3516 1.2891 2.25 0.10938 0.89844-0.12891 1.7891-0.67969 2.5zm1.8203-7.4688c0.17969 0.14062 0.39844 0.21094 0.60938 0.21094 0.30078 0 0.60156-0.12891 0.78906-0.39062l8.1484-10.52c0.33984-0.44141 0.26172-1.0703-0.17969-1.4102-0.44141-0.33984-1.0703-0.26172-1.4102 0.17969l-8.1484 10.52c-0.33203 0.4375-0.25 1.0703 0.19141 1.4102zm32.227 22.141c1.6406-1.6406 1.6406-4.3008 0-5.9414-0.78906-0.78906-1.8516-1.2305-2.9688-1.2305-1.1211 0-2.1797 0.44141-2.9688 1.2305-1.6406 1.6406-1.6406 4.3008 0 5.9414 1.6406 1.6289 4.3086 1.6289 5.9375 0zm-35.309-6.0117 2.4883-3.2188c0.25-0.32812 0.35938-0.73047 0.30859-1.1406-0.050781-0.41016-0.26172-0.78125-0.58984-1.0312l-13.867-10.738-1.3789-1.0703c-0.32812-0.25-0.73047-0.35938-1.1406-0.30859s-0.78125 0.26172-1.0312 0.58984l-2.4883 3.2188c-0.25 0.32812-0.35937 0.73047-0.30859 1.1406s0.26172 0.78125 0.58984 1.0312l15.25 11.797c0.32813 0.25 0.73047 0.35938 1.1406 0.30859 0.40625-0.046875 0.77734-0.24609 1.0273-0.57812zm14.699-22.738-5.0508 6.5312c6.5781-0.80078 13.109 1.4297 17.879 6.1992 1.9883 1.9883 3.5391 4.3008 4.6211 6.8516h0.19922c1.6602 0 3.2109 0.64062 4.3789 1.8203 2.4219 2.4219 2.4219 6.3516 0 8.7695-0.91016 0.91016-2.0312 1.4688-3.1992 1.6992-0.35938 2.0312-1.0117 3.9883-1.9219 5.8398 0.050781 0.089844 0.10156 0.17969 0.14844 0.28125 1.3008 0.46875 2.4805 1.2188 3.4805 2.2188 0.55078 0.55078 1.0312 1.1719 1.4297 1.8398 6.2305-10.922 4.4492-24.91-4.5391-33.898-3.6992-3.6992-8.3398-6.2891-13.422-7.4805-1.3008-0.33203-2.6445-0.55469-4.0039-0.67188zm2.082-26.57 9.0586 7.0195c0.12109 0.10156 0.28125 0.14062 0.42969 0.12109 0.14844-0.019531 0.28906-0.10156 0.39063-0.21875l1.7617-2.2695c0.19922-0.25 0.14844-0.62109-0.10156-0.82031l-9.0586-7.0195c-0.10156-0.078125-0.23047-0.12109-0.35938-0.12109h-0.070313c-0.14844 0.019532-0.28906 0.10156-0.39062 0.21875l-1.7617 2.2695c-0.19922 0.25-0.14844 0.61719 0.10156 0.82031zm5.1289 6.5-3.6602-2.8281-4.6914 6.0508 3.6602 2.8281zm35.23 84h-57.281c0.42188-7.5508 6.6914-13.559 14.34-13.559h28.609c7.6523-0.003906 13.922 6.0078 14.332 13.559zm-43-8.9531c-0.058594-0.55078-0.55859-0.94922-1.1016-0.89062-3.8516 0.42188-7.1719 2.8984-8.6914 6.4688-0.21875 0.51172 0.019531 1.1016 0.53125 1.3086 0.12891 0.050781 0.26172 0.078125 0.39062 0.078125 0.39063 0 0.76172-0.23047 0.92188-0.60938 1.2305-2.8984 3.9414-4.9219 7.0586-5.2617 0.55078-0.042969 0.94922-0.54297 0.89062-1.0938zm-1.8594-18.656c-2.7812 0-5.0508 1.8281-5.0508 4.0781v0.35938h14.02c1.75-2.0508 4.3516-3.3594 7.25-3.3594h0.19922c-0.92188-0.67969-2.1406-1.0781-3.4102-1.0781zm23.75 10.609c0-0.85156-0.14062-1.6797-0.42188-2.4688-0.37109-1.0703-0.98828-2.0508-1.7891-2.8516-1.0898-1.0898-2.4688-1.8086-3.9805-2.0781-0.42969-0.078124-0.87891-0.12109-1.3398-0.12109-4.1484 0-7.5195 3.3711-7.5195 7.5195v1.4414l15.051-0.003906z"/>
<text x="0.0" y="117.5" font-size="5.0" font-weight="bold" font-family="Arbeit Regular, Helvetica, Arial-Unicode, Arial, Sans-serif" fill="#000000">Created by Wehape</text><text x="0.0" y="122.5" font-size="5.0" font-weight="bold" font-family="Arbeit Regular, Helvetica, Arial-Unicode, Arial, Sans-serif" fill="#000000">from Noun Project</text></svg>