<svg xmlns="http://www.w3.org/2000/svg" xmlns:xlink="http://www.w3.org/1999/xlink" version="1.1" x="0px" y="0px" viewBox="0 0 100 125" style="enable-background:new 0 0 100 100;" xml:space="preserve"><path d="M9.5122166,4.7553167c0.007494-1.1974266,1.8431826-1.208468,1.852952,0.0000668  C11.3519192,5.9786401,9.5324249,5.9808483,9.5122166,4.7553167z M51.0322762,4.7553835  c-0.0654449-1.3644531-2.0988083-1.1034739-1.8310013,0.2301302C49.47015,6.0238099,51.0336151,5.8417935,51.0322762,4.7553835z   M39.0050125,70.472435c0,0,0.2082481,0.9209213,0.2082481,0.9208603c0.2864113,1.396904-1.8442535,1.862587-2.1488609,0.4605942  c-0.3790245-1.6255646-1.4709854-7.3859177-1.8200302-9.1328697c-3.1000328,1.5945854-6.841135,1.5980644-9.9441128,0  l-1.3267117,6.7756233c0,0,0,0,0,0.0109711c0.0062904,0.0093079-0.5064335,2.3356323-0.5042915,2.3462067  c-0.3131752,1.4025269-2.4332638,0.934845-2.1489964-0.4604645l0.1974068-0.9209213  C11.0253601,71.5468674,2.2433414,82.2146301,0.5,96.1496506h10.2293167  c0.230197-1.6445694,0.7235146-5.0104675,1.2389154-6.7646484c0.175458-0.5811157,0.7783871-0.92099,1.3595009-0.7455292  c0.5809803,0.1644135,0.9209223,0.778389,0.7455978,1.3594971c-0.4387131,1.5130157-0.888133,4.4731903-1.1293039,6.1506805  h34.6674156c-0.2411728-1.6774902-0.6905937-4.6376648-1.1401443-6.1506805  c-0.1644859-0.5811081,0.1644821-1.1950836,0.745594-1.3594971c0.5811157-0.1754608,1.1950188,0.1644135,1.3595047,0.7455292  c0.5152664,1.7541809,1.019558,5.120079,1.2497559,6.7646484h10.2183418  C58.2903099,82.192749,49.519268,71.5249176,39.0050125,70.472435z M13.5908537,36.0241127  c-0.0376081-7.6632881,2.9546862-13.9565697,9.0670881-16.4566174l-0.39468-0.9429379  c-0.0278378-0.9153004-0.0845852-1.8346844-0.2740955-2.7518587c0.3843765,1.1152506,0.5867348,2.4418955,0.7783871,3.6180429  c4.5186882-1.7348442,10.5047512-1.7329693,15.0093861,0c0.1897774-1.1942158,0.4119453-2.5587349,0.8003349-3.6838903  c-0.1753235,0.920989-0.2740936,1.8528852-0.2850685,2.795825l-0.4055214,0.9428711  c6.1211014,2.5623474,9.0966682,8.7442093,9.078064,16.4785652c1.5938454-0.5781021,2.8967361-1.2383156,3.4534912,0.92099  c0.6169815,2.7779541-1.6360054,6.5152435-4.2867508,5.854702c-2.3328896,9.229496-9.1415024,21.0816345-18.4414654,18.528923  c-6.729784-2.521328-10.9991379-10.0643654-13.287859-18.528923c-2.8342342,0.7378349-5.2234659-3.7581711-4.0894785-6.4138031  C10.9782505,34.8195267,12.3987808,35.6215363,13.5908537,36.0241127z M31.3413239,39.8066368  c-0.2193546,0.4605293-0.0877953,0.9977455,0.2960453,1.31567c0.4274693,0.3398781,2.2802906,1.7213287,4.6924076,1.7213287  c0.6578026,0,1.348526-0.0987053,2.0721741-0.361824c3.1903725-1.1292381,5.2956047-4.8021545,4.9995613-8.7381248  c-0.0438995-0.5780334-0.5408287-1.020092-1.1181984-1.0085144C38.1937027,32.5139427,32.8639717,35.9077415,31.3413239,39.8066368z   M33.0735588,34.9387054l2.0282745-1.8747673c1.0435181-0.9764633-0.4385757-2.5743256-1.4910583-1.6117153l-2.0282784,1.8748341  C30.537241,34.3050613,32.0238876,35.8981743,33.0735588,34.9387054z M27.0982037,51.3844147  c-0.5152664-0.3179283-1.1950169-0.1644173-1.5128765,0.3508492c-0.3179932,0.5153351-0.1536446,1.1950836,0.3617573,1.5129433  c2.5630836,1.6263695,6.1927013,1.5684204,8.6943569-0.1534424c1.1868515-0.788559-0.0281067-2.6173553-1.2171021-1.8199615  C31.5934715,52.4917679,28.972971,52.5356026,27.0982037,51.3844147z M25.4536324,33.0639381l2.017437,1.8747673  c0.4563789,0.4040489,1.1390743,0.3818321,1.5567741-0.0657806c0.4057903-0.4385109,0.3838406-1.1402092-0.065712-1.5458679  l-2.0173035-1.8748341c-0.4495544-0.4056549-1.1402779-0.3837051-1.5569096,0.0657806  C24.9822636,31.956583,25.0042133,32.6582832,25.4536324,33.0639381z M24.2148514,42.8436356  c2.4119835,0,4.2648029-1.3704758,4.6924076-1.7213287c0.39468-0.3179245,0.5153999-0.8551407,0.3068848-1.3154678  c-1.5822048-3.9344978-6.8036633-7.2696114-10.9526978-7.0718689c-0.5776348-0.0115089-1.063591,0.4306831-1.1073551,1.0087166  C16.806921,38.4322815,19.829731,42.8070297,24.2148514,42.8436356z M41.2197227,35.0044861  c-2.4518661,0.0573502-6.4104538,2.5970764-7.4554405,4.9118309C37.14711,42.0592918,41.0286064,39.2512207,41.2197227,35.0044861z   M26.7911854,39.9053421c-1.0647964-2.2982254-4.9974194-4.8422356-7.4553089-4.900856  C19.5231133,39.2441292,23.3967152,42.0705338,26.7911854,39.9053421z M47.1729965,57.8092537  c-0.9029884,1.1050835,0.7593803,2.505806,1.6884689,1.4032669c0,0.0000687,21.7959137-26.0279961,21.7959137-26.0279961  l-1.6116409-1.4910622L47.1729965,57.8092537z M72.1376038,72.9831238c-0.2900238,0.7041092,0.2651291,1.5120087,1.0195618,1.502037  c0.4385757,0,0.8552017-0.2740936,1.0196915-0.7016983l12.3670654-31.7511406l-2.0830154-0.7016983L72.1376038,72.9831238z   M95.6439362,29.5007019c-0.5611725,2.0421276-1.58461,4.0023499-3.0699158,5.5147591  c-0.21521,0.2082481-0.4898376,0.3170547-0.778389,0.328968c-3.4718246-0.7820015-7.0215454-2.4514656-10.4704895-4.4403954  c-3.3438797-1.9734726-6.3698959-4.3197422-8.7710419-6.7975731c-0.2740936-0.2850037-0.3725967-0.7016335-0.2521439-1.0854053  c0.5856628-2.0488892,1.8401031-3.857275,3.3440094-5.3503437c-15.9473038-3.4391041-11.9780083,9.7714653,2.6641312,18.3205452  c9.9552231,5.887558,18.7591934,6.2603569,20.7327271,2.9273148  C100.2816086,36.8135414,98.9550323,33.2393303,95.6439362,29.5007019z M91.4228973,33.0090637  c1.4092941-1.6445694,2.276413-3.7744942,2.3791962-5.9313869c0.4470139-11.2745056-15.0641251-14.515132-19.1976318-4.0236988  C78.9262772,27.3761292,85.5606384,31.2947655,91.4228973,33.0090637z M76.3478012,44.2748718  c-0.5310593-0.2928314-1.1980972-0.0985031-1.4893188,0.4320221l-5.7185287,10.3931274  c-0.2922974,0.5310593-0.0985031,1.1980972,0.431488,1.4893227c0.5203552,0.2886162,1.1962204,0.1042595,1.4893188-0.4314842  l5.7185287-10.3942032C77.0715866,45.2331314,76.8777924,44.5666313,76.3478012,44.2748718z M64.4599915,48.8804207  c0,0-1.6020088,2.0583229-3.2679939,4.1990204c-1.8049049,2.3190346-3.6850243,4.7347679-3.6850243,4.7347679  c-0.8723412,1.131176,0.8388786,2.4768906,1.7302246,1.3468513c0,0.0000687,6.9530258-8.9337196,6.9530258-8.9337196  C67.0637665,49.0952263,65.3465195,47.7498436,64.4599915,48.8804207z"/><text x="0" y="115" fill="#000000" font-size="5px" font-weight="bold" font-family="'Helvetica Neue', Helvetica, Arial-Unicode, Arial, Sans-serif">Created by karyative</text><text x="0" y="120" fill="#000000" font-size="5px" font-weight="bold" font-family="'Helvetica Neue', Helvetica, Arial-Unicode, Arial, Sans-serif">from the Noun Project</text></svg>