<svg xmlns="http://www.w3.org/2000/svg" xmlns:xlink="http://www.w3.org/1999/xlink" version="1.1" x="0px" y="0px" viewBox="0 0 512 640" style="enable-background:new 0 0 512 512;" xml:space="preserve"><g><g><path d="M156.218,329.254c0.742,0.557,1.67,0.835,2.597,0.835c0.742,0,1.484-0.186,2.18-0.557    c1.484-0.788,2.458-2.365,2.458-4.081V214.793c0-8.394-6.817-15.212-15.258-15.212H43.566c-8.394,0-15.212,6.817-15.212,15.212    v81.254c0,8.394,6.817,15.258,15.212,15.258h86.309L156.218,329.254z M72.984,257.035c0,2.563-2.077,4.638-4.638,4.638    c-2.561,0-4.638-2.074-4.638-4.638v-6.119c0-2.563,2.077-4.638,4.638-4.638c2.561,0,4.638,2.074,4.638,4.638V257.035z     M100.534,257.035c0,2.563-2.077,4.638-4.638,4.638s-4.638-2.074-4.638-4.638v-6.119c0-2.563,2.077-4.638,4.638-4.638    s4.638,2.074,4.638,4.638V257.035z M128.085,257.04c0,2.563-2.077,4.638-4.638,4.638s-4.638-2.074-4.638-4.638v-6.123    c0-2.563,2.077-4.638,4.638-4.638s4.638,2.074,4.638,4.638V257.04z"/><path d="M128.067,431.053c0,0,0,0-0.046,0c-26.389,0-47.862,21.473-47.862,47.862c0,1.902,1.113,3.571,2.875,4.313    c14.934,6.168,30.007,9.276,45.08,9.276c15.026,0,30.099-3.107,45.033-9.276c1.762-0.742,2.875-2.411,2.875-4.313    c0-12.754-5.009-24.766-14.053-33.809C152.925,436.062,140.867,431.053,128.067,431.053z"/><path d="M94.396,166.421h116.454l35.804,24.488c0.789,0.51,1.716,0.788,2.643,0.788c0.742,0,1.484-0.185,2.133-0.51    c1.531-0.835,2.505-2.412,2.505-4.128V38.372c0-10.435-8.487-18.876-18.876-18.876H94.396c-10.389,0-18.876,8.441-18.876,18.876    v109.173C75.52,157.98,84.008,166.421,94.396,166.421z M149.206,52.348c5.684,0,11.067,1.78,15.535,5.077    c4.441-3.265,9.892-5.077,15.492-5.077c14.475,0,26.251,11.758,26.251,26.205c0,26.608-37.752,49.503-39.358,50.468    c-0.734,0.439-1.558,0.657-2.382,0.657s-1.646-0.217-2.38-0.657c-1.608-0.96-39.408-23.859-39.408-50.468    C122.956,64.105,134.731,52.348,149.206,52.348z"/><path d="M164.739,119.569c10.886-7.111,32.469-24.597,32.469-41.015c0-9.334-7.616-16.93-16.975-16.93    c-4.656,0-8.965,1.83-12.136,5.15c-0.87,0.915-2.077,1.431-3.34,1.436c-0.005,0-0.009,0-0.014,0c-1.257,0-2.462-0.512-3.336-1.413    c-3.22-3.338-7.555-5.172-12.201-5.172c-9.359,0-16.975,7.595-16.975,16.93C132.231,95.007,153.84,112.471,164.739,119.569z"/><path d="M197.634,302.54c0,23.05,18.69,41.786,41.647,41.786c11.502,0,21.937-4.684,29.496-12.244    c7.56-7.56,12.29-17.995,12.29-29.543c0-22.911-18.737-41.601-41.787-41.601C216.323,260.939,197.634,279.63,197.634,302.54z"/><path d="M128.067,358.101c-8.07,0-15.63,3.154-21.381,8.858c-5.704,5.751-8.858,13.31-8.858,21.38    c0,8.07,3.153,15.676,8.858,21.427s13.311,8.904,21.381,8.904c8.07,0,15.675-3.154,21.426-8.904    c5.751-5.705,8.905-13.357,8.905-21.427c0-8.07-3.154-15.629-8.905-21.38C143.742,361.255,136.136,358.101,128.067,358.101z"/><path d="M306.529,433.511c0.046-17.902-6.957-34.737-19.711-47.445c-6.354-6.354-13.728-11.27-21.798-14.609    c-8.07-3.339-16.789-5.055-25.739-5.102c-17.902,0-34.783,7.003-47.491,19.711c-12.707,12.708-19.664,29.543-19.664,47.445    c0,1.855,1.113,3.571,2.828,4.267c21.381,8.858,42.9,13.31,64.42,13.31c21.472,0,42.946-4.452,64.326-13.264    C305.416,437.082,306.529,435.413,306.529,433.511z"/><path d="M371.968,409.766c5.751-5.705,8.905-13.357,8.905-21.427c0-8.07-3.154-15.629-8.905-21.38    c-5.751-5.704-13.357-8.858-21.427-8.858c-8.07,0-15.63,3.154-21.381,8.858c-5.704,5.751-8.858,13.31-8.858,21.38    c0,8.07,3.153,15.676,8.858,21.427c5.705,5.751,13.311,8.904,21.381,8.904C358.611,418.671,366.263,415.517,371.968,409.766z"/><path d="M368.907,434.671c-5.751-2.365-11.966-3.618-18.365-3.618c-26.435,0-47.909,21.473-47.909,47.862    c0,1.902,1.113,3.571,2.876,4.313c14.934,6.168,30.006,9.276,45.079,9.276c15.026,0,30.099-3.107,45.033-9.276    c1.762-0.742,2.875-2.411,2.875-4.313c0-12.754-4.962-24.766-14.053-33.809C379.945,440.607,374.658,437.082,368.907,434.671z"/><path d="M464.677,152.554H323.039c-10.435,0-18.968,8.487-18.968,18.969v149.754c0,1.716,0.927,3.293,2.458,4.081    c0.695,0.371,1.437,0.557,2.18,0.557c0.927,0,1.809-0.278,2.597-0.835l36.082-24.627h117.29c10.481,0,18.968-8.487,18.968-18.969    V171.523C483.646,161.041,475.159,152.554,464.677,152.554z M399.049,234.503h-40.628c-2.561,0-4.638-2.074-4.638-4.638    s2.077-4.638,4.638-4.638h40.628c2.561,0,4.638,2.074,4.638,4.638S401.61,234.503,399.049,234.503z M429.306,205.114h-70.885    c-2.561,0-4.638-2.074-4.638-4.638s2.077-4.638,4.638-4.638h70.885c2.561,0,4.638,2.074,4.638,4.638    S431.867,205.114,429.306,205.114z"/></g></g><text x="0" y="527" fill="#000000" font-size="5px" font-weight="bold" font-family="'Helvetica Neue', Helvetica, Arial-Unicode, Arial, Sans-serif">Created by Icons Field</text><text x="0" y="532" fill="#000000" font-size="5px" font-weight="bold" font-family="'Helvetica Neue', Helvetica, Arial-Unicode, Arial, Sans-serif">from the Noun Project</text></svg>