<svg xmlns="http://www.w3.org/2000/svg" xmlns:xlink="http://www.w3.org/1999/xlink" version="1.1" x="0px" y="0px" viewBox="0 0 100 125" enable-background="new 0 0 100 100" xml:space="preserve"><g><polygon points="85.8,28.8 79.2,29.7 79.6,33 86.4,32  "/><polygon points="85.6,27 85.1,23.8 78.5,24.7 78.9,28  "/><path d="M73.1,12.8c0.5,0.4,1.1,0.5,1.8,0.5l10.4-1.5c1.3-0.2,2.2-1.5,2-2.7c-0.2-1.3-1.4-2.2-2.7-2L74.2,8.5   c-0.6,0.1-1.2,0.4-1.6,0.9c-0.4,0.5-0.5,1.1-0.5,1.8C72.2,11.9,72.6,12.4,73.1,12.8z"/><path d="M97.3,82.7l-10.6-49l-7,1L80,39c2.6,2.4,4.2,5.9,4.2,9.7c0,3.1-1.1,6-2.8,8.2l1,12.8c0.4,0.3,0.8,0.6,1.2,0.9   c0.9,0.8,1.7,1.7,2.2,2.7c0.5,1.1,0.8,2.2,0.8,3.4c0,2.4-1.1,4.6-3,6.2c0,0-0.1,0.1-0.1,0.1l0.1,1.6c0,0.3,0.1,0.6,0.1,0.9   c0.8,3.8,4.5,6.2,8.3,5.4C95.7,90.2,98.1,86.5,97.3,82.7z"/><rect x="78" y="19.2" transform="matrix(0.9896 -0.1442 0.1442 0.9896 -2.1601 11.9363)" width="6.6" height="3.3"/><rect x="77.2" y="14.2" transform="matrix(0.9895 -0.1444 0.1444 0.9895 -1.4464 11.7975)" width="6.6" height="3.3"/><path d="M20.7,63.4l4.3-5.9h7.4L35,61c1-0.4,2-0.8,3-1.1l-3-4.2l2.3-7l7-2.3l6.3,4.6c0.1,0.1,0.2,0.1,0.3,0.2   c-0.1,2.3-0.6,4.4-1.4,6.4c0.6,0,1.2,0,1.8,0c0.8,0,1.7,0,2.6,0.1c0.8-2.5,1.2-5.1,1.2-7.8c0-14.5-11.8-26.2-26.2-26.2   c-14.5,0-26.2,11.8-26.2,26.2c0,10.2,5.9,19,14.4,23.4c0.5-1,1.2-1.8,2.1-2.5c1.1-0.9,2.2-1.7,3.3-2.5L20.7,63.4z M30.3,34.1   l6.3-4.6c0.1-0.1,0.2-0.2,0.3-0.3c3.5,1.4,6.6,3.6,9,6.5c-0.1,0.1-0.1,0.2-0.2,0.3l-2.4,7.4l-7.1,2.3l-5.8-4.2V34.1z M20.6,29.2   c0.1,0.1,0.2,0.2,0.3,0.3l6.3,4.6v7.5l-5.8,4.2l-7.1-2.3l-2.4-7.4c0-0.1-0.1-0.2-0.2-0.3C14.1,32.9,17.1,30.6,20.6,29.2z    M18.3,61.6h-7.8c-0.1,0-0.3,0-0.4,0.1c-2-3.1-3.2-6.7-3.4-10.5C6.8,51.1,6.9,51,7,51l6.3-4.6l7,2.3l2.3,7L18.3,61.6z"/><path d="M19,76.8c0,1.5,0.7,2.9,1.8,3.8c1.4,1.2,3.3,2.5,5.4,3.9V69c-2.1,1.4-3.9,2.8-5.4,3.9C19.7,73.9,19,75.3,19,76.8z"/><path d="M29.6,67v19.6C35.5,90,43.1,93,51.2,93c8.1,0,15.7-3,21.7-6.4V67c-5.9-3.4-13.5-6.4-21.7-6.4C43.1,60.5,35.5,63.6,29.6,67z    M52.9,71.7v3.4h4.3v-2.2c0-0.9,0.7-1.7,1.7-1.7c0.9,0,1.7,0.7,1.7,1.7v2.2h3.9c0.9,0,1.7,0.7,1.7,1.7c0,0.9-0.7,1.7-1.7,1.7h-3.9   v2.2c0,0.9-0.7,1.7-1.7,1.7c-0.9,0-1.7-0.7-1.7-1.7v-2.2h-4.3v3.4c0,0.9-0.7,1.7-1.7,1.7c-0.9,0-1.7-0.7-1.7-1.7v-3.4h-4.3v2.2   c0,0.9-0.7,1.7-1.7,1.7c-0.9,0-1.7-0.7-1.7-1.7v-2.2H38c-0.9,0-1.7-0.7-1.7-1.7c0-0.9,0.7-1.7,1.7-1.7H42v-2.2   c0-0.9,0.7-1.7,1.7-1.7c0.9,0,1.7,0.7,1.7,1.7v2.2h4.3v-3.4c0-0.9,0.7-1.7,1.7-1.7C52.2,70,52.9,70.8,52.9,71.7z"/><path d="M81.6,73c-1.4-1.2-3.3-2.5-5.4-3.9v15.5c2.1-1.4,3.9-2.8,5.4-3.9c1.2-0.9,1.8-2.3,1.8-3.8C83.5,75.3,82.8,73.9,81.6,73z"/><path d="M72.9,38.5c-0.1,3.2-1.5,6.2-3.7,8.5c-2.3,2.3-5.3,3.6-8.5,3.7c0.4,2,1.4,3.8,2.8,5.3c1.5,1.5,3.3,2.4,5.3,2.8   c0.1-3.2,1.5-6.2,3.7-8.5c2.3-2.3,5.3-3.6,8.5-3.7c-0.4-2-1.4-3.8-2.8-5.3C76.7,39.9,74.9,38.9,72.9,38.5z"/><path d="M78.2,56c1.9-1.9,2.9-4.4,3-7c-2.6,0.1-5.1,1.2-7,3c-1.9,1.9-2.9,4.4-3,7C73.8,59,76.3,57.9,78.2,56z"/><path d="M70.5,38.3c-2.6,0.1-5.1,1.2-7,3c-1.9,1.9-2.9,4.4-3,7c2.6-0.1,5.1-1.2,7-3C69.3,43.4,70.4,40.9,70.5,38.3z"/></g><text x="0" y="115" fill="#000000" font-size="5px" font-weight="bold" font-family="'Helvetica Neue', Helvetica, Arial-Unicode, Arial, Sans-serif">Created by Adrien Coquet</text><text x="0" y="120" fill="#000000" font-size="5px" font-weight="bold" font-family="'Helvetica Neue', Helvetica, Arial-Unicode, Arial, Sans-serif">from the Noun Project</text></svg>