<svg xmlns="http://www.w3.org/2000/svg" data-name="Layer 1" viewBox="0 0 100 125" x="0px" y="0px"><defs><style>
      .cls-1 {
        fill-rule: evenodd;
      }
    </style></defs><path class="cls-1" d="m5.039,77.448c-.16.596.186,1.21.776,1.384l4.779,1.506c.037.014.075.027.115.037.604.164,1.227-.195,1.39-.799l5.635-21.029c.14-.52-.106-1.055-.564-1.297-1.372-.794-3.213-1.633-4.585-2.427-.65-.377-1.473-.035-1.667.689-1.959,7.312-3.918,14.624-5.878,21.936h0Zm43.793,17.551h-24.599c-.359-.094-1.078-1.421-1.642-2.464-.074-.134-.141-.259-.354-.637h.002l-7.567-13.989c-.027-.05-.096-.136-.185-.237l3.835-14.314.976.738c.145.118.307.202.475.253v.003s6.068,1.075,6.068,1.075c.286.085.534.178.727.309.163.11.315.273.46.526l5.675,9.664c.095.165.217.302.36.41l4.063,3.844c.806.692.427,3.86-.055,5.172-.185.501-.457,1.048-.829,1.447-.489.685-1.57.241-2.06-.239l-7.62-6.548c-.409-.35-1.024-.302-1.373.107-.35.408-.302,1.023.106,1.373,2.935,2.522,5.679,5.338,8.984,7.371h3.878l11.008.122c.08.002.261.729.375,1.386.079.461.113.964.101,1.466-.011.516-.067,1.037-.165,1.52-.177.87-.401,1.58-.599,1.643h-.045Zm-9.296-26.053c-2.32,1.034-4.16,2.263-5.989,4.018-.24.231-.294.582-.133.874l.736,1.333,4.121,3.671c1.362,1.214.541,5.567-.081,7.875-.124.458.212.905.686.915,7.107.143,15.283.004,22.391-.064.481-.004.822-.461.691-.924-.625-2.198-1.489-6.329-.069-7.595l3.509-3.672.737-1.332c.161-.292.108-.644-.133-.875-1.829-1.755-3.944-3.192-6.265-4.225-2.539-1.132-5.328-1.78-8.262-1.838v-12.876l3.726-4.48c2.265.427,4.317.57,6.158.446,3.296-.221,5.928-1.289,7.924-3.092,1.986-1.794,3.293-4.278,3.953-7.341.476-2.211.614-4.731.427-7.518-.053-.799-.744-1.404-1.544-1.351-.224.015-.433.08-.616.184-4.416,2.238-7.851,3.365-10.449,4.218-6.043,1.983-8.199,2.69-8.031,9.901.181-.176.364-.366.548-.536,1.615-1.494,3.632-2.355,5.547-3.173.679-.291,2.988-1.299,3.562-1.578.466-.228,1.03-.034,1.258.432.228.468.035,1.031-.433,1.259-.671.327-1.331.609-2.005.897-1.244.531-5.865,2.499-7.623,4.369-.147.134-.314.299-.429.463l-3.45,4.148-3.45-4.148c-.115-.164-.281-.329-.428-.463-1.758-1.871-6.379-3.838-7.623-4.369-.673-.288-1.333-.57-2.005-.897-.467-.228-.661-.791-.433-1.259.228-.466.792-.66,1.259-.432.574.279,2.883,1.287,3.561,1.578,1.915.818,3.932,1.68,5.548,3.173.185.171.367.359.548.536.168-7.21-1.988-7.918-8.03-9.901-2.599-.852-6.034-1.98-10.45-4.218-.184-.104-.393-.169-.616-.184-.799-.053-1.491.551-1.544,1.351-.186,2.787-.048,5.307.428,7.518.66,3.063,1.967,5.547,3.953,7.341,1.996,1.803,4.628,2.871,7.924,3.092,1.842.124,3.893-.019,6.158-.446l3.77,4.532v12.823c-3.165.042-5.981.48-9.032,1.839h0Zm55.424,8.502c.161.596-.185,1.21-.775,1.384l-4.779,1.506c-.038.014-.076.027-.115.037-.605.164-1.228-.195-1.39-.799l-5.635-21.029c-.14-.52.106-1.055.564-1.297,1.372-.794,3.213-1.633,4.584-2.427.65-.377,1.474-.035,1.668.689,1.96,7.312,3.918,14.624,5.878,21.936h0Zm-43.792,17.551h-.046c-.198-.062-.422-.771-.599-1.642-.098-.483-.154-1.005-.165-1.52-.011-.503.022-1.005.102-1.466.114-.658.295-1.385.375-1.386l11.008-.122h3.879c3.304-2.033,6.048-4.85,8.983-7.371.408-.35.456-.965.106-1.373-.349-.409-.964-.457-1.373-.107l-7.62,6.548c-.49.48-1.571.923-2.06.239-.372-.399-.644-.946-.828-1.447-.482-1.312-.861-4.48-.055-5.172l4.062-3.844c.142-.108.265-.245.36-.41l5.675-9.664c.145-.253.297-.415.459-.526.194-.131.442-.224.727-.309l6.069-1.075v-.003c.168-.05.329-.134.474-.253l.976-.738,3.836,14.314c-.089.101-.158.187-.186.237l-7.567,13.989h.002c-.213.378-.28.503-.353.637-.566,1.043-1.284,2.37-1.643,2.464h-24.598Zm-2.576-88.593c0-.777.63-1.406,1.407-1.406s1.407.629,1.407,1.406v8.998c0,.776-.63,1.407-1.407,1.407s-1.407-.63-1.407-1.407V6.406h0Zm25.753,9.476c.549-.546,1.436-.543,1.983.006.546.549.544,1.437-.005,1.983l-6.376,6.362c-.549.546-1.438.544-1.983-.005-.546-.549-.543-1.437.005-1.983l6.377-6.362h0Zm-50.671,1.989c-.549-.546-.551-1.434-.005-1.983.546-.549,1.434-.551,1.983-.006l6.376,6.362c.549.546.551,1.434.005,1.983-.546.549-1.434.551-1.983.005l-6.376-6.362Z"/><text x="0" y="115" fill="#000000" font-size="5px" font-weight="bold" font-family="'Helvetica Neue', Helvetica, Arial-Unicode, Arial, Sans-serif">Created by Rusma Ratri Handini</text><text x="0" y="120" fill="#000000" font-size="5px" font-weight="bold" font-family="'Helvetica Neue', Helvetica, Arial-Unicode, Arial, Sans-serif">from the Noun Project</text></svg>