<svg xmlns="http://www.w3.org/2000/svg" viewBox="0 0 32 40" x="0px" y="0px"><title>circle, square, star, triangle, shape symbol</title><g data-name="Shape Symbols"><path d="M15,2V14a.99943.99943,0,0,1-1,1H2a.99943.99943,0,0,1-1-1V2A.99943.99943,0,0,1,2,1H14A.99943.99943,0,0,1,15,2ZM8.89453,17.55273a1.04127,1.04127,0,0,0-1.78906,0l-6,12A1.00038,1.00038,0,0,0,2,31H14a1.00038,1.00038,0,0,0,.89453-1.44727ZM19.93164,9.99512l-.627,3.84375a1,1,0,0,0,1.4707,1.03613L24,13.09277,27.22461,14.875a.99887.99887,0,0,0,1.05957-.05762,1.00157,1.00157,0,0,0,.41113-.97851l-.627-3.84375,2.64746-2.71289a.99984.99984,0,0,0-.56445-1.68653L26.5332,5.042,24.90527,1.5752a1,1,0,0,0-1.81054,0L21.4668,5.042l-3.61817.55371a.99984.99984,0,0,0-.56445,1.68653ZM24,17a7,7,0,1,0,7,7A7.0085,7.0085,0,0,0,24,17Z"/></g><text x="0" y="47" fill="#000000" font-size="5px" font-weight="bold" font-family="'Helvetica Neue', Helvetica, Arial-Unicode, Arial, Sans-serif">Created by Kmg Design</text><text x="0" y="52" fill="#000000" font-size="5px" font-weight="bold" font-family="'Helvetica Neue', Helvetica, Arial-Unicode, Arial, Sans-serif">from the Noun Project</text></svg>