<svg xmlns="http://www.w3.org/2000/svg" version="1.1" viewBox="-5.0 -10.0 110.0 135.0">
 <path d="m30.891 27.602h2.8672v-5.4688h-7.1992c-0.54688 0-0.99219-0.44531-0.99219-0.99219v-9.4648c0-0.054687 0.003906-0.10547 0.011719-0.15625-1.2539-0.41016-2.1562-1.5898-2.1562-2.9805 0-1.7305 1.4023-3.1367 3.1367-3.1367 1.7305 0 3.1367 1.4023 3.1367 3.1367 0 1.3906-0.90234 2.5703-2.1562 2.9805 0.007813 0.050781 0.011719 0.10156 0.011719 0.15625v8.4766h7.1992c0.54688 0 0.99219 0.44531 0.99219 0.99219v6.4609h13.273l-0.007813-15.93c0-0.054687 0.003907-0.10547 0.011719-0.15625-1.2539-0.41016-2.1562-1.5898-2.1562-2.9805 0-1.7305 1.4023-3.1367 3.1367-3.1367 1.7305 0 3.1367 1.4023 3.1367 3.1367 0 1.3906-0.90234 2.5703-2.1562 2.9805 0.007812 0.050781 0.011719 0.10156 0.011719 0.15625v15.926h13.273v-6.4609c0-0.54688 0.44531-0.99219 0.99219-0.99219h7.1992l-0.003906-8.4727c0-0.054687 0.003906-0.10547 0.011719-0.15625-1.2539-0.41016-2.1602-1.5898-2.1602-2.9805 0-1.7305 1.4023-3.1367 3.1367-3.1367 1.7305 0 3.1367 1.4023 3.1367 3.1367 0 1.3906-0.90234 2.5703-2.1562 2.9805 0.007813 0.050781 0.011719 0.10156 0.011719 0.15625v9.4688c0 0.54688-0.44531 0.99219-0.99219 0.99219h-7.1992v5.4688h2.8672c1.8086 0 3.2852 1.4805 3.2852 3.2852v2.8672h5.4688v-7.1992c0-0.54688 0.44531-0.99219 0.99219-0.99219h9.4688c0.054687 0 0.10547 0.003906 0.15625 0.011719 0.41016-1.2539 1.5898-2.1602 2.9805-2.1602 1.7305 0 3.1367 1.4023 3.1367 3.1367 0 1.7305-1.4023 3.1367-3.1367 3.1367-1.3906 0-2.5703-0.90625-2.9805-2.1602-0.050781 0.007812-0.10156 0.011719-0.15625 0.011719h-8.4766v7.1992c0 0.54687-0.44531 0.99219-0.99219 0.99219h-6.4609v13.273l15.93 0.003907c0.054687 0 0.10547 0.003906 0.15625 0.011719 0.41016-1.2539 1.5898-2.1562 2.9805-2.1562 1.7305 0 3.1367 1.4023 3.1367 3.1367 0 1.7305-1.4023 3.1367-3.1367 3.1367-1.3906 0-2.5703-0.90234-2.9805-2.1562-0.050781 0.007813-0.10156 0.011719-0.15625 0.011719l-15.926-0.003906v13.273h6.4609c0.54688 0 0.99219 0.44531 0.99219 0.99219v7.1992h8.4766c0.054687 0 0.10547 0.003907 0.15625 0.011719 0.41016-1.2539 1.5898-2.1562 2.9805-2.1562 1.7305 0 3.1367 1.4023 3.1367 3.1367 0 1.7305-1.4023 3.1367-3.1367 3.1367-1.3906 0-2.5703-0.90234-2.9805-2.1562-0.050781 0.007812-0.10156 0.011718-0.15625 0.011718h-9.4688c-0.54688 0-0.99219-0.44531-0.99219-0.99219v-7.1992h-5.4688v2.8672c0 1.8086-1.4805 3.2852-3.2852 3.2852h-2.8672v5.4688h7.1992c0.54688 0 0.99219 0.44531 0.99219 0.99219v9.4648c0 0.054687-0.003906 0.10547-0.011719 0.15625 1.2539 0.41016 2.1562 1.5898 2.1562 2.9805 0 1.7305-1.4023 3.1367-3.1367 3.1367-1.7305 0-3.1367-1.4023-3.1367-3.1367 0-1.3906 0.90234-2.5703 2.1602-2.9805-0.007812-0.050781-0.011719-0.10156-0.011719-0.15625v-8.4766h-7.1992c-0.54687 0-0.99219-0.44531-0.99219-0.99219v-6.4609l-13.273 0.003906v15.922c0 0.054687-0.003907 0.10547-0.011719 0.15625 1.2539 0.41016 2.1562 1.5898 2.1562 2.9805 0 1.7305-1.4023 3.1367-3.1367 3.1367-1.7305 0-3.1367-1.4023-3.1367-3.1367 0-1.3906 0.90234-2.5703 2.1562-2.9805-0.007812-0.050781-0.011719-0.10156-0.011719-0.15625v-15.926h-13.27v6.4609c0 0.54688-0.44531 0.99219-0.99219 0.99219h-7.1992v8.4766c0 0.054687-0.003906 0.10547-0.011719 0.15625 1.2539 0.41016 2.1562 1.5898 2.1562 2.9805 0 1.7305-1.4023 3.1367-3.1367 3.1367-1.7305 0-3.1367-1.4023-3.1367-3.1367 0-1.3906 0.90234-2.5703 2.1562-2.9805-0.007813-0.050781-0.011719-0.10156-0.011719-0.15625v-9.4648c0-0.54688 0.44531-0.99219 0.99219-0.99219h7.1992v-5.4688h-2.8672c-1.8086 0-3.2852-1.4805-3.2852-3.2852v-2.8672h-5.4688v7.1992c0 0.54688-0.44531 0.99219-0.99219 0.99219l-9.4648-0.007812c-0.054687 0-0.10547-0.003906-0.15625-0.011719-0.41016 1.2539-1.5898 2.1562-2.9805 2.1562-1.7305 0-3.1367-1.4023-3.1367-3.1367 0-1.7305 1.4023-3.1367 3.1367-3.1367 1.3906 0 2.5703 0.90234 2.9805 2.1562 0.050781-0.007813 0.10156-0.011719 0.15625-0.011719h8.4766v-7.1992c0-0.54688 0.44531-0.99219 0.99219-0.99219h6.4609l-0.003907-13.266h-15.926c-0.054687 0-0.10547-0.003907-0.15625-0.011719-0.41016 1.2539-1.5898 2.1562-2.9805 2.1562-1.7305 0-3.1367-1.4023-3.1367-3.1367 0-1.7305 1.4023-3.1367 3.1367-3.1367 1.3906 0 2.5703 0.90234 2.9805 2.1562 0.050781-0.007812 0.10156-0.011719 0.15625-0.011719h15.926v-13.27h-6.4609c-0.54688 0-0.99219-0.44531-0.99219-0.99219v-7.1992h-8.4727c-0.054687 0-0.10547-0.003906-0.15625-0.011719-0.41016 1.2539-1.5898 2.1602-2.9805 2.1602-1.7305 0-3.1367-1.4023-3.1367-3.1367 0-1.7305 1.4023-3.1367 3.1367-3.1367 1.3906 0 2.5703 0.90625 2.9805 2.1602 0.050781-0.007812 0.10156-0.011719 0.15625-0.011719h9.4648c0.54688 0 0.99219 0.44531 0.99219 0.99219v7.1992h5.4688v-2.8672c0-1.8125 1.4805-3.293 3.2891-3.293zm4.4102 6.4688c-0.67969 0-1.2344 0.55469-1.2344 1.2344v29.395c0 0.67969 0.55469 1.2344 1.2344 1.2344l29.398-0.003906c0.67969 0 1.2344-0.55469 1.2344-1.2344l-0.003906-29.395c0-0.67969-0.55469-1.2344-1.2344-1.2344zm14.699 10.289c-3.1172 0-5.6406 2.5234-5.6406 5.6406s2.5234 5.6406 5.6406 5.6406 5.6406-2.5234 5.6406-5.6406-2.5234-5.6406-5.6406-5.6406zm-14.699-12.273c-1.7734 0-3.2148 1.4414-3.2148 3.2148v29.395c0 1.7734 1.4414 3.2148 3.2148 3.2148l29.398 0.003906c1.7734 0 3.2148-1.4414 3.2148-3.2148v-29.398c0-1.7734-1.4414-3.2148-3.2148-3.2148z" fill-rule="evenodd"/>
<text x="0.0" y="117.5" font-size="5.0" font-weight="bold" font-family="Arbeit Regular, Helvetica, Arial-Unicode, Arial, Sans-serif" fill="#000000">Created by Dava Arya Ditya</text><text x="0.0" y="122.5" font-size="5.0" font-weight="bold" font-family="Arbeit Regular, Helvetica, Arial-Unicode, Arial, Sans-serif" fill="#000000">from Noun Project</text></svg>