<svg xmlns="http://www.w3.org/2000/svg" data-name="Layer 14" viewBox="0 0 48 60" x="0px" y="0px"><path d="m45.53,32.47l-5-5c-.14-.14-.33-.22-.53-.22h-.25v-5.5h1.25c.41,0,.75-.34.75-.75v-7c0-.41-.34-.75-.75-.75h-7c-.41,0-.75.34-.75.75v6.25h-1.25c-.41,0-.75.34-.75.75v1.34c-.32-.07-.66-.12-1-.12-.13,0-.25.03-.38.04-.56-1.06-1.32-2-2.23-2.78,1.6-1.84,2.41-4.32,1.99-6.87-.08-.53-.22-1.05-.41-1.56,1.9301-.83,3.1201-2.85,2.78-4.95-.2-1.2-.85-2.25-1.84-2.97-1.02-.73-2.28-1.02-3.53-.82-1.87.31-3.33,1.66-3.79,3.4-1.01-.19-2.04-.21-3.07-.04-1.03.17-2,.51-2.9,1.02-.99-1.5-2.8-2.31-4.67-2.01-2.55.42-4.3,2.8-3.89,5.3.34,2.1,2.1,3.64,4.2,3.81-.02.54.01,1.08.1,1.61.28,1.72,1.08,3.27,2.28,4.4901-.71.6899-1.3,1.5-1.76,2.37-.13-.01-.25-.04-.38-.04-2.48,0-4.5,2.03-4.5,4.52v.51h-.25c-.2,0-.39.08-.53.22l-5,5c-.21.21-.28.54-.16.82.11.28.39.46.69.46h3.25v11.25c0,.41.34.75.75.75h34c.41,0,.75-.34.75-.75v-11.25h3.25c.3,0,.58-.18.69-.46.12-.28.06-.61-.16-.82Zm-12.78-10.72h5.5v5.5h-3.5v-.51c0-1.56-.8-2.94-2-3.75v-1.24Zm-2.5,1.97c1.65,0,3,1.36,3,3.02v.51h-6v-.51c0-1.66,1.35-3.02,3-3.02Zm-20.5,3.02c0-1.66,1.35-3.02,3-3.02s3,1.36,3,3.02v.51h-6v-.51Zm8.5,17.51H7.75v-10.5h6.25c.2,0,.39-.08.53-.22l3.72-3.72v14.44Zm-1.39-24.63c-1.49-1.07-2.48-2.66-2.77-4.46-.11-.66-.1201-1.34-.02-2.02.03-.23-.05-.46-.21-.63-.14-.14-.33-.22-.54-.22h-.07c-1.69.17-3.2-.94-3.46-2.55-.27-1.69.92-3.29,2.65-3.58,1.48-.24,2.9.53,3.45,1.89.09.21.26.37.48.43.22.07.46.03.64-.1.91-.64,1.92-1.05,3-1.23s2.17-.11,3.23.2c.22.07.45.03.64-.1s.3-.34.32-.57c.09-1.45,1.2-2.64,2.67-2.89.86-.14,1.71.06,2.41.56.67.48,1.11,1.19,1.24,1.99.26,1.61-.83,3.16-2.48,3.52-.22.05-.41.2-.5099.41-.1.21-.1.45,0,.66.31.61.5099,1.26.62,1.92.62,3.79-2.04,7.38-5.92,8.02-1.91.31-3.82-.13-5.37-1.25Zm7.45,12.63l-3.5-3.5h18.88l3.5,3.5h-18.88Z"/><text x="0" y="63" fill="#000000" font-size="5px" font-weight="bold" font-family="'Helvetica Neue', Helvetica, Arial-Unicode, Arial, Sans-serif">Created by Adriansyah</text><text x="0" y="68" fill="#000000" font-size="5px" font-weight="bold" font-family="'Helvetica Neue', Helvetica, Arial-Unicode, Arial, Sans-serif">from the Noun Project</text></svg>