<svg xmlns="http://www.w3.org/2000/svg" version="1.1" viewBox="-5.0 -10.0 110.0 135.0">
 <path d="m25.457 88.988c0.47656 0.015625 0.85547 0.40625 0.85547 0.88672 0 0.47656-0.37891 0.87109-0.85547 0.88672-0.48047-0.015625-0.85938-0.41016-0.85938-0.88672 0-0.48047 0.37891-0.87109 0.85938-0.88672zm48.547 0c0.47656 0.015625 0.85547 0.40625 0.85547 0.88672 0 0.47656-0.37891 0.87109-0.85547 0.88672-0.48047-0.015625-0.85938-0.41016-0.85938-0.88672 0-0.48047 0.37891-0.87109 0.85938-0.88672zm-30.664-61.359v-12.52c-0.003906-0.5625-0.45703-1.0156-1.0195-1.0195h-27.738c-0.5625 0.003906-1.0156 0.45703-1.0156 1.0195v12.52l14.621-5.8984c0.082031-0.035157 0.17188-0.050781 0.26172-0.050781l0.33984 0.074218 14.547 5.8789zm-6.5352-14.969v-2.4102 0.003906c-0.003907-0.16016-0.13281-0.28906-0.29297-0.29297h-16.121c-0.078125 0-0.15234 0.03125-0.20703 0.085937l-0.085938 0.20703v2.4102zm-7.2305-4.1328v-3.5273h-2.2461v3.5312zm-8.3594 9.1719v2.1367h-4.7148v-2.1367zm-5.0781-1.4297h5.4492l-0.003907 0.003907c0.58594 0 1.0586 0.47266 1.0586 1.0586v2.8711c0 0.58594-0.47266 1.0547-1.0586 1.0586h-5.4492c-0.58203 0-1.0547-0.47266-1.0586-1.0586v-2.8672c0-0.28125 0.11328-0.55078 0.3125-0.75 0.19922-0.19922 0.46875-0.30859 0.75-0.30859zm14.668 1.4297v2.1367h-4.7031v-2.1367zm-5.0781-1.4297h5.4492v0.003907c0.58203 0 1.0547 0.47266 1.0586 1.0586v2.8711c-0.003906 0.58594-0.47656 1.0547-1.0586 1.0586h-5.4492c-0.58203 0-1.0547-0.47266-1.0586-1.0586v-2.8672c0.003906-0.58594 0.47656-1.0586 1.0586-1.0625zm14.672 1.4297v2.1367h-4.7109l0.003906-2.1367zm-5.0781-1.4258h5.4492c0.58203 0.003906 1.0547 0.47656 1.0586 1.0625v2.8711c-0.003906 0.58203-0.47656 1.0547-1.0586 1.0586h-5.4492c-0.58594-0.003906-1.0547-0.47656-1.0586-1.0586v-2.8711c0.003906-0.58594 0.47266-1.0586 1.0586-1.0625zm-28.219 35.727c-0.19141-0.019531-0.36328-0.11328-0.48047-0.26172-0.11719-0.14844-0.17188-0.33594-0.15234-0.52344 0.042969-0.39453 0.39453-0.67578 0.78906-0.63281 2 0.21875 3.5508 2.0195 4.957 2.0195 1.4336 0 3.3242-1.8281 5.4336-1.8281 2.1094 0 4.1094 1.8242 5.8008 1.8008 1.6914-0.027344 3.5859-1.9336 5.6484-1.9336s3.8984 1.9102 5.5625 1.9883c1.6602 0.074219 3.6523-1.6406 5.5195-1.6406 1.8984 0 3.3516 1.7148 4.5391 1.6758 1.2109-0.042968 2.8984-1.8828 5.0156-1.8828l-0.003906-0.003906c0.39453 0 0.71094 0.31641 0.71094 0.71094s-0.31641 0.71484-0.71094 0.71484c-1.6719 0-3.2266 1.8164-4.9727 1.8789-1.7617 0.0625-3.1523-1.668-4.582-1.668-1.4648 0-3.4805 1.7305-5.5781 1.6367-2.0977-0.097656-3.9102-1.9805-5.5-1.9805-1.5898-0.003906-3.4844 1.8867-5.6289 1.9297-2.1406 0.042969-4.1289-1.8008-5.8203-1.8008-1.6914 0-3.5273 1.8281-5.4336 1.8281-1.9375 0-3.4766-1.8555-5.1172-2.0352zm7.0781-5.1758c2.6914-1.3516 3.5703-1.3008 6.293-0.035157 2.4141 1.1211 2.832 1.125 5.1797-0.070312 2.7109-1.3828 3.5352-1.3867 6.2227 0.039062 2.2773 1.207 2.7109 1.2109 5.1211 0.12891 2.5781-1.1562 3.3008-1.1758 5.6602 0.17188l3.6797-11.641-17.871-6.5469-17.895 6.543 3.6016 11.406zm44.793 1.0625 4.4258 4.4258 0.69141-0.6875-1.9688-6.4727zm-3.3281-3.3281 24.055-27.758c2.4375-2.8125 5.2656-5.1523 7.9219-6 1.6406-0.52344 2.9102-0.37891 3.6367 0.25391 0.84375 0.73047 0.96484 2.1562 0.41406 3.8555-0.85938 2.6523-3.1719 5.4727-5.9688 7.8984l-27.746 24.066-2.3203-2.3203zm1.7227-4.1602-6.4727-1.9648-0.69141 0.6875 4.4297 4.4297zm12.984-27.957 0.86719-0.86719h0.003906c0.13281-0.14062 0.13281-0.36328 0-0.5-0.14062-0.13672-0.36328-0.13672-0.5 0l-1.0859 1.0859 0.71875 0.28516zm-0.027343 1.5195-13.188-5.2266-1.4531 1.4531 16.199 13.453 5.8516-6.7422zm-2.1367-2.3789c0.23438-0.23438 0.70703-0.5625 0.38672-0.88672v0.003907c-0.13672-0.13281-0.35938-0.13281-0.5 0l-0.60156 0.60156 0.71484 0.28516zm23.137 22.336-0.39844 0.39844 0.28125 0.71484 0.62109-0.62109 0.003906 0.003906c0.050781-0.066406 0.082031-0.14453 0.082031-0.23047 0-0.09375-0.039062-0.18359-0.10547-0.25s-0.15625-0.10156-0.25-0.10156c-0.085938 0-0.16797 0.03125-0.23438 0.089844zm-2.7227-1.6133c-0.019531-0.039063-0.035156-0.078126-0.046874-0.12109l-2.9375-7.4062-6.7383 5.8438 13.453 16.199 1.4531-1.4531zm1.7578 0.57031 1.1055-1.1055h-0.003906c0.11719-0.14453 0.10937-0.35156-0.019532-0.48438-0.13672-0.13281-0.35938-0.13281-0.5 0l-0.87109 0.86719 0.28516 0.71875zm-6.8828 13.516-6.6836 6.6836-0.003907-0.003907c-0.27734 0.28125-0.27734 0.73438 0 1.0117 0.28125 0.27734 0.73438 0.27734 1.0117 0l6.6836-6.6836c0.28125-0.27734 0.28125-0.73047 0-1.0078-0.27734-0.28125-0.73047-0.28125-1.0078 0zm-1.957-3.3828-5.2617 5.2617c-0.28125 0.27734-0.28125 0.73047 0 1.0078 0.27734 0.28125 0.73047 0.28125 1.0078 0l5.2617-5.2617v0.003906c0.28125-0.28125 0.28125-0.73438 0-1.0117-0.27734-0.27734-0.73047-0.27734-1.0078 0zm-1.9609-3.3789-3.8359 3.8398v-0.003906c-0.27734 0.27734-0.27734 0.73047 0 1.0117 0.27734 0.27734 0.73047 0.27734 1.0117 0l3.8359-3.8398c0.27734-0.27734 0.27734-0.73047 0-1.0078-0.27734-0.28125-0.73047-0.28125-1.0117 0zm-24.449-21.602-6.6836 6.6836c-0.27734 0.27734-0.27734 0.73047 0 1.0117 0.28125 0.27734 0.73047 0.27734 1.0117 0l6.6836-6.6836v-0.003906c0.27734-0.27734 0.27734-0.73047 0-1.0078s-0.73047-0.27734-1.0117 0zm3.3828 1.957-5.2617 5.2617c-0.27734 0.27734-0.27734 0.73047 0 1.0078 0.28125 0.28125 0.73047 0.28125 1.0117 0l5.2617-5.2617v0.003906c0.27734-0.28125 0.27734-0.73047 0-1.0117-0.28125-0.27734-0.73438-0.27734-1.0117 0zm3.3789 1.957-3.8359 3.8398c-0.27734 0.27734-0.27734 0.73047 0 1.0078 0.27734 0.28125 0.73047 0.28125 1.0117 0l3.8359-3.8398v0.003906c0.27734-0.28125 0.27734-0.73047 0-1.0117-0.28125-0.27734-0.73047-0.27734-1.0117 0zm-32.793 64.312c-1.7266-1.7305-4.4375-1.9961-6.4688-0.63672-2.0312 1.3555-2.8203 3.9609-1.8867 6.2188 0.9375 2.2578 3.3359 3.5391 5.7305 3.0625 2.3984-0.47656 4.125-2.5781 4.125-5.0234 0-1.3594-0.53906-2.6602-1.5-3.6211zm-3.6211-2.9297c-1.6016 0-3.1484 0.58594-4.3477 1.6484h-10.91v-28.312h46.422v28.312h-26.82c-1.1992-1.0625-2.7461-1.6484-4.3477-1.6484zm52.168 2.9297c-1.4648-1.4648-3.668-1.9062-5.582-1.1133-1.9141 0.79297-3.1602 2.6641-3.1602 4.7344s1.2461 3.9375 3.1602 4.7305c1.9141 0.79297 4.1172 0.35547 5.582-1.1094 1.9961-2 1.9961-5.2422 0-7.2422zm-10.074 4.7539c-0.27734-1.5938 0.042969-3.2305 0.89844-4.6016h-10.398v4.6016zm12.008-4.6016h2.8672v4.6016h-1.9688c0.27734-1.5938-0.042969-3.2305-0.90234-4.6016zm-53.98 3.3438c-0.16406-0.16016-0.40625 0.085938-0.24219 0.24609 0.16406 0.16406 0.41016-0.082032 0.24219-0.24609zm-0.12109-1.4766c-0.64844 0-1.2344 0.39062-1.4805 0.98828-0.24609 0.59766-0.10937 1.2891 0.34766 1.7461 0.37891 0.37891 0.92188 0.54297 1.4453 0.4375 0.52344-0.10547 0.96094-0.46484 1.1641-0.95703 0.20703-0.49609 0.14844-1.0586-0.14844-1.5039-0.29688-0.44141-0.79688-0.70703-1.332-0.70703zm48.668 1.4805c-0.23438-0.23438-0.45312 0.29297-0.12109 0.29297 0.15234 0 0.23047-0.18359 0.12109-0.29297zm-0.125-1.4805c-0.52734 0-1.0234 0.26172-1.3203 0.69531-0.29688 0.4375-0.36328 0.99219-0.17188 1.4844 0.19141 0.49219 0.61328 0.85938 1.125 0.97656 0.51563 0.12109 1.0547-0.019532 1.4453-0.375 0.48828-0.44531 0.65234-1.1445 0.41406-1.7578-0.23828-0.61719-0.83203-1.0234-1.4922-1.0234zm2.2695-21.082h-9.1133v8.3086h12.277c-0.70312-2.8906-1.7656-5.6797-3.1641-8.3086zm3.5781 9.7344 2.3438 8.0469h-3.8438c-2.4805-2.1953-6.2109-2.1953-8.6914 0h-11.605v-23.129h10.75c2.8008 0 4.9297 1.6406 6.5586 3.9219h-8.918c-0.39453 0-0.71484 0.32031-0.71484 0.71484v9.7344c0 0.39453 0.32031 0.71484 0.71484 0.71484zm-18.68 2.1992h0.76172v0.003906c0.39453 0 0.71484-0.32031 0.71484-0.71484 0-0.39453-0.32031-0.71484-0.71484-0.71484h-0.76172 0.003906c-0.39453 0-0.71484 0.32031-0.71484 0.71484 0 0.39453 0.32031 0.71484 0.71484 0.71484zm-13.105 9.5508v3.3008h1.6211c0.91016 0 1.6523-0.73828 1.6523-1.6484 0-0.91406-0.74219-1.6523-1.6523-1.6523zm-6.0703 0v3.3008h4.6445v-3.3008zm-0.71875-1.4297-2.332 0.003906c-1.3867 0.003906-2.6055 0.93359-2.9688 2.2734h-3.9727c-0.058594-1.1055-0.39453-2.1797-0.98438-3.1211h25.605v3.1211h-3.9648c-0.36719-1.3398-1.582-2.2695-2.9727-2.2734zm-0.71094 4.7266v-3.3008l-1.6211 0.003906c-0.91016 0-1.6484 0.73828-1.6484 1.6484 0 0.91406 0.73828 1.6523 1.6484 1.6523zm-24.281-5.5742h3.6172c-0.58594 0.94141-0.92578 2.0156-0.98438 3.1211h-2.6328zm-1.4297 2.4062v-2.4062h-3.207zm32.957-25.363h-19.738c-0.38672 0.015625-0.69141 0.33203-0.69141 0.71484s0.30469 0.69922 0.69141 0.71484h19.738c0.38672-0.015625 0.69141-0.33203 0.69141-0.71484s-0.30469-0.69922-0.69141-0.71484zm0 5.3516h-12.477c-0.39453 0-0.71484 0.32031-0.71484 0.71484 0 0.39453 0.32031 0.71484 0.71484 0.71484h12.477c0.39453 0 0.71484-0.32031 0.71484-0.71484 0-0.39453-0.32031-0.71484-0.71484-0.71484zm0 5.3516h-6.2383c-0.39453 0-0.71484 0.31641-0.71484 0.71094s0.32031 0.71484 0.71484 0.71484h6.2383c0.39453 0 0.71484-0.32031 0.71484-0.71484s-0.32031-0.71094-0.71484-0.71094zm-37.668-40.09-0.98047-3.1094 19.305-7.7891 19.281 7.7891-0.98047 3.1055-17.996-6.582-0.32031-0.066406c-0.082031 0-0.16406 0.015625-0.23828 0.042968l-18.07 6.6055zm-3.2891 14.246c-0.1875-0.019531-0.35937-0.11719-0.48047-0.26172-0.11719-0.14844-0.17188-0.33984-0.15234-0.52734 0.042969-0.39062 0.39844-0.67188 0.78906-0.62891 2.0078 0.22266 3.5586 2.0273 4.9609 2.0273 1.4336 0 3.3242-1.8281 5.4336-1.8281s4.1094 1.8242 5.8008 1.8008c1.6914-0.027343 3.5859-1.9336 5.6445-1.9336 2.0625 0 3.8984 1.9102 5.5625 1.9883 1.6602 0.074219 3.6523-1.6406 5.5195-1.6406 1.8984 0 3.3477 1.7148 4.5391 1.6758 1.2109-0.042968 2.8984-1.8828 5.0156-1.8828v-0.003906c0.39453 0 0.71094 0.31641 0.71094 0.71094s-0.31641 0.71484-0.71094 0.71484c-1.6719 0-3.2266 1.8164-4.9727 1.8789-1.7617 0.0625-3.1523-1.668-4.582-1.668-1.4648 0-3.4805 1.7305-5.5781 1.6328-2.0977-0.097657-3.9102-1.9805-5.5-1.9805-1.5898 0-3.4805 1.8906-5.625 1.9297-2.1445 0.039062-4.125-1.8047-5.8281-1.8047-1.6992 0-3.5273 1.8281-5.4336 1.8281-1.9375 0.003906-3.4766-1.8516-5.1133-2.0273z" fill-rule="evenodd"/>
<text x="0.0" y="117.5" font-size="5.0" font-weight="bold" font-family="Arbeit Regular, Helvetica, Arial-Unicode, Arial, Sans-serif" fill="#000000">Created by Jono</text><text x="0.0" y="122.5" font-size="5.0" font-weight="bold" font-family="Arbeit Regular, Helvetica, Arial-Unicode, Arial, Sans-serif" fill="#000000">from Noun Project</text></svg>