<svg xmlns="http://www.w3.org/2000/svg" xmlns:xlink="http://www.w3.org/1999/xlink" version="1.1" x="0px" y="0px" viewBox="0 0 128 160" style="enable-background:new 0 0 128 128;" xml:space="preserve"><title>Miscellaneous 27 solid</title><path d="M25.7,85.3c-0.3-0.2-0.7-0.3-1-0.3H10.5c-1.1,0-2,0.9-2,2c0,0.4,0.1,0.7,0.3,1l7.1,12c0.3,0.6,1,1,1.7,1  c0.7,0,1.4-0.4,1.7-1l7.1-12C27,87,26.6,85.8,25.7,85.3z M17.6,95L14,89h7.2L17.6,95z"/><path d="M118.1,85h-14.2c-0.7,0-1.4,0.4-1.8,1c-0.4,0.6-0.4,1.4,0,2l7.1,12c0.6,1,1.8,1.3,2.8,0.7c0.3-0.2,0.6-0.4,0.7-0.7l7.1-12  c0.4-0.6,0.4-1.4,0.1-2C119.5,85.4,118.9,85,118.1,85z M111,95l-3.6-6h7.1L111,95z"/><path d="M62.6,23c0.3,0.6,1,1,1.7,1s1.4-0.4,1.8-1l7.1-12c0.6-1,0.2-2.2-0.7-2.7c-0.3-0.2-0.7-0.3-1-0.3H57.2c-1.1,0-2,0.9-2,2  c0,0.4,0.1,0.7,0.3,1L62.6,23z M67.9,12l-3.6,6l-3.6-6H67.9z"/><path d="M17.6,116c-3.4,0-6.1,2.7-6.1,6s2.8,6,6.1,6c3.3,0,6.1-2.7,6.1-6S21,116,17.6,116z M17.6,124c-1.1,0-2-0.9-2-2s0.9-2,2-2  c1.1,0,2,0.9,2,2S18.7,124,17.6,124z"/><path d="M111,116c-3.3,0-6.1,2.7-6.1,6s2.7,6,6.1,6s6.1-2.7,6.1-6S114.4,116,111,116z M111,124c-1.1,0-2-0.9-2-2s0.9-2,2-2  c1.1,0,2,0.9,2,2C113.1,123.1,112.2,124,111,124z"/><path d="M17.6,12c3.4,0,6.1-2.7,6.1-6S21,0,17.6,0c-3.4,0-6.1,2.7-6.1,6S14.2,12,17.6,12z M17.6,4c1.1,0,2,0.9,2,2s-0.9,2-2,2  c-1.1,0-2-0.9-2-2S16.5,4,17.6,4z"/><path d="M111,12c3.4,0,6.1-2.7,6.1-6s-2.7-6-6.1-6c-3.3,0-6.1,2.7-6.1,6S107.6,12,111,12z M111,4c1.1,0,2,0.9,2,2s-0.9,2-2,2  c-1.1,0-2-0.9-2-2S109.9,4,111,4z"/><path d="M16.2,27.1C5.7,35.4,3.9,50.5,12.3,60.9c3.8,4.8,9.3,7.9,15.4,8.8V47.5c0-2.1,1.2-4.1,3-5.2L50.3,31  C42,20.6,26.7,18.8,16.2,27.1z"/><path d="M120.7,42.3c-2-13.1-14.4-22.1-27.7-20.1c-5.9,1-11.4,4.1-15.2,8.8l19.6,11.3c1.9,1.1,3,3,3,5.2v22.2  C113.6,67.7,122.7,55.4,120.7,42.3z"/><path d="M67.2,105.2c-1.9,1.1-4.2,1.1-6.1,0L41.9,94.1c-0.9,2.5-1.4,5.2-1.4,7.9c0.3,13.3,11.4,23.9,24.9,23.6  c13-0.2,23.5-10.7,23.8-23.6c0-2.9-0.6-5.9-1.6-8.6L67.2,105.2z"/><path d="M55.7,46c0-1.3-0.1-2.6-0.3-3.9L40,51v17.4C49.4,64.9,55.7,56,55.7,46z"/><path d="M48.7,84.1l15.6,9l16.3-9.3C71.3,76.1,57.8,76.2,48.7,84.1z"/><path d="M95.3,45.8L65.1,28.3c-0.3-0.1-0.6-0.2-0.9-0.3c-0.3,0-0.6,0.1-0.9,0.3L32.8,46c-0.7,0.5-1.1,1.2-1.1,2l0.1,34.5  c0,0.7,0.4,1.4,1,1.7l10.7,6.1c0,0,0,0,0,0.1L63,101.7c0.6,0.3,1.4,0.3,2,0l30.3-17.5c0.6-0.4,1-1,1-1.7v-35  C96.3,46.8,95.9,46.1,95.3,45.8z M92.7,81.3l-0.9,0.5l-0.1,0.1l-8.2,4.7L65.4,97.1c-0.6,0.4-1.4,0.4-2,0L45.8,87l-9-5.2l-0.9-0.5  V49.8c0-0.7,0.4-1.4,1-1.7l17.4-10l9-5.2l1-0.6l1,0.6l8.6,4.9l17.8,10.3c0.6,0.4,1,1,1,1.7V81.3z"/><path d="M72.4,46c0.1,10.2,6.6,19.3,16.3,22.6V51l-15.9-9.2C72.6,43.2,72.4,44.6,72.4,46z"/><text x="0" y="143" fill="#000000" font-size="5px" font-weight="bold" font-family="'Helvetica Neue', Helvetica, Arial-Unicode, Arial, Sans-serif">Created by WEBTECHOPS LLP</text><text x="0" y="148" fill="#000000" font-size="5px" font-weight="bold" font-family="'Helvetica Neue', Helvetica, Arial-Unicode, Arial, Sans-serif">from the Noun Project</text></svg>